<svg width="151" height="36" viewBox="0 0 151 36" fill="none" xmlns="http://www.w3.org/2000/svg">
<path d="M71.7035 19.4188V6.89239H73.3611V12.0362H79.8721V6.89239H81.5298V19.4188H79.8721V13.5144H73.3611V19.4188H71.7035Z" fill="#37393B"/>
<path d="M83.0066 13.3179C83.0066 11.2387 83.5649 9.61241 84.6814 8.43896C85.7978 7.2598 87.239 6.67023 89.0049 6.67023C90.1613 6.67023 91.2037 6.9465 92.1322 7.49905C93.0607 8.0516 93.7671 8.82346 94.2513 9.81464C94.7412 10.8001 94.9861 11.9195 94.9861 13.1727C94.9861 14.443 94.7298 15.5794 94.2171 16.5819C93.7044 17.5845 92.9781 18.345 92.0382 18.8634C91.0983 19.376 90.0844 19.6324 88.9964 19.6324C87.8172 19.6324 86.7634 19.3475 85.8349 18.7779C84.9064 18.2083 84.2029 17.4307 83.7244 16.4452C83.2459 15.4598 83.0066 14.4173 83.0066 13.3179ZM84.7155 13.3436C84.7155 14.8531 85.12 16.0436 85.9289 16.9152C86.7434 17.781 87.7631 18.214 88.9878 18.214C90.2353 18.214 91.2607 17.7753 92.0639 16.8981C92.8728 16.0209 93.2772 14.7762 93.2772 13.1641C93.2772 12.1445 93.1035 11.2558 92.756 10.4982C92.4142 9.73489 91.9101 9.14531 91.2436 8.72947C90.5828 8.30794 89.8394 8.09717 89.0135 8.09717C87.84 8.09717 86.8289 8.50162 85.9801 9.3105C85.1371 10.1137 84.7155 11.458 84.7155 13.3436Z" fill="#37393B"/>
<path d="M95.7794 15.3943L97.3431 15.2575C97.4171 15.8841 97.588 16.3997 97.8557 16.8041C98.1292 17.2029 98.5507 17.5275 99.1203 17.7782C99.69 18.0231 100.331 18.1456 101.043 18.1456C101.675 18.1456 102.233 18.0516 102.718 17.8636C103.202 17.6757 103.561 17.4193 103.794 17.0946C104.033 16.7642 104.153 16.4054 104.153 16.018C104.153 15.625 104.039 15.2832 103.811 14.9927C103.583 14.6964 103.207 14.4487 102.683 14.2493C102.347 14.1183 101.604 13.916 100.453 13.6426C99.3026 13.3635 98.4966 13.1015 98.0352 12.8565C97.4371 12.5432 96.9899 12.1559 96.6937 11.6944C96.4032 11.2273 96.2579 10.7061 96.2579 10.1308C96.2579 9.49849 96.4373 8.90891 96.7962 8.36206C97.1551 7.80951 97.6791 7.39082 98.3684 7.106C99.0577 6.82118 99.8238 6.67877 100.667 6.67877C101.595 6.67877 102.413 6.82973 103.119 7.13163C103.831 7.42785 104.378 7.86647 104.76 8.4475C105.141 9.02853 105.346 9.68647 105.375 10.4213L103.786 10.5409C103.7 9.74913 103.41 9.15101 102.914 8.74656C102.424 8.34212 101.698 8.1399 100.735 8.1399C99.7327 8.1399 99.0007 8.32503 98.5393 8.69529C98.0836 9.05986 97.8557 9.50133 97.8557 10.0197C97.8557 10.4697 98.0181 10.84 98.3428 11.1305C98.6618 11.421 99.4935 11.7201 100.838 12.0277C102.188 12.3296 103.114 12.5945 103.615 12.8223C104.344 13.1584 104.882 13.5856 105.23 14.104C105.577 14.6167 105.751 15.2091 105.751 15.8813C105.751 16.5478 105.56 17.1772 105.178 17.7696C104.797 18.3564 104.247 18.8149 103.529 19.1453C102.817 19.47 102.014 19.6324 101.12 19.6324C99.9862 19.6324 99.0349 19.4672 98.2659 19.1368C97.5026 18.8064 96.9016 18.3108 96.463 17.65C96.03 16.9835 95.8022 16.2316 95.7794 15.3943Z" fill="#37393B"/>
<path d="M110.415 19.4188V8.3706H106.288V6.89239H116.217V8.3706H112.073V19.4188H110.415Z" fill="#37393B"/>
<path d="M117.42 19.4188V6.89239H119.078V19.4188H117.42Z" fill="#37393B"/>
<path d="M121.204 19.4188V6.89239H122.904L129.484 16.7272V6.89239H131.073V19.4188H129.373L122.793 9.57539V19.4188H121.204Z" fill="#37393B"/>
<path d="M138.941 14.5056V13.0359L144.247 13.0274V17.6757C143.433 18.325 142.593 18.8149 141.727 19.1453C140.861 19.47 139.972 19.6324 139.061 19.6324C137.83 19.6324 136.711 19.3703 135.703 18.8463C134.7 18.3165 133.943 17.5532 133.43 16.5563C132.917 15.5594 132.661 14.4458 132.661 13.2154C132.661 11.9964 132.914 10.8599 133.421 9.80609C133.934 8.74656 134.669 7.96046 135.626 7.44778C136.583 6.93511 137.685 6.67877 138.933 6.67877C139.838 6.67877 140.656 6.82688 141.385 7.12309C142.12 7.41361 142.695 7.8209 143.111 8.34497C143.527 8.86903 143.843 9.5526 144.059 10.3957L142.564 10.8058C142.376 10.1678 142.143 9.66653 141.863 9.30196C141.584 8.93739 141.186 8.64688 140.667 8.43041C140.149 8.20825 139.573 8.09717 138.941 8.09717C138.184 8.09717 137.528 8.21395 136.976 8.4475C136.423 8.67536 135.976 8.97727 135.634 9.35323C135.298 9.72919 135.036 10.1422 134.848 10.5922C134.529 11.3669 134.37 12.2071 134.37 13.1128C134.37 14.2293 134.561 15.1635 134.942 15.9155C135.33 16.6674 135.891 17.2256 136.626 17.5902C137.36 17.9548 138.141 18.1371 138.967 18.1371C139.685 18.1371 140.385 18.0004 141.069 17.7269C141.752 17.4478 142.271 17.1516 142.624 16.8383V14.5056H138.941Z" fill="#37393B"/>
<path d="M38.1741 28.3004C38.1741 27.3974 38.4165 26.691 38.9015 26.1813C39.3864 25.6691 40.0124 25.4131 40.7794 25.4131C41.2817 25.4131 41.7344 25.5331 42.1377 25.773C42.541 26.013 42.8478 26.3483 43.0581 26.7788C43.2709 27.2068 43.3773 27.693 43.3773 28.2373C43.3773 28.7891 43.266 29.2827 43.0433 29.7181C42.8206 30.1536 42.5051 30.4839 42.0969 30.7091C41.6887 30.9317 41.2483 31.0431 40.7757 31.0431C40.2635 31.0431 39.8058 30.9194 39.4025 30.6719C38.9992 30.4245 38.6937 30.0868 38.4858 29.6588C38.278 29.2307 38.1741 28.778 38.1741 28.3004ZM38.9163 28.3116C38.9163 28.9672 39.092 29.4843 39.4433 29.8629C39.7971 30.239 40.24 30.427 40.772 30.427C41.3138 30.427 41.7592 30.2365 42.108 29.8555C42.4594 29.4744 42.635 28.9338 42.635 28.2336C42.635 27.7908 42.5596 27.4048 42.4086 27.0757C42.2602 26.7442 42.0412 26.4881 41.7518 26.3075C41.4647 26.1244 41.1419 26.0328 40.7831 26.0328C40.2734 26.0328 39.8343 26.2085 39.4656 26.5598C39.0994 26.9087 38.9163 27.4926 38.9163 28.3116Z" fill="#37393B"/>
<path d="M47.5371 25.5095H48.257V28.653C48.257 29.1998 48.1952 29.634 48.0715 29.9557C47.9478 30.2773 47.7239 30.5396 47.3997 30.7425C47.0781 30.9429 46.655 31.0431 46.1305 31.0431C45.6208 31.0431 45.2039 30.9552 44.8798 30.7796C44.5557 30.6039 44.3243 30.3503 44.1858 30.0188C44.0472 29.6847 43.9779 29.2295 43.9779 28.653V25.5095H44.6979V28.6493C44.6979 29.1219 44.7412 29.4707 44.8278 29.6959C44.9169 29.9186 45.0678 30.0905 45.2806 30.2117C45.4958 30.333 45.7581 30.3936 46.0674 30.3936C46.5969 30.3936 46.9742 30.2736 47.1993 30.0336C47.4245 29.7936 47.5371 29.3322 47.5371 28.6493V25.5095Z" fill="#37393B"/>
<path d="M49.1286 30.9503V25.5095H51.5409C52.0259 25.5095 52.3945 25.559 52.6469 25.658C52.8993 25.7545 53.1009 25.9264 53.2518 26.1739C53.4028 26.4213 53.4782 26.6947 53.4782 26.9941C53.4782 27.38 53.3533 27.7054 53.1034 27.9701C52.8535 28.2349 52.4675 28.4031 51.9455 28.4749C52.136 28.5664 52.2807 28.6567 52.3797 28.7458C52.59 28.9388 52.7892 29.18 52.9772 29.4695L53.9236 30.9503H53.018L52.298 29.8183C52.0877 29.4918 51.9145 29.2419 51.7785 29.0687C51.6424 28.8955 51.5199 28.7742 51.411 28.705C51.3046 28.6357 51.1958 28.5874 51.0844 28.5602C51.0028 28.5429 50.8692 28.5342 50.6836 28.5342H49.8486V30.9503H49.1286ZM49.8486 27.9107H51.3962C51.7253 27.9107 51.9826 27.8773 52.1681 27.8105C52.3537 27.7413 52.4947 27.6324 52.5912 27.484C52.6877 27.333 52.736 27.1697 52.736 26.9941C52.736 26.7367 52.6419 26.5252 52.4539 26.3594C52.2683 26.1937 51.9739 26.1108 51.5706 26.1108H49.8486V27.9107Z" fill="#37393B"/>
<path d="M55.7966 29.2023L56.4758 29.1429C56.5079 29.4151 56.5821 29.639 56.6984 29.8146C56.8172 29.9878 57.0003 30.1289 57.2477 30.2377C57.4951 30.3441 57.7735 30.3973 58.0827 30.3973C58.3574 30.3973 58.5998 30.3565 58.8102 30.2748C59.0205 30.1932 59.1763 30.0819 59.2778 29.9408C59.3817 29.7973 59.4336 29.6414 59.4336 29.4732C59.4336 29.3025 59.3842 29.154 59.2852 29.0278C59.1862 28.8992 59.0229 28.7916 58.7953 28.705C58.6493 28.6481 58.3265 28.5602 57.8267 28.4415C57.3269 28.3202 56.9768 28.2064 56.7764 28.1C56.5166 27.9639 56.3224 27.7957 56.1937 27.5953C56.0675 27.3924 56.0044 27.166 56.0044 26.9161C56.0044 26.6415 56.0824 26.3854 56.2382 26.1479C56.3941 25.9079 56.6217 25.726 56.9211 25.6023C57.2205 25.4786 57.5533 25.4168 57.9194 25.4168C58.3227 25.4168 58.6778 25.4823 58.9846 25.6135C59.2939 25.7421 59.5314 25.9326 59.6972 26.185C59.8629 26.4374 59.952 26.7231 59.9644 27.0423L59.2741 27.0943C59.237 26.7504 59.1108 26.4906 58.8955 26.3149C58.6827 26.1392 58.3673 26.0514 57.9491 26.0514C57.5137 26.0514 57.1957 26.1318 56.9953 26.2926C56.7974 26.451 56.6984 26.6427 56.6984 26.8679C56.6984 27.0633 56.7689 27.2242 56.91 27.3503C57.0485 27.4765 57.4098 27.6064 57.9937 27.74C58.5801 27.8712 58.9821 27.9862 59.1998 28.0852C59.5165 28.2312 59.7503 28.4167 59.9013 28.6419C60.0522 28.8645 60.1277 29.1219 60.1277 29.4138C60.1277 29.7033 60.0448 29.9767 59.879 30.234C59.7132 30.4889 59.4745 30.688 59.1627 30.8315C58.8535 30.9726 58.5046 31.0431 58.1161 31.0431C57.6238 31.0431 57.2106 30.9713 56.8766 30.8278C56.545 30.6843 56.284 30.4691 56.0935 30.1821C55.9055 29.8926 55.8065 29.566 55.7966 29.2023Z" fill="#37393B"/>
<path d="M60.7691 30.9503V25.5095H62.8215C63.1827 25.5095 63.4586 25.5269 63.6491 25.5615C63.9163 25.606 64.1402 25.6914 64.3208 25.8176C64.5014 25.9413 64.6462 26.1157 64.755 26.3409C64.8664 26.566 64.922 26.8134 64.922 27.0831C64.922 27.5458 64.7748 27.938 64.4804 28.2596C64.186 28.5788 63.654 28.7384 62.8845 28.7384H61.4891V30.9503H60.7691ZM61.4891 28.0963H62.8957C63.3608 28.0963 63.6911 28.0097 63.8866 27.8365C64.0821 27.6633 64.1798 27.4196 64.1798 27.1054C64.1798 26.8778 64.1216 26.6836 64.0054 26.5227C63.8915 26.3594 63.7406 26.2518 63.5526 26.1998C63.4313 26.1677 63.2074 26.1516 62.8808 26.1516H61.4891V28.0963Z" fill="#37393B"/>
<path d="M65.5115 30.9503V25.5095H69.4455V26.1516H66.2315V27.818H69.2414V28.4563H66.2315V30.3082H69.5717V30.9503H65.5115Z" fill="#37393B"/>
<path d="M70.2391 30.9503V25.5095H74.1731V26.1516H70.9591V27.818H73.969V28.4563H70.9591V30.3082H74.2993V30.9503H70.2391Z" fill="#37393B"/>
<path d="M74.9519 30.9503V25.5095H76.8261C77.2492 25.5095 77.572 25.5355 77.7947 25.5875C78.1065 25.6592 78.3724 25.7891 78.5926 25.9772C78.8796 26.2196 79.0937 26.5302 79.2347 26.9087C79.3782 27.2848 79.4499 27.7153 79.4499 28.2002C79.4499 28.6134 79.4017 28.9796 79.3052 29.2988C79.2087 29.6179 79.085 29.8827 78.9341 30.093C78.7831 30.3008 78.6174 30.4654 78.4368 30.5866C78.2586 30.7053 78.0421 30.7957 77.7873 30.8575C77.5349 30.9194 77.2442 30.9503 76.9151 30.9503H74.9519ZM75.6719 30.3082H76.8335C77.1922 30.3082 77.4731 30.2748 77.6759 30.208C77.8813 30.1412 78.0446 30.0472 78.1658 29.926C78.3366 29.7553 78.4689 29.5264 78.5629 29.2394C78.6594 28.9499 78.7077 28.5998 78.7077 28.1891C78.7077 27.62 78.6137 27.1833 78.4256 26.879C78.2401 26.5722 78.0137 26.3669 77.7465 26.2629C77.5535 26.1887 77.243 26.1516 76.8149 26.1516H75.6719V30.3082Z" fill="#37393B"/>
<path d="M80.1916 30.9503V30.1895H80.9524V30.9503C80.9524 31.2299 80.9029 31.455 80.804 31.6257C80.705 31.7989 80.5479 31.9325 80.3326 32.0266L80.1471 31.7408C80.2881 31.6789 80.392 31.5874 80.4588 31.4662C80.5256 31.3474 80.5627 31.1754 80.5702 30.9503H80.1916Z" fill="#37393B"/>
<path d="M85.0411 30.9503V28.6456L82.9442 25.5095H83.8201L84.8926 27.1499C85.0906 27.4567 85.2749 27.7635 85.4456 28.0703C85.6089 27.7858 85.8068 27.4654 86.0394 27.1091L87.0934 25.5095H87.9322L85.7611 28.6456V30.9503H85.0411Z" fill="#37393B"/>
<path d="M88.0169 28.3004C88.0169 27.3974 88.2594 26.691 88.7443 26.1813C89.2293 25.6691 89.8553 25.4131 90.6223 25.4131C91.1245 25.4131 91.5773 25.5331 91.9806 25.773C92.3839 26.013 92.6907 26.3483 92.901 26.7788C93.1138 27.2068 93.2201 27.693 93.2201 28.2373C93.2201 28.7891 93.1088 29.2827 92.8861 29.7181C92.6635 30.1536 92.348 30.4839 91.9398 30.7091C91.5315 30.9317 91.0911 31.0431 90.6185 31.0431C90.1064 31.0431 89.6487 30.9194 89.2454 30.6719C88.8421 30.4245 88.5365 30.0868 88.3287 29.6588C88.1208 29.2307 88.0169 28.778 88.0169 28.3004ZM88.7592 28.3116C88.7592 28.9672 88.9349 29.4843 89.2862 29.8629C89.64 30.239 90.0829 30.427 90.6148 30.427C91.1567 30.427 91.602 30.2365 91.9509 29.8555C92.3022 29.4744 92.4779 28.9338 92.4779 28.2336C92.4779 27.7908 92.4024 27.4048 92.2515 27.0757C92.1031 26.7442 91.8841 26.4881 91.5946 26.3075C91.3076 26.1244 90.9847 26.0328 90.626 26.0328C90.1163 26.0328 89.6771 26.2085 89.3085 26.5598C88.9423 26.9087 88.7592 27.4926 88.7592 28.3116Z" fill="#37393B"/>
<path d="M97.3799 25.5095H98.0999V28.653C98.0999 29.1998 98.038 29.634 97.9143 29.9557C97.7906 30.2773 97.5667 30.5396 97.2426 30.7425C96.9209 30.9429 96.4979 31.0431 95.9733 31.0431C95.4636 31.0431 95.0467 30.9552 94.7226 30.7796C94.3985 30.6039 94.1672 30.3503 94.0286 30.0188C93.8901 29.6847 93.8208 29.2295 93.8208 28.653V25.5095H94.5408V28.6493C94.5408 29.1219 94.5841 29.4707 94.6707 29.6959C94.7597 29.9186 94.9107 30.0905 95.1234 30.2117C95.3387 30.333 95.601 30.3936 95.9102 30.3936C96.4397 30.3936 96.817 30.2736 97.0422 30.0336C97.2673 29.7936 97.3799 29.3322 97.3799 28.6493V25.5095Z" fill="#37393B"/>
<path d="M98.9715 30.9503V25.5095H101.384C101.869 25.5095 102.237 25.559 102.49 25.658C102.742 25.7545 102.944 25.9264 103.095 26.1739C103.246 26.4213 103.321 26.6947 103.321 26.9941C103.321 27.38 103.196 27.7054 102.946 27.9701C102.696 28.2349 102.31 28.4031 101.788 28.4749C101.979 28.5664 102.124 28.6567 102.223 28.7458C102.433 28.9388 102.632 29.18 102.82 29.4695L103.766 30.9503H102.861L102.141 29.8183C101.931 29.4918 101.757 29.2419 101.621 29.0687C101.485 28.8955 101.363 28.7742 101.254 28.705C101.148 28.6357 101.039 28.5874 100.927 28.5602C100.846 28.5429 100.712 28.5342 100.526 28.5342H99.6914V30.9503H98.9715ZM99.6914 27.9107H101.239C101.568 27.9107 101.825 27.8773 102.011 27.8105C102.197 27.7413 102.338 27.6324 102.434 27.484C102.531 27.333 102.579 27.1697 102.579 26.9941C102.579 26.7367 102.485 26.5252 102.297 26.3594C102.111 26.1937 101.817 26.1108 101.413 26.1108H99.6914V27.9107Z" fill="#37393B"/>
<path d="M105.639 29.2023L106.319 29.1429C106.351 29.4151 106.425 29.639 106.541 29.8146C106.66 29.9878 106.843 30.1289 107.091 30.2377C107.338 30.3441 107.616 30.3973 107.926 30.3973C108.2 30.3973 108.443 30.3565 108.653 30.2748C108.863 30.1932 109.019 30.0819 109.121 29.9408C109.225 29.7973 109.277 29.6414 109.277 29.4732C109.277 29.3025 109.227 29.154 109.128 29.0278C109.029 28.8992 108.866 28.7916 108.638 28.705C108.492 28.6481 108.169 28.5602 107.67 28.4415C107.17 28.3202 106.82 28.2064 106.619 28.1C106.359 27.9639 106.165 27.7957 106.037 27.5953C105.91 27.3924 105.847 27.166 105.847 26.9161C105.847 26.6415 105.925 26.3854 106.081 26.1479C106.237 25.9079 106.465 25.726 106.764 25.6023C107.063 25.4786 107.396 25.4168 107.762 25.4168C108.166 25.4168 108.521 25.4823 108.827 25.6135C109.137 25.7421 109.374 25.9326 109.54 26.185C109.706 26.4374 109.795 26.7231 109.807 27.0423L109.117 27.0943C109.08 26.7504 108.954 26.4906 108.738 26.3149C108.526 26.1392 108.21 26.0514 107.792 26.0514C107.357 26.0514 107.039 26.1318 106.838 26.2926C106.64 26.451 106.541 26.6427 106.541 26.8679C106.541 27.0633 106.612 27.2242 106.753 27.3503C106.891 27.4765 107.253 27.6064 107.837 27.74C108.423 27.8712 108.825 27.9862 109.043 28.0852C109.359 28.2312 109.593 28.4167 109.744 28.6419C109.895 28.8645 109.971 29.1219 109.971 29.4138C109.971 29.7033 109.888 29.9767 109.722 30.234C109.556 30.4889 109.317 30.688 109.006 30.8315C108.696 30.9726 108.347 31.0431 107.959 31.0431C107.467 31.0431 107.053 30.9713 106.719 30.8278C106.388 30.6843 106.127 30.4691 105.936 30.1821C105.748 29.8926 105.649 29.566 105.639 29.2023Z" fill="#37393B"/>
<path d="M114.182 25.5095H114.902V28.653C114.902 29.1998 114.84 29.634 114.717 29.9557C114.593 30.2773 114.369 30.5396 114.045 30.7425C113.723 30.9429 113.3 31.0431 112.776 31.0431C112.266 31.0431 111.849 30.9552 111.525 30.7796C111.201 30.6039 110.969 30.3503 110.831 30.0188C110.692 29.6847 110.623 29.2295 110.623 28.653V25.5095H111.343V28.6493C111.343 29.1219 111.386 29.4707 111.473 29.6959C111.562 29.9186 111.713 30.0905 111.926 30.2117C112.141 30.333 112.403 30.3936 112.713 30.3936C113.242 30.3936 113.619 30.2736 113.845 30.0336C114.07 29.7936 114.182 29.3322 114.182 28.6493V25.5095Z" fill="#37393B"/>
<path d="M119.645 29.0427L120.365 29.2245C120.214 29.8159 119.942 30.2674 119.548 30.5792C119.157 30.8884 118.678 31.0431 118.112 31.0431C117.526 31.0431 117.048 30.9243 116.679 30.6868C116.313 30.4468 116.034 30.1004 115.841 29.6476C115.65 29.1949 115.555 28.7087 115.555 28.1891C115.555 27.6225 115.662 27.1289 115.878 26.7083C116.095 26.2852 116.403 25.9648 116.802 25.7471C117.203 25.5269 117.643 25.4168 118.123 25.4168C118.667 25.4168 119.125 25.5553 119.496 25.8324C119.867 26.1095 120.126 26.4992 120.272 27.0015L119.563 27.1685C119.437 26.7726 119.254 26.4844 119.014 26.3038C118.774 26.1231 118.472 26.0328 118.108 26.0328C117.69 26.0328 117.34 26.133 117.058 26.3335C116.778 26.5339 116.582 26.8035 116.468 27.1425C116.354 27.479 116.297 27.8266 116.297 28.1854C116.297 28.6481 116.364 29.0526 116.497 29.399C116.634 29.7429 116.844 30.0002 117.128 30.1709C117.413 30.3416 117.721 30.427 118.053 30.427C118.456 30.427 118.797 30.3107 119.077 30.0781C119.356 29.8456 119.546 29.5004 119.645 29.0427Z" fill="#37393B"/>
<path d="M124.795 29.0427L125.515 29.2245C125.364 29.8159 125.092 30.2674 124.699 30.5792C124.308 30.8884 123.829 31.0431 123.263 31.0431C122.676 31.0431 122.199 30.9243 121.83 30.6868C121.464 30.4468 121.184 30.1004 120.991 29.6476C120.801 29.1949 120.705 28.7087 120.705 28.1891C120.705 27.6225 120.813 27.1289 121.028 26.7083C121.246 26.2852 121.554 25.9648 121.952 25.7471C122.353 25.5269 122.794 25.4168 123.274 25.4168C123.818 25.4168 124.276 25.5553 124.647 25.8324C125.018 26.1095 125.277 26.4992 125.423 27.0015L124.714 27.1685C124.587 26.7726 124.404 26.4844 124.164 26.3038C123.924 26.1231 123.623 26.0328 123.259 26.0328C122.841 26.0328 122.491 26.133 122.209 26.3335C121.929 26.5339 121.732 26.8035 121.618 27.1425C121.505 27.479 121.448 27.8266 121.448 28.1854C121.448 28.6481 121.515 29.0526 121.648 29.399C121.784 29.7429 121.995 30.0002 122.279 30.1709C122.564 30.3416 122.872 30.427 123.203 30.427C123.606 30.427 123.948 30.3107 124.227 30.0781C124.507 29.8456 124.696 29.5004 124.795 29.0427Z" fill="#37393B"/>
<path d="M126.079 30.9503V25.5095H130.013V26.1516H126.799V27.818H129.809V28.4563H126.799V30.3082H130.139V30.9503H126.079Z" fill="#37393B"/>
<path d="M130.547 29.2023L131.226 29.1429C131.258 29.4151 131.332 29.639 131.448 29.8146C131.567 29.9878 131.75 30.1289 131.998 30.2377C132.245 30.3441 132.523 30.3973 132.833 30.3973C133.107 30.3973 133.35 30.3565 133.56 30.2748C133.77 30.1932 133.926 30.0819 134.028 29.9408C134.132 29.7973 134.184 29.6414 134.184 29.4732C134.184 29.3025 134.134 29.154 134.035 29.0278C133.936 28.8992 133.773 28.7916 133.545 28.705C133.399 28.6481 133.076 28.5602 132.577 28.4415C132.077 28.3202 131.727 28.2064 131.526 28.1C131.267 27.9639 131.072 27.7957 130.944 27.5953C130.818 27.3924 130.754 27.166 130.754 26.9161C130.754 26.6415 130.832 26.3854 130.988 26.1479C131.144 25.9079 131.372 25.726 131.671 25.6023C131.971 25.4786 132.303 25.4168 132.669 25.4168C133.073 25.4168 133.428 25.4823 133.735 25.6135C134.044 25.7421 134.281 25.9326 134.447 26.185C134.613 26.4374 134.702 26.7231 134.714 27.0423L134.024 27.0943C133.987 26.7504 133.861 26.4906 133.646 26.3149C133.433 26.1392 133.117 26.0514 132.699 26.0514C132.264 26.0514 131.946 26.1318 131.745 26.2926C131.547 26.451 131.448 26.6427 131.448 26.8679C131.448 27.0633 131.519 27.2242 131.66 27.3503C131.799 27.4765 132.16 27.6064 132.744 27.74C133.33 27.8712 133.732 27.9862 133.95 28.0852C134.267 28.2312 134.5 28.4167 134.651 28.6419C134.802 28.8645 134.878 29.1219 134.878 29.4138C134.878 29.7033 134.795 29.9767 134.629 30.234C134.463 30.4889 134.225 30.688 133.913 30.8315C133.603 30.9726 133.255 31.0431 132.866 31.0431C132.374 31.0431 131.961 30.9713 131.627 30.8278C131.295 30.6843 131.034 30.4691 130.844 30.1821C130.655 29.8926 130.557 29.566 130.547 29.2023Z" fill="#37393B"/>
<path d="M135.274 29.2023L135.953 29.1429C135.986 29.4151 136.06 29.639 136.176 29.8146C136.295 29.9878 136.478 30.1289 136.725 30.2377C136.973 30.3441 137.251 30.3973 137.56 30.3973C137.835 30.3973 138.077 30.3565 138.288 30.2748C138.498 30.1932 138.654 30.0819 138.755 29.9408C138.859 29.7973 138.911 29.6414 138.911 29.4732C138.911 29.3025 138.862 29.154 138.763 29.0278C138.664 28.8992 138.501 28.7916 138.273 28.705C138.127 28.6481 137.804 28.5602 137.304 28.4415C136.804 28.3202 136.454 28.2064 136.254 28.1C135.994 27.9639 135.8 27.7957 135.671 27.5953C135.545 27.3924 135.482 27.166 135.482 26.9161C135.482 26.6415 135.56 26.3854 135.716 26.1479C135.872 25.9079 136.099 25.726 136.399 25.6023C136.698 25.4786 137.031 25.4168 137.397 25.4168C137.8 25.4168 138.155 25.4823 138.462 25.6135C138.771 25.7421 139.009 25.9326 139.175 26.185C139.341 26.4374 139.43 26.7231 139.442 27.0423L138.752 27.0943C138.715 26.7504 138.588 26.4906 138.373 26.3149C138.16 26.1392 137.845 26.0514 137.427 26.0514C136.991 26.0514 136.673 26.1318 136.473 26.2926C136.275 26.451 136.176 26.6427 136.176 26.8679C136.176 27.0633 136.247 27.2242 136.388 27.3503C136.526 27.4765 136.887 27.6064 137.471 27.74C138.058 27.8712 138.46 27.9862 138.677 28.0852C138.994 28.2312 139.228 28.4167 139.379 28.6419C139.53 28.8645 139.605 29.1219 139.605 29.4138C139.605 29.7033 139.522 29.9767 139.357 30.234C139.191 30.4889 138.952 30.688 138.64 30.8315C138.331 30.9726 137.982 31.0431 137.594 31.0431C137.101 31.0431 136.688 30.9713 136.354 30.8278C136.023 30.6843 135.762 30.4691 135.571 30.1821C135.383 29.8926 135.284 29.566 135.274 29.2023Z" fill="#37393B"/>
<path d="M5.8568 1.64863L6.838 8.28909C6.838 8.28909 14.2824 4.71037 20.0704 8.88203C20.9229 9.59946 23.839 12.5599 20.7878 17.5862C20.2498 18.483 17.648 20.861 14.2824 22.4309L21.0558 23.5535L20.2941 27.9953L5.89267 25.7079L6.47506 22.4774C6.47506 22.4774 15.7173 17.4532 16.479 14.4463C16.7027 13.8175 17.6016 11.5302 12.7104 11.1715C10.7079 11.0238 8.31295 11.9691 6.62277 12.9271C3.33102 14.7924 1.16395 18.1306 0.427529 21.8148C-0.0577926 24.2414 0.467621 26.8811 1.81175 28.9533C3.53148 31.6014 6.2535 32.8717 9.25405 33.4689C11.2734 33.7833 15.4894 34.0512 18.855 30.8671L19.1694 30.9578L19.2601 34.277L28.1879 35.6676C28.3778 32.8232 28.6121 29.9724 28.9729 27.1428C29.8781 20.017 33.5708 10.4583 27.4811 4.65973C25.5313 2.80496 22.9929 1.65074 20.3721 1.0367C16.7576 0.190551 12.8075 0.0660555 9.16543 0.798258C8.03864 1.02404 6.9435 1.23083 5.8568 1.65074V1.64863Z" fill="url(#paint0_linear_865_4016)"/>
<path fill-rule="evenodd" clip-rule="evenodd" d="M52.9372 20.3715L47.7316 5.39615H42.7138L37.5061 20.3715H41.5068L42.3361 17.6938H43.8068H46.6365H48.1072L48.9386 20.3715H52.9372ZM43.1886 14.8262H44.2837H46.1596H47.2547L45.2987 8.3524H45.1446L43.1886 14.8262Z" fill="#37393B"/>
<path d="M52.9373 20.3715H63.9625V17.3203H59.4533C60.0673 16.624 60.6813 15.9276 61.2954 15.2313C62.2386 14.1615 63.3717 13.2119 63.8591 11.8298C63.9583 11.5471 64.0343 11.2538 64.0828 10.9584C64.3445 9.35469 63.8338 7.58854 62.5889 6.51239C61.5127 5.58184 60.0399 5.18514 58.6367 5.20624C57.9256 5.21679 57.2123 5.33707 56.5434 5.58395C54.8533 6.20643 53.4901 7.59698 53.2285 9.4201C53.1589 9.90964 53.1504 10.4055 53.18 10.8972H56.7312C56.5223 10.8972 56.9655 9.25552 57.033 9.14157C57.5289 8.2912 58.7907 8.00423 59.6242 8.51487C61.2405 9.5024 60.2234 11.4247 59.352 12.5114L53.1293 19.7912L53.0027 20.017L52.9352 20.3736L52.9373 20.3715Z" fill="#37393B"/>
<path d="M147.914 14.2125C148.315 14.2125 148.699 14.3132 149.067 14.5144C149.435 14.7136 149.724 15.0002 149.933 15.3742C150.144 15.7482 150.25 16.1395 150.25 16.548C150.25 16.9546 150.146 17.3428 149.939 17.7127C149.734 18.0806 149.446 18.3683 149.076 18.5756C148.708 18.7809 148.321 18.8835 147.914 18.8835C147.508 18.8835 147.12 18.7809 146.75 18.5756C146.382 18.3683 146.094 18.0806 145.887 17.7127C145.682 17.3428 145.579 16.9546 145.579 16.548C145.579 16.1395 145.684 15.7482 145.893 15.3742C146.104 15.0002 146.394 14.7136 146.762 14.5144C147.13 14.3132 147.514 14.2125 147.914 14.2125ZM147.918 14.6699C147.596 14.6699 147.288 14.7502 146.994 14.9107C146.699 15.0713 146.466 15.302 146.295 15.6029C146.127 15.9037 146.042 16.2187 146.042 16.548C146.042 16.8753 146.125 17.1873 146.289 17.4841C146.456 17.7808 146.688 18.0125 146.985 18.1792C147.281 18.3459 147.592 18.4292 147.918 18.4292C148.245 18.4292 148.556 18.3459 148.851 18.1792C149.147 18.0125 149.379 17.7808 149.546 17.4841C149.712 17.1873 149.796 16.8753 149.796 16.548C149.796 16.2187 149.71 15.9037 149.54 15.6029C149.371 15.302 149.138 15.0713 148.841 14.9107C148.547 14.7502 148.239 14.6699 147.918 14.6699ZM146.86 17.7981V15.3193H147.363C147.834 15.3193 148.098 15.3213 148.155 15.3254C148.322 15.3396 148.451 15.3732 148.543 15.426C148.636 15.4768 148.713 15.5561 148.774 15.6638C148.837 15.7695 148.869 15.8874 148.869 16.0175C148.869 16.1964 148.81 16.3499 148.692 16.4779C148.576 16.6039 148.412 16.6822 148.201 16.7127C148.276 16.7411 148.334 16.7726 148.375 16.8072C148.416 16.8397 148.471 16.9027 148.543 16.9962C148.561 17.0206 148.622 17.1212 148.725 17.2981L149.018 17.7981H148.396L148.189 17.3956C148.049 17.1253 147.933 16.9556 147.841 16.8865C147.75 16.8153 147.634 16.7798 147.494 16.7798H147.363V17.7981H146.86ZM147.363 16.3895H147.567C147.858 16.3895 148.037 16.3783 148.107 16.3559C148.178 16.3336 148.234 16.295 148.274 16.2401C148.315 16.1832 148.335 16.1191 148.335 16.048C148.335 15.9789 148.315 15.9179 148.274 15.8651C148.236 15.8102 148.18 15.7716 148.107 15.7492C148.033 15.7248 147.853 15.7126 147.567 15.7126H147.363V16.3895Z" fill="black"/>
<defs>
<linearGradient id="paint0_linear_865_4016" x1="15.58" y1="0.317799" x2="15.58" y2="35.6676" gradientUnits="userSpaceOnUse">
<stop stop-color="#87C33C"/>
<stop offset="1" stop-color="#48681E"/>
</linearGradient>
</defs>
</svg>
