<svg width="151" height="28" viewBox="0 0 151 28" fill="none" xmlns="http://www.w3.org/2000/svg">
<g clip-path="url(#clip0_865_4018)">
<path fill-rule="evenodd" clip-rule="evenodd" d="M55.0662 1.77051V26.3551H53.4007V1.77051H55.0662ZM38.382 1.78816V12.3499C39.8041 11.0762 41.6434 10.3672 43.5526 10.3569C47.0224 10.3569 50.3709 12.7349 50.3709 18.4701C50.3709 24.3974 46.6066 26.6319 42.5809 26.6319C40.4955 26.615 38.4505 26.0555 36.647 25.0084V1.78816H38.382ZM82.2989 10.4032H82.5867C86.7007 10.5058 89.5353 13.7661 89.1217 18.565L89.093 18.8606H76.5669C76.5369 20.5015 77.1732 22.0846 78.3304 23.2485C79.4876 24.4124 81.067 25.0576 82.7081 25.0371C82.814 25.0415 82.9195 25.0437 83.0246 25.0437C84.5055 25.0246 85.962 24.6629 87.2798 23.9871L87.5831 23.8304L88.1897 25.2996C86.6005 26.1731 84.8193 26.6385 83.0059 26.654C82.8787 26.654 82.7503 26.6514 82.6209 26.6463C77.382 26.4764 74.6985 22.3338 74.8673 17.9099C74.8253 15.9195 75.5923 13.9972 76.993 12.5823C78.3937 11.1676 80.3082 10.3813 82.2989 10.4032ZM142.997 10.6183V5.33742L141.262 5.34184V10.6227H138.469V12.1095H141.262V20.8349C141.262 24.8749 143.501 26.6054 146.311 26.6054C147.501 26.5946 148.679 26.3574 149.781 25.9062L149.278 24.3621C148.363 24.7946 147.358 25.0044 146.346 24.9742C144.072 24.8871 142.997 23.2448 142.997 20.708V12.1051H148.168V10.6183H142.997ZM115.776 10.3735C119.801 10.3735 123.289 13.3812 123.289 18.469C123.289 23.6793 119.783 26.5999 115.776 26.5999C111.283 26.5999 108.264 22.9602 108.264 18.469C108.264 13.6955 111.595 10.3735 115.776 10.3735ZM60.85 20.2139V10.6183L59.1139 10.6172V20.3915C59.1139 25.1826 61.4731 26.5988 63.9371 26.5988C66.3312 26.5309 68.5434 25.3055 69.8709 23.3121V26.3551H71.6103V10.6139H69.8676V21.5253C68.4106 23.676 66.5367 24.9698 64.4897 24.9698C62.672 24.9698 60.85 23.9562 60.85 20.2139ZM131.599 10.4087C133.116 10.4263 134.606 10.8168 135.936 11.5459L135.274 12.9268C134.159 12.3254 132.914 12.0074 131.648 12.0003C129.062 12.0003 127.898 13.2764 127.898 14.6054C127.898 16.1643 129.509 16.8216 131.642 17.6916C131.831 17.7683 132.023 17.8467 132.218 17.9275C135.982 19.4143 136.781 21.1106 136.781 22.5599C136.781 25.0249 134.491 26.5812 131.455 26.5812C129.701 26.5609 127.986 26.0653 126.492 25.1474L127.237 23.644C128.464 24.4875 129.913 24.9481 131.401 24.9676C133.032 24.9676 135.061 24.286 135.04 22.6249C135.04 21.2088 133.548 20.1069 131.155 19.1628C128.5 18.0962 126.176 17.1168 126.176 14.5988C126.176 12.0808 128.528 10.4076 131.598 10.4076L131.599 10.4087ZM94.75 13.6999V1.78816H93.014V26.3584H94.7489V15.5496C95.8088 13.765 97.8371 11.9826 100.11 12.0003C101.984 12.0168 103.719 13.2235 103.719 16.6326V26.3551H105.437V16.2665C105.437 12.7514 103.597 10.3735 100.474 10.3735C98.1258 10.4408 95.9712 11.6928 94.75 13.6999ZM38.382 14.4113C39.64 12.9335 41.4568 12.0466 43.3959 11.9639C46.3275 11.9639 48.6184 14.344 48.6349 18.4889C48.6349 23.1929 45.668 25.0812 42.4761 25.0812C41.049 25.0663 39.6458 24.7128 38.382 24.0499V14.4113ZM115.776 11.9992C112.046 11.9992 110.017 14.9771 110.017 18.469C110.017 21.9488 112.03 24.9764 115.776 24.9764C119.403 24.9764 121.554 21.9334 121.554 18.469C121.554 14.9716 119.419 11.9992 115.776 11.9992ZM76.6595 17.1764C76.8656 14.2506 79.2974 11.9814 82.2304 11.9782C82.297 11.9782 82.3643 11.9793 82.4323 11.9815C83.8342 12.0092 85.1644 12.6062 86.1167 13.6354C87.069 14.6644 87.5614 16.0369 87.4805 17.4367H76.6375L76.6595 17.1764ZM82.2304 11.9782C82.2301 11.9782 82.2307 11.9782 82.2304 11.9782Z" fill="#1A6BDF"/>
<path fill-rule="evenodd" clip-rule="evenodd" d="M26.4691 8.04735V0.667572H19.1445V8.04735H26.4691ZM26.4691 10.2124V17.5933H19.1445V10.2124H26.4691ZM7.57132 27.1382V19.7573H0.25V27.1382H7.57132ZM17.0202 19.7573V27.1382H9.69559V19.7573H17.0202ZM26.4691 19.7573V27.1382H19.1445V19.7573H26.4691ZM17.0202 17.5933V10.2124H9.69559V17.5933H17.0202ZM7.57132 10.2124V17.5933H0.25V10.2124H7.57132ZM17.0147 0.667572V8.04735H9.69559V0.667572H17.0147ZM7.57132 8.04735V0.667572H0.25V8.04735H7.57132Z" fill="#1A6BDF"/>
</g>
<defs>
<clipPath id="clip0_865_4018">
<rect width="150" height="26.4706" fill="white" transform="translate(0.25 0.667572)"/>
</clipPath>
</defs>
</svg>
