<svg width="151" height="29" viewBox="0 0 151 29" fill="none" xmlns="http://www.w3.org/2000/svg">
<g clip-path="url(#clip0_865_4052)">
<mask id="mask0_865_4052" style="mask-type:luminance" maskUnits="userSpaceOnUse" x="0" y="0" width="151" height="29">
<path d="M150.25 0.138168H0.25V28.6192H150.25V0.138168Z" fill="white"/>
</mask>
<g mask="url(#mask0_865_4052)">
<path d="M64.1728 4.61995C61.6289 4.61995 60.455 6.46579 60.455 8.24775C60.455 10.0297 61.5646 11.8117 64.1728 11.8117C65.12 11.8117 66.1314 11.4317 66.8487 10.7626L67.9549 11.8117C66.913 12.7967 65.5733 13.2776 64.1694 13.2776C60.5159 13.2776 58.882 10.5643 58.882 7.98549C58.882 5.4067 60.5768 3.12715 64.1694 3.12715C65.5056 3.12715 66.8115 3.60457 67.8567 4.62331L66.781 5.64206C66.0604 4.93936 65.1166 4.62331 64.1694 4.62331L64.1728 4.61995ZM68.8716 13.0523V3.25154H70.5021V11.5864H75.7895V13.0523H68.875H68.8716ZM81.9565 13.2776C78.462 13.2776 76.7977 10.7929 76.7977 8.21748C76.7977 5.2285 78.9525 3.09689 81.9565 3.09689C85.4138 3.09689 87.1086 5.54792 87.1086 8.21748C87.1086 10.8871 85.4409 13.2776 81.9565 13.2776ZM81.9836 4.52581C79.6697 4.52581 78.3977 6.11612 78.3977 8.24775C78.4282 9.96583 79.4736 11.8419 81.9565 11.8419C84.4396 11.8419 85.5086 10.1238 85.5086 8.24775C85.5086 6.37165 84.4329 4.55607 81.9836 4.52581ZM92.325 13.2439C90.0754 13.1801 88.1845 11.7814 88.1845 9.01095V3.28181H89.7879V9.01095C89.7879 10.7929 90.8603 11.7478 92.325 11.8117C93.9285 11.9058 95.1024 10.8871 95.1024 9.01095V3.28181H96.6991V9.01095C96.6991 11.9058 94.7404 13.3414 92.325 13.2439ZM102.02 13.0556H98.201V3.25154H102.02C105.447 3.25154 107.014 5.63869 107.041 8.0561C107.108 10.5373 105.508 13.0523 102.02 13.0523V13.0556ZM102.02 4.75108H99.8016V11.5595H102.02C104.463 11.5595 105.511 9.80776 105.478 8.05946C105.45 6.40527 104.402 4.75108 102.02 4.75108ZM118.793 13.0892H117.355L116.019 9.61951L114.943 6.34139L113.833 9.65311L112.531 13.0892H111.13L107.471 3.28853H109.267L111.814 10.8299L114.422 3.28853H115.464L118.109 10.8299L120.619 3.28853H122.416L118.793 13.0892ZM131.123 13.0892L130.145 11.0215H124.696L123.748 13.0892H122.054L126.553 3.28853H128.316L132.818 13.0892H131.12H131.123ZM127.433 4.91246L125.319 9.58925H129.557L127.433 4.91246ZM137.256 9.04794V13.0556H135.656V9.04794L131.776 3.32216V3.25827H133.698L136.438 7.58539L139.307 3.25827H141.238V3.32216L137.256 9.04794ZM146.065 4.37115C144.723 4.37115 143.748 4.91246 143.748 5.86732C143.748 6.82218 144.858 7.07771 146.191 7.26599C148.248 7.55514 150.24 8.09309 150.24 10.2886C150.24 12.4841 148.183 13.3112 146.062 13.3112C144.137 13.3112 142.669 12.7396 141.756 11.0854L142.964 10.2886C143.678 11.4654 144.918 11.9092 146.093 11.9092C147.266 11.9092 148.643 11.5292 148.643 10.2886C148.643 9.23959 147.466 8.8563 146.065 8.66801C144.076 8.41249 142.185 7.9048 142.185 5.80344C142.185 3.70207 144.235 3.00274 146.065 3.00274C147.5 3.00274 148.968 3.35241 149.817 4.65694L148.549 5.45377C148.054 4.7847 147.11 4.37115 146.065 4.37115ZM36.7377 22.8093C30.317 22.8093 25.1141 17.7358 25.1141 11.4754C25.1141 5.21506 30.3204 0.138168 36.7377 0.138168C43.155 0.138168 48.3646 5.21506 48.3646 11.4754C48.3646 17.7358 43.1584 22.8093 36.7377 22.8093ZM45.2727 28.5856C39.6841 28.5856 35.1579 24.171 35.1579 18.7209C35.1579 13.2709 39.6876 8.8563 45.2727 8.8563C50.8578 8.8563 55.3874 13.2709 55.3874 18.7209C55.3874 24.171 50.8578 28.5856 45.2727 28.5856ZM28.3516 28.5856C22.7664 28.5856 18.2367 24.171 18.2367 18.7209C18.2367 13.2709 22.7664 8.8563 28.3516 8.8563C33.9367 8.8563 38.4697 13.2709 38.4697 18.7209C38.4697 24.171 33.94 28.5856 28.3516 28.5856ZM28.3516 28.6192V20.7652H45.2388V28.6192H28.3516ZM11.8364 22.5941H2.01248C1.57271 22.5941 1.24118 22.2714 1.24118 21.841V20.7281C1.24118 20.2978 1.56932 19.975 2.01248 19.975H11.7991C12.2389 19.975 12.5738 20.2978 12.5738 20.7281V21.841C12.611 22.2377 12.2423 22.5941 11.8364 22.5941ZM26.6635 22.5941H16.8768C16.4371 22.5941 16.1056 22.2714 16.1056 21.841V20.7281C16.1056 20.2978 16.4371 19.975 16.8768 19.975H26.6635C27.1032 19.975 27.4347 20.2978 27.4347 20.7281V21.841C27.4347 22.2377 27.1032 22.5941 26.6601 22.5941H26.6635ZM37.147 28.6192H9.99943C9.26197 28.6192 8.63953 28.014 8.63953 27.2911C8.63953 26.5683 9.26197 25.963 9.99943 25.963H37.1436C37.8777 25.963 38.5035 26.575 38.5035 27.2911C38.5035 28.0072 37.8777 28.6192 37.1436 28.6192H37.147ZM28.7608 16.5692H1.60991C0.872449 16.5692 0.25 15.9606 0.25 15.2444C0.25 14.5283 0.872449 13.9163 1.60991 13.9163H28.7575C29.495 13.9163 30.1174 14.525 30.1174 15.2444C30.1174 15.9639 29.495 16.5692 28.7575 16.5692H28.7608ZM36.0476 10.5441H8.89324C8.15916 10.5441 7.53333 9.93222 7.53333 9.21605C7.53333 8.49991 8.15916 7.88799 8.89324 7.88799H36.0408C36.7749 7.88799 37.4007 8.49991 37.4007 9.21605C37.4007 9.93222 36.8087 10.5441 36.0408 10.5441H36.0476ZM38.6558 4.51573H11.5048C10.7674 4.51573 10.1449 3.90717 10.1449 3.18767C10.1449 2.46816 10.7674 1.85961 11.5048 1.85961H38.6524C39.3898 1.85961 40.0123 2.47152 40.0123 3.18767C40.0123 3.9038 39.3898 4.51573 38.6524 4.51573H38.6558Z" fill="#2E39BF"/>
<path d="M98.4848 17.6653C97.7576 17.1643 96.8586 16.9087 95.7991 16.9087H93.5125V24.1408H95.7991C96.8548 24.1408 97.7576 23.8651 98.4848 23.3473C98.8845 23.0716 99.1959 22.6749 99.4019 22.1941C99.6089 21.7133 99.7304 21.125 99.7304 20.4895C99.7304 19.8541 99.625 19.2824 99.4019 18.8017C99.1959 18.3209 98.8807 17.941 98.4848 17.6653ZM94.8487 18.146H95.576C96.3744 18.146 97.0304 18.3007 97.5345 18.61C98.0899 18.9362 98.3671 19.5749 98.3671 20.4861C98.3671 21.3972 98.0899 22.0865 97.5345 22.4496C97.0513 22.7589 96.4086 22.9305 95.5959 22.9305H94.869V18.1427H94.8521L94.8487 18.146Z" fill="#2E39BF"/>
<path d="M101.743 19.0572H100.46V24.1542H101.743V19.0572Z" fill="#2E39BF"/>
<path d="M106.212 19.491C105.829 19.1481 105.396 18.9396 104.913 18.9396C104.202 18.9396 103.613 19.1817 103.164 19.6625C102.697 20.1433 102.47 20.7485 102.47 21.4882C102.47 22.2279 102.697 22.8128 103.147 23.3138C103.597 23.7946 104.202 24.0367 104.913 24.0367C105.413 24.0367 105.829 23.8988 106.178 23.6231V23.7442C106.178 24.1745 106.056 24.5006 105.833 24.7259C105.61 24.9512 105.295 25.0688 104.916 25.0688C104.327 25.0688 103.946 24.8436 103.496 24.2249L102.613 25.0688L102.63 25.1025C102.819 25.3614 103.113 25.6202 103.496 25.8791C103.877 26.1212 104.361 26.2389 104.933 26.2389C105.694 26.2389 106.32 25.9968 106.77 25.5497C107.22 25.0857 107.463 24.4637 107.463 23.7072V19.0573H106.198V19.4877H106.216L106.212 19.491ZM105.867 22.4867C105.64 22.7456 105.346 22.8667 104.984 22.8667C104.622 22.8667 104.324 22.7456 104.101 22.4867C103.874 22.2279 103.773 21.9017 103.773 21.4882C103.773 21.0746 103.877 20.7316 104.101 20.4728C104.327 20.2139 104.622 20.0928 104.984 20.0928C105.346 20.0928 105.64 20.2139 105.867 20.4728C106.093 20.7316 106.212 21.0578 106.212 21.4882C106.212 21.9185 106.09 22.2279 105.867 22.4867Z" fill="#2E39BF"/>
<path d="M109.639 19.0572H108.356V24.1542H109.639V19.0572Z" fill="#2E39BF"/>
<path d="M112.392 17.6822H111.127V19.0607H110.399V20.2308H111.144V22.3489C111.144 23.0045 111.282 23.4854 111.543 23.7611C111.803 24.0368 112.271 24.1746 112.93 24.1746C113.14 24.1746 113.346 24.1746 113.552 24.1578H113.603V22.9877L113.153 23.0045C112.842 23.0045 112.632 22.9541 112.548 22.8499C112.443 22.7456 112.392 22.5238 112.392 22.1774V20.2308H113.586V19.0607H112.392V17.6822Z" fill="#2E39BF"/>
<path d="M120.602 16.9222H119.321V24.1543H120.602V16.9222Z" fill="#2E39BF"/>
<path d="M133.244 22.3319C133.018 22.5908 132.778 22.8128 132.605 22.9338C132.432 23.0549 132.205 23.1053 131.928 23.1053C131.547 23.1053 131.235 22.9674 130.995 22.6917C130.751 22.416 130.612 22.0529 130.612 21.6225C130.612 21.1922 130.734 20.8291 130.974 20.5534C131.218 20.2777 131.529 20.1398 131.908 20.1398C132.324 20.1398 132.757 20.3987 133.136 20.8291L133.985 20.0188C133.43 19.2959 132.72 18.9697 131.871 18.9697C131.16 18.9697 130.554 19.2286 130.051 19.7263C129.55 20.2273 129.307 20.8627 129.307 21.6191C129.307 22.3757 129.567 23.0145 130.051 23.5121C130.554 24.0131 131.16 24.2685 131.871 24.2685C132.804 24.2685 133.553 23.8718 134.07 23.1321L133.237 22.3218L133.244 22.3319Z" fill="#2E39BF"/>
<path d="M138.579 19.7632C138.39 19.5043 138.147 19.2992 137.835 19.1614C137.524 19.0067 137.175 18.9361 136.779 18.9361C136.052 18.9361 135.481 19.195 135.031 19.7296C134.598 20.2474 134.391 20.8829 134.391 21.6427C134.391 22.4025 134.635 23.0548 135.102 23.5356C135.568 24.0164 136.195 24.2585 136.955 24.2585C137.821 24.2585 138.532 23.9155 139.069 23.2263L139.103 23.1927L138.255 22.3824C138.186 22.4697 138.065 22.5875 137.96 22.6749C137.838 22.796 137.716 22.88 137.578 22.9506C137.388 23.0548 137.162 23.0885 136.918 23.0885C136.556 23.0885 136.262 22.9842 136.035 22.7791C135.829 22.5908 135.707 22.3319 135.673 22.0058H139.084L139.1 21.5418C139.1 21.2157 139.049 20.8862 138.961 20.5937C138.894 20.3012 138.755 20.0255 138.579 19.7666V19.7632ZM135.754 20.9702C135.825 20.7282 135.927 20.5231 136.083 20.3684C136.255 20.197 136.481 20.1095 136.759 20.1095C137.07 20.1095 137.314 20.197 137.47 20.3684C137.625 20.5231 137.713 20.7316 137.73 20.9702H135.754Z" fill="#2E39BF"/>
<path d="M143.498 19.4371C143.098 19.111 142.564 18.9361 141.887 18.9361C141.454 18.9361 141.055 19.0235 140.694 19.2118C140.365 19.3834 140.034 19.6591 139.827 20.0221L139.844 20.0389L140.677 20.8324C141.021 20.2978 141.387 20.1095 141.887 20.1095C142.165 20.1095 142.371 20.1767 142.547 20.3146C142.723 20.4525 142.808 20.6408 142.808 20.8661V21.1081C142.497 21.0039 142.168 20.9702 141.857 20.9702C141.218 20.9702 140.697 21.125 140.298 21.4175C139.898 21.71 139.709 22.1403 139.709 22.6917C139.709 23.1725 139.881 23.5524 140.213 23.8449C140.541 24.1206 140.958 24.2585 141.462 24.2585C141.965 24.2585 142.415 24.0702 142.828 23.7239V24.1374H144.093V20.8661C144.093 20.2474 143.903 19.7632 143.505 19.4371H143.498ZM141.211 22.1941C141.35 22.0899 141.556 22.0394 141.817 22.0394C142.127 22.0394 142.456 22.1067 142.787 22.2278V22.7286C142.51 22.9875 142.127 23.1254 141.678 23.1254C141.451 23.1254 141.278 23.075 141.157 22.9707C141.035 22.8665 140.984 22.7454 140.984 22.5908C141.001 22.4361 141.072 22.2983 141.211 22.1941Z" fill="#2E39BF"/>
<path d="M148.883 19.5414C148.521 19.1447 148.017 18.9396 147.378 18.9396C146.877 18.9396 146.461 19.0775 146.15 19.37V19.0607H144.885V24.1577H146.167V21.3335C146.167 20.9536 146.255 20.6442 146.444 20.4223C146.617 20.1971 146.877 20.0962 147.205 20.0962C147.5 20.0962 147.727 20.1837 147.882 20.3887C148.038 20.577 148.125 20.8527 148.125 21.199V24.1442H149.408V21.199C149.425 20.493 149.235 19.9416 148.887 19.5448L148.883 19.5414Z" fill="#2E39BF"/>
<path d="M117.916 19.4371C117.518 19.111 116.983 18.9361 116.306 18.9361C115.873 18.9361 115.474 19.0235 115.112 19.2118C114.784 19.3834 114.456 19.6591 114.246 20.0221L114.263 20.0389L115.095 20.8324C115.441 20.2978 115.806 20.1095 116.306 20.1095C116.584 20.1095 116.79 20.1767 116.962 20.3146C117.135 20.4525 117.223 20.6408 117.223 20.8661V21.1081C116.912 21.0039 116.584 20.9702 116.269 20.9702C115.629 20.9702 115.109 21.125 114.71 21.4175C114.311 21.71 114.121 22.1403 114.121 22.6917C114.121 23.1725 114.294 23.5524 114.621 23.8449C114.95 24.1206 115.366 24.2585 115.87 24.2585C116.374 24.2585 116.824 24.0702 117.24 23.7239V24.1374H118.505V20.8661C118.505 20.2474 118.316 19.7632 117.916 19.4371ZM115.629 22.1941C115.768 22.0899 115.975 22.0394 116.235 22.0394C116.547 22.0394 116.875 22.1067 117.206 22.2278V22.7286C116.929 22.9875 116.549 23.1254 116.097 23.1254C115.87 23.1254 115.698 23.075 115.575 22.9707C115.454 22.8665 115.404 22.7454 115.404 22.5908C115.42 22.4361 115.491 22.2983 115.629 22.1941Z" fill="#2E39BF"/>
<path d="M125.055 24.2585C122.995 24.2585 121.313 22.5876 121.313 20.54C121.313 18.4924 122.995 16.8214 125.055 16.8214C127.115 16.8214 128.796 18.4924 128.796 20.54C128.796 22.5876 127.135 24.2585 125.055 24.2585ZM125.055 18.1091C123.722 18.1091 122.629 19.1951 122.629 20.5197C122.629 21.8445 123.722 22.9305 125.055 22.9305C126.388 22.9305 127.479 21.8445 127.479 20.5197C127.479 19.1951 126.408 18.1091 125.055 18.1091Z" fill="#2E39BF"/>
<path d="M85.7488 24.1173C85.3461 24.1173 85.0248 23.9895 84.7846 23.7374V24.0399H84.0066V19.2018H84.7982V20.9064C85.0587 20.6845 85.3732 20.5736 85.7488 20.5736C86.2359 20.5736 86.6317 20.7416 86.9429 21.0779C87.2541 21.4141 87.4097 21.8378 87.4097 22.3488C87.4097 22.8599 87.2541 23.2835 86.9429 23.6196C86.6283 23.9526 86.2292 24.1173 85.7488 24.1173ZM85.0248 23.1221C85.1872 23.3238 85.4104 23.4246 85.6912 23.4246C85.972 23.4246 86.1953 23.3238 86.3577 23.1221C86.52 22.9203 86.6012 22.6614 86.6012 22.3488C86.6012 22.0361 86.52 21.7772 86.3577 21.5755C86.1953 21.3737 85.972 21.2729 85.6912 21.2729C85.4104 21.2729 85.1872 21.3737 85.0248 21.5755C84.8624 21.7772 84.7813 22.0361 84.7813 22.3488C84.7813 22.6614 84.8624 22.9203 85.0248 23.1221ZM91.3136 20.9938L89.4091 25.3781H88.5768L89.1046 24.0803L87.7582 20.6576H88.6614L89.5511 23.1019L90.4543 20.6576L91.317 20.9938H91.3136Z" fill="#2E39BF"/>
<path d="M101.12 16.8383C100.894 16.8383 100.704 16.9257 100.566 17.0636C100.41 17.2182 100.339 17.3897 100.339 17.615C100.339 17.8402 100.427 18.0285 100.566 18.1832C100.722 18.3378 100.91 18.4084 101.137 18.4084C101.364 18.4084 101.553 18.321 101.709 18.1832C101.865 18.0285 101.936 17.8402 101.936 17.615C101.936 17.3897 101.847 17.2014 101.709 17.0636C101.537 16.9089 101.347 16.8383 101.12 16.8383Z" fill="#2E39BF"/>
<path d="M109.016 16.8383C108.789 16.8383 108.6 16.9257 108.462 17.0636C108.306 17.2182 108.235 17.3897 108.235 17.615C108.235 17.8402 108.323 18.0285 108.462 18.1832C108.617 18.3378 108.806 18.4084 109.033 18.4084C109.26 18.4084 109.449 18.321 109.605 18.1832C109.76 18.0285 109.832 17.8402 109.832 17.615C109.832 17.3897 109.743 17.2014 109.605 17.0636C109.415 16.9089 109.222 16.8383 109.016 16.8383Z" fill="#2E39BF"/>
</g>
</g>
<defs>
<clipPath id="clip0_865_4052">
<rect width="150" height="28.481" fill="white" transform="translate(0.25 0.138168)"/>
</clipPath>
</defs>
</svg>
