<svg width="151" height="34" viewBox="0 0 151 34" fill="none" xmlns="http://www.w3.org/2000/svg">
<g clip-path="url(#clip0_865_4048)">
<path d="M33.4688 0.360046L19.0625 8.73505V25.3913L33.5 33.735L47.9375 25.3913V8.73505L33.4688 0.360046ZM40.7812 11.6725L33.4688 15.7975L26.25 11.6413L33.4688 7.4538L40.7812 11.6725ZM25.4062 13.0163L32.6562 17.235V25.7038L25.4062 21.485V13.0163ZM34.3125 25.7038V17.235L41.5625 13.0163V21.485L34.3125 25.7038Z" fill="#FF6A5B"/>
<path d="M1.3125 12.5788C2.03125 11.2663 3 10.2663 4.25 9.54755C5.5 8.8288 6.9375 8.4538 8.5625 8.4538C10.6563 8.4538 12.375 8.98505 13.75 10.0163C15.125 11.0475 16.0312 12.5163 16.5 14.4225H11.9062C11.6562 13.7038 11.25 13.11 10.6875 12.7038C10.125 12.2975 9.40625 12.0788 8.53125 12.0788C7.3125 12.0788 6.34375 12.5163 5.65625 13.3913C4.9375 14.2663 4.59375 15.5163 4.59375 17.1413C4.59375 18.7663 4.9375 19.985 5.65625 20.86C6.375 21.735 7.34375 22.1725 8.53125 22.1725C10.25 22.1725 11.375 21.3913 11.9062 19.86H16.5C16.0312 21.6725 15.0937 23.1413 13.7187 24.2038C12.3437 25.2663 10.625 25.8288 8.53125 25.8288C6.90625 25.8288 5.46875 25.4538 4.21875 24.7663C2.96875 24.0475 1.96875 23.0475 1.28125 21.735C0.59375 20.4225 0.25 18.9225 0.25 17.1725C0.25 15.4225 0.59375 13.8913 1.3125 12.5788Z" fill="#0A1E36"/>
<path d="M66.0938 10.3913C67.3438 11.6725 67.9375 13.4225 67.9375 15.7038V25.5788H63.6875V16.2975C63.6875 14.9538 63.3438 13.9225 62.6875 13.2038C62.0313 12.485 61.0938 12.1413 59.9375 12.1413C58.7813 12.1413 57.8438 12.5163 57.1563 13.2038C56.4688 13.9225 56.125 14.9538 56.125 16.2975V25.61H51.875V8.73505H56.125V10.8288C56.6875 10.11 57.4063 9.5163 58.3125 9.11005C59.1875 8.7038 60.1563 8.48505 61.2188 8.48505C63.2188 8.48505 64.8438 9.1413 66.0938 10.3913Z" fill="#0A1E36"/>
<path d="M79 21.6725L83.25 8.73505H87.7812L81.5312 25.5788H76.3437L70.125 8.73505H74.6875L79 21.6725Z" fill="#0A1E36"/>
<path d="M105.75 18.4538H93.4375C93.5313 19.6725 93.9687 20.61 94.7187 21.3288C95.4687 22.0163 96.4063 22.36 97.5 22.36C99.0938 22.36 100.219 21.6725 100.875 20.3288H105.469C104.969 21.9538 104.063 23.2975 102.656 24.3288C101.281 25.36 99.5938 25.8913 97.5625 25.8913C95.9375 25.8913 94.5 25.5163 93.1875 24.8288C91.9063 24.11 90.9062 23.0788 90.1875 21.7663C89.4687 20.4538 89.125 18.9225 89.125 17.2038C89.125 15.485 89.4687 13.9225 90.1875 12.61C90.9062 11.2975 91.9062 10.2663 93.1562 9.5788C94.4375 8.86005 95.9062 8.5163 97.5625 8.5163C99.2188 8.5163 100.594 8.86005 101.875 9.54755C103.156 10.235 104.125 11.2038 104.813 12.485C105.5 13.7663 105.875 15.2038 105.875 16.86C105.875 17.3913 105.844 17.9538 105.75 18.4538ZM101.469 15.5788C101.437 14.485 101.063 13.61 100.281 12.9538C99.5 12.2975 98.5625 11.9538 97.4375 11.9538C96.375 11.9538 95.5 12.2663 94.7813 12.9225C94.0625 13.5475 93.625 14.4538 93.4687 15.5788H101.469Z" fill="#0A1E36"/>
<path d="M111.719 25.11C110.625 24.61 109.75 23.9538 109.125 23.0788C108.5 22.235 108.125 21.2975 108.062 20.235H112.344C112.438 20.8913 112.75 21.4225 113.312 21.86C113.875 22.2975 114.562 22.485 115.406 22.485C116.25 22.485 116.844 22.3288 117.313 21.985C117.781 21.6725 118 21.235 118 20.735C118 20.1725 117.719 19.7663 117.156 19.5163C116.594 19.235 115.719 18.9538 114.5 18.61C113.25 18.2975 112.219 17.985 111.406 17.6725C110.594 17.36 109.906 16.86 109.344 16.1725C108.781 15.5163 108.469 14.61 108.469 13.4538C108.469 12.5163 108.75 11.6725 109.281 10.8913C109.812 10.11 110.594 9.5163 111.594 9.0788C112.594 8.6413 113.781 8.42255 115.125 8.42255C117.125 8.42255 118.75 8.92255 119.938 9.92255C121.125 10.9225 121.781 12.2663 121.906 13.985H117.844C117.781 13.3288 117.5 12.7663 117 12.3913C116.5 11.985 115.844 11.7975 115 11.7975C114.219 11.7975 113.625 11.9538 113.219 12.235C112.813 12.5163 112.594 12.9225 112.594 13.4225C112.594 13.985 112.875 14.4225 113.438 14.7038C114 14.985 114.875 15.2975 116.094 15.61C117.313 15.9225 118.312 16.235 119.094 16.5475C119.875 16.86 120.562 17.36 121.156 18.0475C121.719 18.735 122.031 19.61 122.062 20.735C122.062 21.7038 121.781 22.5788 121.25 23.36C120.719 24.1413 119.937 24.735 118.937 25.1725C117.937 25.61 116.75 25.8288 115.438 25.8288C114.125 25.8288 112.813 25.61 111.719 25.11Z" fill="#0A1E36"/>
<path d="M129.813 8.73505V25.5788H125.562V8.73505H129.813Z" fill="#0A1E36"/>
<path d="M137.125 24.7975C135.812 24.0788 134.813 23.0475 134.063 21.735C133.313 20.4225 132.938 18.8913 132.938 17.1725C132.938 15.4538 133.313 13.9225 134.063 12.61C134.813 11.2975 135.875 10.2663 137.188 9.54755C138.5 8.8288 139.969 8.4538 141.594 8.4538C143.219 8.4538 144.687 8.8288 146 9.54755C147.312 10.2663 148.344 11.2975 149.125 12.61C149.875 13.9225 150.25 15.4538 150.25 17.1725C150.25 18.8913 149.844 20.4225 149.094 21.735C148.312 23.0475 147.25 24.0788 145.938 24.7975C144.594 25.5163 143.125 25.86 141.469 25.86C139.812 25.86 138.406 25.5163 137.125 24.7975ZM143.687 21.5788C144.375 21.2038 144.906 20.6413 145.313 19.8913C145.719 19.1413 145.906 18.235 145.906 17.1413C145.906 15.5475 145.5 14.2975 144.656 13.4538C143.812 12.5788 142.781 12.1725 141.563 12.1725C140.344 12.1725 139.312 12.61 138.5 13.4538C137.687 14.3288 137.281 15.5475 137.281 17.1413C137.281 18.735 137.687 19.985 138.5 20.8288C139.312 21.7038 140.312 22.11 141.531 22.11C142.281 22.1413 143 21.9538 143.687 21.5788Z" fill="#0A1E36"/>
<path d="M125.844 6.0163C125.344 5.54755 125.094 4.9538 125.094 4.23505C125.094 3.5163 125.344 2.92255 125.844 2.4538C126.344 1.98505 126.969 1.73505 127.719 1.73505C128.469 1.73505 129.094 1.98505 129.594 2.4538C130.094 2.92255 130.344 3.5163 130.344 4.23505C130.344 4.9538 130.094 5.54755 129.594 6.0163C129.094 6.48505 128.469 6.73505 127.719 6.73505C126.969 6.73505 126.344 6.48505 125.844 6.0163Z" fill="#0A1E36"/>
</g>
<defs>
<clipPath id="clip0_865_4048">
<rect width="150" height="33.375" fill="white" transform="translate(0.25 0.360046)"/>
</clipPath>
</defs>
</svg>
