<svg width="151" height="22" viewBox="0 0 151 22" fill="none" xmlns="http://www.w3.org/2000/svg">
<path d="M26.9175 3.61638H32.3606C37.6316 3.61638 42.0757 5.85566 42.0757 11.8845C42.0757 17.1898 37.7349 20.0492 32.843 20.0492H26.9175V3.61638ZM30.5348 16.6731H32.4295C35.8057 16.6731 38.3206 15.3984 38.3206 11.6778C38.3206 8.43944 35.7368 6.95807 32.6707 6.95807H30.5348V16.6731Z" fill="#061C26"/>
<path d="M43.936 8.74951H47.4155V10.5754H47.45C48.2079 9.19737 49.1725 8.47391 50.6883 8.47391C51.0673 8.47391 51.5151 8.50836 51.8596 8.57726V11.7467C51.3773 11.6089 50.895 11.5055 50.3783 11.5055C47.7256 11.5055 47.4155 13.0214 47.4155 15.2951V20.0148H43.936V8.74951Z" fill="#061C26"/>
<path d="M63.6761 18.0856C62.5736 19.498 60.7478 20.3249 58.9219 20.3249C55.4424 20.3249 52.6519 18.0167 52.6519 14.3994C52.6519 10.8165 55.4424 8.47391 58.9219 8.47391C62.1602 8.47391 64.1928 10.7821 64.1928 14.3994V15.5018H56.1314C56.407 16.8109 57.4061 17.6722 58.7496 17.6722C59.8865 17.6722 60.6444 17.0865 61.2301 16.2942L63.6761 18.0856ZM60.7133 13.0903C60.7478 11.9189 59.8176 10.9543 58.5774 10.9543C57.0616 10.9543 56.2003 11.9879 56.1314 13.0903H60.7133Z" fill="#061C26"/>
<path d="M72.9433 18.6023C72.1854 19.8081 70.7729 20.2904 69.3604 20.2904C67.259 20.2904 65.3642 19.0846 65.3642 16.8109C65.3642 12.918 70.0839 12.8491 72.9777 12.8491C72.9777 11.6089 71.9442 10.8165 70.7385 10.8165C69.6016 10.8165 68.637 11.3333 67.9135 12.1601L66.0532 10.2653C67.3279 9.05955 69.1882 8.43944 71.0141 8.43944C75.0792 8.43944 76.1472 10.5065 76.1472 14.2616V19.9803H72.9433V18.6023ZM72.1165 15.0884C71.0485 15.0884 68.6714 15.1917 68.6714 16.7075C68.6714 17.5344 69.5671 17.9478 70.3251 17.9478C71.7031 17.9478 72.9777 17.2243 72.9777 15.8463V15.0884H72.1165Z" fill="#061C26"/>
<path d="M78.3519 8.74949H81.6936V10.2653H81.7281C82.1759 9.3696 83.3128 8.43944 85.0353 8.43944C86.62 8.43944 87.8947 9.094 88.5148 10.472C89.3416 9.0251 90.4096 8.43944 92.0977 8.43944C95.1637 8.43944 96.0939 10.6098 96.0939 13.3314V19.9803H92.58V13.4347C92.58 12.4012 92.201 11.5055 91.0641 11.5055C89.4794 11.5055 88.9627 12.6424 88.9627 14.0204V19.9803H85.4832V14.0549C85.4832 13.228 85.5176 11.54 83.9329 11.54C82.107 11.54 81.8314 12.9524 81.8314 14.3994V20.0148H78.3519V8.74949Z" fill="#061C26"/>
<path d="M98.2643 3.61638H101.882V9.7141H108.91V3.61638H112.527V20.0492H108.91V12.918H101.882V20.0148H98.2643V3.61638Z" fill="#061C26"/>
<path d="M120.347 8.47391C123.827 8.47391 126.617 10.7821 126.617 14.3994C126.617 17.9822 123.827 20.3249 120.347 20.3249C116.868 20.3249 114.077 18.0167 114.077 14.3994C114.077 10.7821 116.868 8.47391 120.347 8.47391ZM120.347 17.2243C122.07 17.2243 123.138 16.053 123.138 14.3649C123.138 12.6769 122.104 11.5055 120.347 11.5055C118.625 11.5055 117.557 12.6769 117.557 14.3649C117.557 16.0875 118.625 17.2243 120.347 17.2243Z" fill="#061C26"/>
<path d="M134.575 12.0568C134.058 11.4366 133.404 11.0921 132.543 11.0921C131.957 11.0921 131.268 11.3333 131.268 12.0223C131.268 13.6759 137.124 12.2635 137.124 16.5698C137.124 19.4291 134.334 20.2904 131.922 20.2904C130.338 20.2904 128.615 19.9114 127.478 18.7746L129.58 16.432C130.234 17.2243 130.992 17.6722 132.026 17.6722C132.818 17.6722 133.611 17.4655 133.611 16.8454C133.611 15.0195 127.754 16.5698 127.754 12.2635C127.754 9.61077 130.131 8.47391 132.474 8.47391C133.955 8.47391 135.609 8.85286 136.642 9.95528L134.575 12.0568Z" fill="#061C26"/>
<path d="M146.495 11.54H143.429V15.2951C143.429 16.5008 143.567 17.3966 145.082 17.3966C145.461 17.3966 146.185 17.3621 146.495 17.0865V19.9803C145.737 20.2559 144.876 20.3248 144.049 20.3248C141.741 20.3248 139.949 19.3602 139.949 16.9142V11.54H137.71V8.7495H139.949V5.40781H143.429V8.7495H146.495V11.54Z" fill="#061C26"/>
<path d="M20.682 16.2597C18.9939 17.1899 17.0647 17.7066 14.9976 17.6722C8.86547 17.5344 4.04241 12.6079 4.14576 6.61357C4.18021 4.58099 4.80032 2.68622 5.83383 1.1015C2.56104 2.92737 0.321762 6.33797 0.252861 10.2998C0.115059 16.2597 4.97257 21.2206 11.0703 21.3584C15.1354 21.4273 18.6838 19.3947 20.682 16.2597Z" fill="#061C26"/>
<path d="M11.7249 0.619186C10.0713 0.619186 8.52103 1.03259 7.14302 1.7905C6.28176 3.20297 5.79945 4.82214 5.73055 6.47576C5.6272 11.6778 9.8646 15.9841 15.1355 16.0874C16.7202 16.0874 18.5117 15.7085 19.8897 14.9506C20.7165 13.5381 21.1988 11.8845 21.1988 10.1275C21.2677 4.89104 16.9958 0.619186 11.7249 0.619186Z" fill="#0073EC"/>
<path d="M147.701 3.68529C147.701 3.51304 147.735 3.34079 147.804 3.16853C147.873 2.99628 147.976 2.89293 148.08 2.75513C148.183 2.65178 148.321 2.54843 148.493 2.47953C148.631 2.41063 148.803 2.37617 148.975 2.37617C149.148 2.37617 149.32 2.41063 149.458 2.47953C149.595 2.54843 149.733 2.61733 149.871 2.75513C149.974 2.85848 150.078 2.99628 150.147 3.16853C150.216 3.34079 150.25 3.47859 150.25 3.68529C150.25 3.85754 150.216 4.0298 150.147 4.20205C150.078 4.33985 149.974 4.47765 149.871 4.61545C149.768 4.7188 149.63 4.82215 149.458 4.89106C149.32 4.95996 149.148 4.99441 148.975 4.99441C148.803 4.99441 148.631 4.95996 148.493 4.89106C148.355 4.82215 148.217 4.75325 148.08 4.61545C147.976 4.5121 147.873 4.3743 147.804 4.20205C147.735 4.0298 147.701 3.85754 147.701 3.68529ZM147.942 3.68529C147.942 3.82309 147.976 3.99534 148.011 4.0987C148.08 4.2365 148.149 4.33985 148.217 4.4432C148.321 4.54655 148.424 4.61545 148.562 4.68435C148.7 4.75325 148.838 4.75325 148.975 4.75325C149.113 4.75325 149.251 4.7188 149.389 4.68435C149.527 4.61545 149.63 4.54655 149.733 4.4432C149.837 4.33985 149.906 4.2365 149.94 4.0987C150.009 3.96089 150.009 3.82309 150.009 3.68529C150.009 3.54749 149.974 3.37524 149.94 3.27189C149.871 3.13408 149.802 3.03073 149.733 2.92738C149.63 2.82403 149.527 2.75513 149.389 2.68623C149.251 2.61733 149.113 2.61733 148.975 2.61733C148.838 2.61733 148.7 2.65178 148.562 2.68623C148.424 2.75513 148.321 2.82403 148.217 2.92738C148.114 3.03073 148.045 3.13408 148.011 3.27189C147.942 3.37524 147.942 3.51304 147.942 3.68529ZM148.493 2.92738H149.044C149.389 2.92738 149.561 3.06518 149.561 3.34079C149.561 3.47859 149.527 3.58194 149.458 3.65084C149.389 3.71974 149.285 3.75419 149.182 3.75419L149.595 4.40875H149.354L148.941 3.75419H148.7V4.40875H148.459L148.493 2.92738ZM148.7 3.58194H148.941H149.079C149.113 3.58194 149.182 3.58194 149.217 3.54749C149.251 3.54749 149.285 3.51304 149.32 3.47859C149.354 3.44414 149.354 3.40969 149.354 3.34079C149.354 3.30634 149.354 3.23744 149.32 3.20299C149.285 3.16853 149.285 3.13408 149.251 3.13408C149.217 3.13408 149.182 3.09963 149.148 3.09963C149.113 3.09963 149.079 3.09963 149.044 3.09963H148.734L148.7 3.58194Z" fill="#061C26"/>
</svg>
