<svg width="151" height="31" viewBox="0 0 151 31" fill="none" xmlns="http://www.w3.org/2000/svg">
<g clip-path="url(#clip0_865_4041)">
<path d="M52.5814 18.6153C51.5374 18.9693 49.5634 19.4613 47.5834 19.4613C44.8534 19.4613 42.8794 18.7713 41.4994 17.4393C40.1254 16.1553 39.3694 14.1993 39.3934 12.0033C39.4174 7.0293 43.0354 4.1853 47.9434 4.1853C49.8754 4.1853 51.3634 4.5633 52.0954 4.9173L51.3874 7.6233C50.5654 7.2693 49.5454 6.9813 47.9014 6.9813C45.0814 6.9813 42.9514 8.5773 42.9514 11.8233C42.9514 15.0693 44.8834 16.7313 47.6554 16.7313C48.4294 16.7313 49.0534 16.6413 49.3234 16.5093V13.3773H47.0134V10.7373H52.5874V18.6213L52.5814 18.6153Z" fill="#010101"/>
<path d="M53.8234 12.0273C53.8234 10.4313 53.7814 9.38729 53.7334 8.45129H56.6434L56.7574 10.4493H56.8474C57.4054 8.87129 58.7374 8.20529 59.7754 8.20529C60.0874 8.20529 60.2434 8.20529 60.4834 8.24729V11.4213C60.2374 11.3793 59.9494 11.3313 59.5714 11.3313C58.3294 11.3313 57.4834 11.9973 57.2614 13.0413C57.2194 13.2633 57.1954 13.5273 57.1954 13.7973V19.3053H53.8234V12.0213V12.0273Z" fill="#010101"/>
<path d="M63.3274 14.9553C63.4354 16.3533 64.8154 17.0193 66.3934 17.0193C67.5454 17.0193 68.4814 16.8633 69.3934 16.5753L69.8374 18.8613C68.7274 19.3053 67.3714 19.5273 65.9074 19.5273C62.2234 19.5273 60.1114 17.3973 60.1114 14.0013C60.1114 11.2473 61.8214 8.20529 65.5954 8.20529C69.1054 8.20529 70.4374 10.9353 70.4374 13.6233C70.4374 14.1993 70.3714 14.7093 70.3234 14.9553H63.3274ZM67.2994 12.6453C67.2994 11.8233 66.9454 10.4493 65.3914 10.4493C63.9694 10.4493 63.3934 11.7393 63.3034 12.6453H67.2994Z" fill="#010101"/>
<path d="M73.6954 14.9553C73.8034 16.3533 75.1834 17.0193 76.7614 17.0193C77.9134 17.0193 78.8494 16.8633 79.7614 16.5753L80.2054 18.8613C79.0954 19.3053 77.7394 19.5273 76.2754 19.5273C72.5914 19.5273 70.4794 17.3973 70.4794 14.0013C70.4794 11.2473 72.1894 8.20529 75.9634 8.20529C79.4734 8.20529 80.8054 10.9353 80.8054 13.6233C80.8054 14.1993 80.7394 14.7093 80.6914 14.9553H73.6954ZM77.6674 12.6453C77.6674 11.8233 77.3134 10.4493 75.7594 10.4493C74.3374 10.4493 73.7614 11.7393 73.6714 12.6453H77.6674Z" fill="#010101"/>
<path d="M81.4654 11.9133C81.4654 10.5573 81.4234 9.40529 81.3754 8.45129H84.3034L84.4594 9.93929H84.5254C84.9694 9.24929 86.0794 8.20529 87.8794 8.20529C90.0994 8.20529 91.7674 9.66929 91.7674 12.8673V19.3053H88.3954V13.2873C88.3954 11.8893 87.9094 10.9353 86.6854 10.9353C85.7554 10.9353 85.1974 11.5773 84.9754 12.2013C84.8854 12.3993 84.8434 12.7353 84.8434 13.0473V19.3113H81.4714V11.9193L81.4654 11.9133Z" fill="#010101"/>
<path d="M105.729 18.6153C104.685 18.9693 102.711 19.4613 100.731 19.4613C98.0014 19.4613 96.0273 18.7713 94.6473 17.4393C93.2733 16.1493 92.5173 14.1993 92.5353 11.9973C92.5593 7.0233 96.1773 4.1853 101.085 4.1853C103.017 4.1853 104.505 4.5633 105.237 4.9173L104.529 7.6233C103.707 7.2693 102.687 6.9813 101.043 6.9813C98.2233 6.9813 96.0933 8.5773 96.0933 11.8233C96.0933 15.0693 98.0253 16.7313 100.797 16.7313C101.577 16.7313 102.195 16.6413 102.465 16.5093V13.3773H100.155V10.7373H105.729V18.6213V18.6153Z" fill="#010101"/>
<path d="M109.635 14.9553C109.743 16.3533 111.123 17.0193 112.701 17.0193C113.853 17.0193 114.789 16.8633 115.701 16.5753L116.145 18.8613C115.035 19.3053 113.679 19.5273 112.215 19.5273C108.531 19.5273 106.419 17.3973 106.419 14.0013C106.419 11.2473 108.129 8.20529 111.903 8.20529C115.413 8.20529 116.745 10.9353 116.745 13.6233C116.745 14.1993 116.679 14.7093 116.631 14.9553H109.635ZM113.607 12.6453C113.607 11.8233 113.253 10.4493 111.699 10.4493C110.277 10.4493 109.701 11.7393 109.611 12.6453H113.607Z" fill="#010101"/>
<path d="M120.003 14.9553C120.111 16.3533 121.491 17.0193 123.069 17.0193C124.221 17.0193 125.157 16.8633 126.069 16.5753L126.513 18.8613C125.403 19.3053 124.047 19.5273 122.583 19.5273C118.899 19.5273 116.787 17.3973 116.787 14.0013C116.787 11.2473 118.497 8.20529 122.271 8.20529C125.781 8.20529 127.113 10.9353 127.113 13.6233C127.113 14.1993 127.047 14.7093 126.999 14.9553H120.003ZM123.975 12.6453C123.975 11.8233 123.621 10.4493 122.067 10.4493C120.645 10.4493 120.069 11.7393 119.979 12.6453H123.975Z" fill="#010101"/>
<path d="M131.145 13.0233H131.187C131.433 12.5793 131.697 12.1353 131.967 11.7153L134.163 8.4513H138.225L134.337 12.8493L138.777 19.3113H134.625L132.003 14.8473L131.139 15.9153V19.3113H127.767V3.5433H131.139V13.0233H131.145Z" fill="#010101"/>
<path d="M138.429 16.3533C139.053 16.7313 140.337 17.1753 141.339 17.1753C142.341 17.1753 142.785 16.8213 142.785 16.2633C142.785 15.7053 142.455 15.4413 141.189 15.0213C138.945 14.2653 138.081 13.0473 138.105 11.7573C138.105 9.73529 139.839 8.20529 142.521 8.20529C143.787 8.20529 144.921 8.49329 145.587 8.82929L144.987 11.1633C144.501 10.8993 143.565 10.5393 142.635 10.5393C141.813 10.5393 141.345 10.8753 141.345 11.4273C141.345 11.9373 141.765 12.2013 143.097 12.6693C145.161 13.3773 146.025 14.4213 146.049 16.0233C146.049 18.0453 144.453 19.5333 141.345 19.5333C139.923 19.5333 138.657 19.2213 137.835 18.7773L138.435 16.3593L138.429 16.3533Z" fill="#010101"/>
<path d="M90.4534 30.1173L88.9894 24.3333H89.7814L90.4654 27.2613C90.6394 27.9813 90.7894 28.7013 90.8914 29.2593H90.9094C91.0054 28.6833 91.1854 27.9993 91.3834 27.2493L92.1574 24.3333H92.9374L93.6394 27.2673C93.8014 27.9513 93.9574 28.6413 94.0414 29.2473H94.0594C94.1794 28.6113 94.3414 27.9693 94.5214 27.2493L95.2834 24.3333H96.0454L94.4074 30.1173H93.6274L92.9014 27.1053C92.7214 26.3673 92.6014 25.8033 92.5234 25.2153H92.5054C92.4034 25.7913 92.2714 26.3553 92.0614 27.1053L91.2394 30.1173H90.4594H90.4534Z" fill="#010101"/>
<path d="M100.281 27.4053H98.0314V29.4873H100.533V30.1113H97.2814V24.3273H100.407V24.9513H98.0314V26.7813H100.281V27.3993V27.4053Z" fill="#010101"/>
<path d="M102.021 24.4113C102.345 24.3453 102.861 24.2913 103.383 24.2913C104.127 24.2913 104.607 24.4173 104.967 24.7113C105.267 24.9333 105.447 25.2753 105.447 25.7313C105.447 26.2893 105.081 26.7753 104.469 27.0033V27.0213C105.021 27.1593 105.663 27.6153 105.663 28.4733C105.663 28.9713 105.465 29.3493 105.177 29.6313C104.775 29.9973 104.121 30.1713 103.179 30.1713C102.663 30.1713 102.273 30.1353 102.021 30.1053V24.4173V24.4113ZM102.765 26.7813H103.443C104.235 26.7813 104.697 26.3673 104.697 25.8093C104.697 25.1313 104.181 24.8673 103.425 24.8673C103.083 24.8673 102.885 24.8913 102.765 24.9213V26.7813ZM102.765 29.5533C102.909 29.5773 103.125 29.5893 103.389 29.5893C104.163 29.5893 104.871 29.3073 104.871 28.4673C104.871 27.6753 104.193 27.3513 103.377 27.3513H102.759V29.5533H102.765Z" fill="#010101"/>
<path d="M110.271 24.3333V26.7513H113.067V24.3333H113.823V30.1173H113.067V27.4053H110.271V30.1173H109.527V24.3333H110.271Z" fill="#010101"/>
<path d="M120.573 27.1653C120.573 29.1573 119.361 30.2133 117.891 30.2133C116.421 30.2133 115.293 29.0313 115.293 27.2793C115.293 25.4433 116.433 24.2433 117.975 24.2433C119.517 24.2433 120.573 25.4553 120.573 27.1713V27.1653ZM116.085 27.2613C116.085 28.4973 116.757 29.6013 117.927 29.6013C119.097 29.6013 119.781 28.5093 119.781 27.2013C119.781 26.0493 119.181 24.8493 117.939 24.8493C116.697 24.8493 116.085 25.9893 116.085 27.2613Z" fill="#010101"/>
<path d="M121.959 29.2053C122.295 29.4093 122.781 29.5833 123.297 29.5833C124.059 29.5833 124.509 29.1813 124.509 28.5993C124.509 28.0593 124.203 27.7473 123.417 27.4473C122.475 27.1113 121.893 26.6253 121.893 25.8093C121.893 24.9093 122.637 24.2373 123.765 24.2373C124.359 24.2373 124.785 24.3753 125.043 24.5193L124.839 25.1253C124.653 25.0233 124.263 24.8493 123.741 24.8493C122.949 24.8493 122.649 25.3233 122.649 25.7133C122.649 26.2533 123.003 26.5173 123.801 26.8293C124.779 27.2073 125.277 27.6813 125.277 28.5273C125.277 29.4213 124.617 30.1893 123.255 30.1893C122.697 30.1893 122.091 30.0273 121.779 29.8173L121.965 29.1933L121.959 29.2053Z" fill="#010101"/>
<path d="M127.905 24.9693H126.147V24.3333H130.425V24.9693H128.655V30.1173H127.899V24.9693H127.905Z" fill="#010101"/>
<path d="M132.333 24.3333V30.1173H131.589V24.3333H132.333Z" fill="#010101"/>
<path d="M134.151 30.1173V24.3333H134.967L136.821 27.2613C137.247 27.9393 137.583 28.5453 137.859 29.1393H137.877C137.811 28.3593 137.793 27.6573 137.793 26.7573V24.3393H138.495V30.1233H137.739L135.903 27.1893C135.501 26.5473 135.111 25.8873 134.823 25.2573H134.799C134.841 25.9953 134.859 26.6913 134.859 27.6513V30.1233H134.157L134.151 30.1173Z" fill="#010101"/>
<path d="M144.717 29.8593C144.381 29.9793 143.721 30.1773 142.941 30.1773C142.065 30.1773 141.345 29.9553 140.781 29.4153C140.283 28.9353 139.977 28.1613 139.977 27.2613C139.983 25.5393 141.171 24.2733 143.109 24.2733C143.781 24.2733 144.303 24.4173 144.549 24.5373L144.369 25.1433C144.063 25.0053 143.673 24.8973 143.091 24.8973C141.687 24.8973 140.763 25.7733 140.763 27.2193C140.763 28.6653 141.645 29.5533 142.995 29.5533C143.481 29.5533 143.817 29.4813 143.991 29.3973V27.6753H142.815V27.0753H144.717V29.8533V29.8593Z" fill="#010101"/>
</g>
<path fill-rule="evenodd" clip-rule="evenodd" d="M33.9639 0.735046H0.25V30.5614H33.9639V0.735046ZM14.6357 6.91749H18.7794V13.3316L25.1935 13.3316V17.4753H18.7794V23.8894H14.6357V17.4753H8.22161L8.22161 13.3316L14.6357 13.3316V6.91749Z" fill="#35B04A"/>
<path d="M148.04 4.14331C148.419 4.14331 148.783 4.23851 149.131 4.4289C149.479 4.61737 149.752 4.88854 149.95 5.2424C150.15 5.59626 150.25 5.96647 150.25 6.35303C150.25 6.73766 150.152 7.10498 149.956 7.455C149.762 7.80309 149.489 8.07522 149.139 8.27138C148.791 8.46562 148.425 8.56274 148.04 8.56274C147.656 8.56274 147.288 8.46562 146.938 8.27138C146.59 8.07522 146.318 7.80309 146.122 7.455C145.928 7.10498 145.831 6.73766 145.831 6.35303C145.831 5.96647 145.93 5.59626 146.128 5.2424C146.328 4.88854 146.602 4.61737 146.95 4.4289C147.298 4.23851 147.661 4.14331 148.04 4.14331ZM148.043 4.57602C147.739 4.57602 147.448 4.65199 147.169 4.80392C146.89 4.95585 146.67 5.17413 146.508 5.45876C146.349 5.74338 146.269 6.04147 146.269 6.35303C146.269 6.66266 146.347 6.95786 146.503 7.23864C146.66 7.51943 146.88 7.73867 147.16 7.89637C147.441 8.05407 147.735 8.13292 148.043 8.13292C148.353 8.13292 148.647 8.05407 148.926 7.89637C149.207 7.73867 149.426 7.51943 149.584 7.23864C149.741 6.95786 149.82 6.66266 149.82 6.35303C149.82 6.04147 149.739 5.74338 149.578 5.45876C149.418 5.17413 149.198 4.95585 148.917 4.80392C148.638 4.65199 148.347 4.57602 148.043 4.57602ZM147.042 7.53577V5.19047H147.518C147.964 5.19047 148.214 5.1924 148.268 5.19624C148.426 5.20971 148.548 5.24144 148.635 5.29144C148.723 5.33952 148.796 5.41452 148.854 5.51645C148.913 5.61645 148.943 5.728 148.943 5.85108C148.943 6.02032 148.887 6.16552 148.776 6.28668C148.666 6.40591 148.511 6.47996 148.311 6.5088C148.383 6.53573 148.437 6.56554 148.476 6.59823C148.514 6.629 148.567 6.68862 148.635 6.77708C148.652 6.80016 148.71 6.89536 148.808 7.06267L149.085 7.53577H148.496L148.3 7.15499C148.167 6.89921 148.058 6.73862 147.971 6.67323C147.885 6.60592 147.775 6.57227 147.642 6.57227H147.518V7.53577H147.042ZM147.518 6.20302H147.711C147.986 6.20302 148.157 6.19244 148.222 6.17129C148.289 6.15013 148.342 6.11359 148.381 6.06167C148.419 6.00782 148.438 5.94724 148.438 5.87993C148.438 5.81454 148.419 5.75685 148.381 5.70684C148.344 5.65492 148.291 5.61838 148.222 5.59722C148.153 5.57415 147.983 5.56261 147.711 5.56261H147.518V6.20302Z" fill="black"/>
<defs>
<clipPath id="clip0_865_4041">
<rect width="106.65" height="26.664" fill="white" transform="translate(39.3934 3.5433)"/>
</clipPath>
</defs>
</svg>
