<svg width="151" height="27" viewBox="0 0 151 27" fill="none" xmlns="http://www.w3.org/2000/svg">
<g clip-path="url(#clip0_865_4054)">
<path d="M39.1298 7.41161C37.7897 7.38517 33.4521 7.64965 32.112 11.8991C31.2127 14.7467 32.2883 17.947 34.8803 19.437C38.3275 21.4118 42.427 19.6662 43.8817 16.1573H40.3905C40.1436 16.1573 39.9497 15.9634 39.9497 15.7165V13.5389C39.9497 13.2921 40.1436 13.0981 40.3905 13.0981H47.3113C47.5405 13.0981 47.7344 13.2744 47.7521 13.5036C47.849 15.1787 47.7697 21.5617 41.1663 23.6688C36.2028 25.2557 30.7014 22.1877 28.9117 17.4621C28.3739 16.0427 28.1447 14.4999 28.2681 12.9835C28.7354 7.25292 33.8312 3.35614 39.4031 3.86748C39.6499 3.89393 39.8262 4.12315 39.8086 4.37001C39.7028 5.6131 39.6147 6.52999 39.5618 7.01488C39.5353 7.24411 39.3502 7.41161 39.1209 7.41161H39.1298Z" fill="#1B453B"/>
<path d="M49.4448 4.60806V9.33357C49.4448 9.58043 49.6387 9.77439 49.8856 9.77439H52.2836C52.5305 9.77439 52.7244 9.58043 52.7244 9.33357V7.76428H56.1892C56.1892 7.76428 58.4814 8.09048 58.4814 10.4797C58.4814 11.088 57.6351 12.913 56.3744 12.816H50.0266C49.7798 12.816 49.5858 13.0099 49.5858 13.2568V23.1398C49.5858 23.3867 49.7798 23.5806 50.0266 23.5806H52.5128C52.7597 23.5806 52.9536 23.3867 52.9536 23.1398V16.3778H56.2774L59.3895 23.228C59.46 23.3867 59.6187 23.4837 59.7951 23.4837H62.4311C62.7485 23.4837 62.9689 23.1486 62.8279 22.8577L59.416 15.4344C59.416 15.4344 62.1755 13.8475 62.1755 10.7089C62.1755 9.28068 61.7611 7.74665 60.9853 6.54764C59.3719 4.06146 56.6741 4.1937 54.038 4.15843C52.6539 4.1408 51.2697 4.20252 49.8944 4.17607C49.6475 4.17607 49.4448 4.36121 49.4448 4.60806Z" fill="#1B453B"/>
<path d="M69.1227 4.14963H66.0987C65.8553 4.14963 65.6579 4.34699 65.6579 4.59044V23.0781C65.6579 23.3216 65.8553 23.5189 66.0987 23.5189H69.1227C69.3661 23.5189 69.5635 23.3216 69.5635 23.0781V4.59044C69.5635 4.34699 69.3661 4.14963 69.1227 4.14963Z" fill="#1B453B"/>
<path d="M76.2815 7.97587V9.99479C76.2815 10.2417 76.0875 10.4356 75.8407 10.4356H73.328C73.0812 10.4356 72.8872 10.2417 72.8872 9.99479V4.14962C72.8872 4.14962 77.5422 4.13199 77.983 4.14962C79.7463 4.23778 81.5183 4.50227 83.1405 5.23402C89.0386 7.90534 90.2993 16.4659 85.7061 20.874C85.4239 21.1474 85.133 21.3942 84.8156 21.6234C82.2765 23.5101 79.376 23.4748 76.3873 23.466C76.1404 23.466 75.9465 23.2721 75.9465 23.0252C75.9465 22.0731 75.9465 19.8866 75.9465 19.8866C78.3004 19.8866 80.4956 20.063 82.4529 18.4937C84.3748 16.9508 85.1595 14.2442 84.5159 11.8638C84.1897 10.6736 83.502 9.50108 82.4881 8.77815C81.1569 7.826 79.5347 7.96706 77.983 7.96706H76.2815V7.97587Z" fill="#1B453B"/>
<path d="M93.4908 23.4484H91.1457C90.8989 23.4484 90.7049 23.2544 90.7049 23.0076V13.3185C90.7049 13.0717 90.8989 12.8777 91.1457 12.8777H97.564C97.564 12.8777 99.8209 12.4369 99.8209 10.2504C99.8209 9.5187 99.239 7.69374 97.3435 7.69374H91.1457C90.8989 7.69374 90.7049 7.49978 90.7049 7.25292V4.34356C90.7049 4.09671 90.8989 3.90275 91.1457 3.90275C93.8699 3.90275 96.8587 3.28561 99.4595 4.34356C102.06 5.40151 103.427 7.90533 103.462 10.6119C103.462 12.9482 101.276 16.4483 98.4279 16.4483H93.9052C93.9052 16.4483 93.9405 21.4647 93.9228 23.0164C93.9228 23.2544 93.7201 23.4484 93.482 23.4484H93.4908Z" fill="#1B453B"/>
<path d="M119.102 22.8136L114.024 4.37884C113.971 4.18489 113.795 4.05264 113.601 4.05264H107.95C107.756 4.05264 107.579 4.18489 107.526 4.37884L102.36 22.8136C102.281 23.0957 102.492 23.3779 102.783 23.3779H105.666C105.86 23.3779 106.036 23.2544 106.089 23.0605L107.711 17.6914H113.848L115.47 23.0605C115.523 23.2456 115.699 23.3779 115.893 23.3779H118.688C118.979 23.3779 119.19 23.1046 119.111 22.8224L119.102 22.8136ZM112.543 14.253H108.928C108.628 14.253 108.417 13.9709 108.505 13.68L110.136 8.29326C110.674 6.12446 111.582 8.56656 111.582 8.56656L112.966 13.6976C113.045 13.9797 112.834 14.253 112.543 14.253Z" fill="#1B453B"/>
<path d="M122.214 15.8841H119.613C119.367 15.8841 119.173 15.6901 119.173 15.4432V4.68742C119.173 4.44056 119.367 4.24661 119.613 4.24661H122.355C122.505 4.24661 122.655 4.32595 122.734 4.4582L129.823 16.0692V4.59044C129.823 4.34359 130.017 4.14963 130.264 4.14963H133.534C133.781 4.14963 133.975 4.34359 133.975 4.59044V23.1134C133.975 23.3602 133.781 23.5542 133.534 23.5542H130.431C130.281 23.5542 130.14 23.4748 130.061 23.3514L122.611 11.4671C122.611 11.4671 122.699 14.35 122.664 15.4609C122.664 15.6989 122.461 15.8929 122.223 15.8929L122.214 15.8841Z" fill="#1B453B"/>
<path d="M149.809 4.10553H136.743C136.5 4.10553 136.303 4.30289 136.303 4.54634V7.42044C136.303 7.66389 136.5 7.86125 136.743 7.86125H149.809C150.053 7.86125 150.25 7.66389 150.25 7.42044V4.54634C150.25 4.30289 150.053 4.10553 149.809 4.10553Z" fill="#1B453B"/>
<path d="M139.917 20.1335V16.0251H147.217C147.464 16.0251 147.658 15.8311 147.658 15.5843V12.8865C147.658 12.6397 147.464 12.4457 147.217 12.4457H139.917V10.2945C139.917 10.0477 139.723 9.85373 139.477 9.85373H136.779C136.532 9.85373 136.338 10.0477 136.338 10.2945V23.2721C136.338 23.5189 136.532 23.7129 136.779 23.7129H149.668C149.915 23.7129 150.109 23.5189 150.109 23.2721V20.5743C150.109 20.3274 149.915 20.1335 149.668 20.1335H139.917Z" fill="#1B453B"/>
<path d="M5.42513 3.01233C5.18709 3.01233 4.98431 3.2151 4.98431 3.45314V4.28187C4.98431 4.51991 5.18709 4.72268 5.42513 4.72268H21.0476C21.2856 4.72268 21.4884 4.92546 21.4884 5.16349V22.1083C21.4884 22.3464 21.6911 22.5491 21.9292 22.5491H22.5199C22.7579 22.5491 22.9607 22.3464 22.9607 22.1083V3.40906C22.9607 3.18865 22.7579 3.01233 22.5199 3.01233H5.42513Z" fill="#1B453B"/>
<path d="M9.54238 0.561401C9.30434 0.561401 9.10156 0.764175 9.10156 1.00221V1.83094C9.10156 2.06898 9.30434 2.27175 9.54238 2.27175H23.5779C23.8159 2.27175 24.0187 2.47453 24.0187 2.71257V18.5113C24.0187 18.7493 24.2215 18.9521 24.4595 18.9521H25.0502C25.2882 18.9521 25.491 18.7493 25.491 18.5113V0.958133C25.491 0.737726 25.2882 0.561401 25.0502 0.561401H9.54238Z" fill="#1B453B"/>
<path d="M20.2894 5.56903H0.690813C0.452774 5.56903 0.25 5.76299 0.25 6.00984V26.296C0.25 26.5429 0.452774 26.7368 0.690813 26.7368H20.2894C20.5362 26.7368 20.7302 26.5429 20.7302 26.296V6.00984C20.7302 5.76299 20.5362 5.56903 20.2894 5.56903ZM18.5173 7.22649V17.3475L8.39623 7.22649H18.5173ZM2.13668 24.9471V11.0968L16.084 24.9471H2.13668ZM18.6584 22.1877L3.69716 7.13832H6.04229L18.6496 19.7896V22.1788L18.6584 22.1877Z" fill="#1B453B"/>
</g>
<defs>
<clipPath id="clip0_865_4054">
<rect width="150" height="26.1754" fill="white" transform="translate(0.25 0.561401)"/>
</clipPath>
</defs>
</svg>
