<svg width="151" height="22" viewBox="0 0 151 22" fill="none" xmlns="http://www.w3.org/2000/svg">
<path d="M77.8364 11.6666H72.9575L71.6323 13.8936H68.1105L75.5683 2.26666H78.8075L81.6141 13.8936H78.2942L77.8364 11.6666ZM77.4023 9.19286L76.6148 5.38779L74.368 9.19362L77.4023 9.19286ZM93.8732 8.66429C93.3027 9.44267 92.5022 10.0101 91.4733 10.368L93.471 13.8936H89.9775L88.2486 10.8014H86.586L85.9706 13.8936H82.6271L84.9767 2.14252H89.9958C91.4954 2.14252 92.6591 2.47306 93.4878 3.13263C94.3157 3.79371 94.7292 4.71147 94.7292 5.88589C94.7292 6.95978 94.4444 7.88667 93.8732 8.66429ZM90.8952 5.1037C90.5685 4.86151 90.1123 4.74041 89.5274 4.74041H87.7703L87.0605 8.20351H89.0544C89.7977 8.20351 90.372 8.02833 90.7772 7.67951C91.1824 7.33069 91.3857 6.83487 91.3857 6.19282C91.3857 5.70919 91.222 5.3459 90.8952 5.1037ZM111.012 2.14328L108.696 13.8936H105.502L106.663 7.93999L102.904 12.7801H101.5L99.4513 7.93999L98.2578 13.8936H95.0316L97.382 2.14252H100.084L102.837 8.94152L108.175 2.14252L111.012 2.14328ZM119.417 11.6666H114.539L113.213 13.8936H109.691L117.149 2.26666H120.388L123.196 13.8936H119.875L119.417 11.6666ZM118.983 9.19286L118.196 5.38703L115.949 9.19286H118.983ZM126.557 2.14328H131.66C132.869 2.14328 133.915 2.3413 134.799 2.73887C135.682 3.13567 136.363 3.70613 136.839 4.45099C137.315 5.1951 137.552 6.07097 137.552 7.07859C137.552 8.44342 137.241 9.64069 136.621 10.6704C135.999 11.7001 135.136 12.4945 134.027 13.0543C132.919 13.6133 131.649 13.8936 130.216 13.8936H124.207L126.557 2.14328ZM130.319 11.1723C131.123 11.1723 131.818 11.0017 132.404 10.6613C132.977 10.3346 133.441 9.84498 133.736 9.25455C134.037 8.65667 134.188 7.97883 134.188 7.21873C134.188 6.42664 133.942 5.81506 133.451 5.38474C132.96 4.95519 132.239 4.74041 131.29 4.74041H129.347L128.074 11.1723H130.318H130.319ZM146.277 11.6666H141.398L140.073 13.8936H136.551L144.009 2.26666H147.248L150.055 13.8936H146.735L146.277 11.6666ZM145.843 9.19286L145.056 5.38703L142.809 9.19286H145.843Z" fill="#391954"/>
<path d="M35.4088 2.14326V13.8936H32.069V9.31622H27.6166V13.8936H24.2761V2.1425H27.6158V6.5957H32.0683V2.1425H35.408L35.4088 2.14326ZM40.2161 13.3033C39.2616 12.802 38.4633 12.0479 37.9084 11.1236C37.3501 10.1959 37.0706 9.15095 37.0706 7.98795C37.0706 6.82571 37.3501 5.78077 37.9084 4.85311C38.4674 3.9247 39.2367 3.19887 40.2161 2.67335C41.1956 2.14783 42.2992 1.88507 43.5277 1.88507C44.7561 1.88507 45.8597 2.14783 46.8392 2.67335C47.7935 3.17494 48.5918 3.92893 49.1469 4.85311C49.7052 5.78077 49.9847 6.82571 49.9847 7.98795C49.9847 9.15095 49.7052 10.1959 49.1469 11.1236C48.5919 12.0479 47.7936 12.8019 46.8392 13.3033C45.8597 13.8288 44.7561 14.0908 43.5277 14.0908C42.2992 14.0908 41.1956 13.8288 40.2161 13.3033ZM45.121 10.9225C45.5993 10.6405 45.9901 10.2313 46.2497 9.74044C46.5262 9.23168 46.6648 8.64752 46.6648 7.98871C46.6648 7.32839 46.5262 6.74498 46.2497 6.23622C45.9901 5.74558 45.5997 5.33644 45.1217 5.05418C44.6383 4.77293 44.0876 4.62815 43.5284 4.63529C42.942 4.63529 42.4104 4.77467 41.9351 5.05418C41.4565 5.33606 41.0654 5.74526 40.8056 6.23622C40.5291 6.74498 40.3913 7.32839 40.3913 7.98795C40.3913 8.64752 40.5291 9.23168 40.8056 9.73968C41.0652 10.231 41.4563 10.6405 41.9351 10.9225C42.4104 11.202 42.9412 11.3414 43.5284 11.3414C44.1149 11.3414 44.645 11.202 45.121 10.9225ZM53.0555 13.739C52.1698 13.5044 51.4508 13.1914 50.8971 12.7999L51.9763 10.352C52.4965 10.6986 53.099 10.9781 53.7859 11.1906C54.4714 11.4031 55.147 11.5089 55.8103 11.5089C57.0723 11.5089 57.703 11.1906 57.703 10.5531C57.703 10.218 57.5232 9.96969 57.1637 9.80671C56.8035 9.64524 56.2254 9.47464 55.4288 9.29642C54.5544 9.10601 53.824 8.9019 53.2376 8.68407C52.6537 8.46801 52.134 8.10745 51.7273 7.63608C51.3069 7.1555 51.0967 6.50736 51.0967 5.6909C51.0967 4.97573 51.2901 4.33064 51.6778 3.75485C52.0647 3.17907 52.6427 2.72362 53.412 2.38774C54.1812 2.05263 55.1241 1.88507 56.2422 1.88507C57.0061 1.88507 57.7578 1.9719 58.4996 2.14478C59.2407 2.31843 59.8934 2.57282 60.4585 2.90793L59.4456 5.37254C58.3389 4.76857 57.2658 4.46697 56.2254 4.46697C55.5727 4.46697 55.0967 4.56522 54.7981 4.7602C54.4996 4.95593 54.3503 5.21031 54.3503 5.52334C54.3503 5.83637 54.527 6.07171 54.8812 6.22784C55.2353 6.38397 55.805 6.5462 56.591 6.71376C57.476 6.90416 58.2094 7.10752 58.7898 7.3261C59.3709 7.54394 59.8897 7.90089 60.3009 8.36572C60.7266 8.84021 60.9399 9.48606 60.9399 10.3018C60.9399 11.0063 60.7456 11.643 60.3587 12.2134C59.9711 12.7831 59.39 13.2386 58.6162 13.5798C57.8408 13.9202 56.9002 14.0908 55.7943 14.0908C54.853 14.0908 53.9405 13.9735 53.0555 13.739ZM64.7236 4.74039H61.1364V2.14326H71.5272V4.74039H68.0641V13.8936H64.7244V4.74039H64.7236Z" fill="#2E0547"/>
<path d="M35.4088 2.14326V13.8936H32.069V9.31622H27.6166V13.8936H24.2761V2.1425H27.6158V6.5957H32.0683V2.1425H35.408L35.4088 2.14326ZM40.2161 13.3033C39.2616 12.802 38.4633 12.0479 37.9084 11.1236C37.3501 10.1959 37.0706 9.15095 37.0706 7.98795C37.0706 6.82571 37.3501 5.78077 37.9084 4.85311C38.4674 3.9247 39.2367 3.19887 40.2161 2.67335C41.1956 2.14783 42.2992 1.88507 43.5277 1.88507C44.7561 1.88507 45.8597 2.14783 46.8392 2.67335C47.7935 3.17494 48.5918 3.92893 49.1469 4.85311C49.7052 5.78077 49.9847 6.82571 49.9847 7.98795C49.9847 9.15095 49.7052 10.1959 49.1469 11.1236C48.5919 12.0479 47.7936 12.8019 46.8392 13.3033C45.8597 13.8288 44.7561 14.0908 43.5277 14.0908C42.2992 14.0908 41.1956 13.8288 40.2161 13.3033ZM45.121 10.9225C45.5993 10.6405 45.9901 10.2313 46.2497 9.74044C46.5262 9.23168 46.6648 8.64752 46.6648 7.98871C46.6648 7.32839 46.5262 6.74498 46.2497 6.23622C45.9901 5.74558 45.5997 5.33644 45.1217 5.05418C44.6383 4.77293 44.0876 4.62815 43.5284 4.63529C42.942 4.63529 42.4104 4.77467 41.9351 5.05418C41.4565 5.33606 41.0654 5.74526 40.8056 6.23622C40.5291 6.74498 40.3913 7.32839 40.3913 7.98795C40.3913 8.64752 40.5291 9.23168 40.8056 9.73968C41.0652 10.231 41.4563 10.6405 41.9351 10.9225C42.4104 11.202 42.9412 11.3414 43.5284 11.3414C44.1149 11.3414 44.645 11.202 45.121 10.9225ZM53.0555 13.739C52.1698 13.5044 51.4508 13.1914 50.8971 12.7999L51.9763 10.352C52.4965 10.6986 53.099 10.9781 53.7859 11.1906C54.4714 11.4031 55.147 11.5089 55.8103 11.5089C57.0723 11.5089 57.703 11.1906 57.703 10.5531C57.703 10.218 57.5232 9.96969 57.1637 9.80671C56.8035 9.64524 56.2254 9.47464 55.4288 9.29642C54.5544 9.10601 53.824 8.9019 53.2376 8.68407C52.6537 8.46801 52.134 8.10745 51.7273 7.63608C51.3069 7.1555 51.0967 6.50736 51.0967 5.6909C51.0967 4.97573 51.2901 4.33064 51.6778 3.75485C52.0647 3.17907 52.6427 2.72362 53.412 2.38774C54.1812 2.05263 55.1241 1.88507 56.2422 1.88507C57.0061 1.88507 57.7578 1.9719 58.4996 2.14478C59.2407 2.31843 59.8934 2.57282 60.4585 2.90793L59.4456 5.37254C58.3389 4.76857 57.2658 4.46697 56.2254 4.46697C55.5727 4.46697 55.0967 4.56522 54.7981 4.7602C54.4996 4.95593 54.3503 5.21031 54.3503 5.52334C54.3503 5.83637 54.527 6.07171 54.8812 6.22784C55.2353 6.38397 55.805 6.5462 56.591 6.71376C57.476 6.90416 58.2094 7.10752 58.7898 7.3261C59.3709 7.54394 59.8897 7.90089 60.3009 8.36572C60.7266 8.84021 60.9399 9.48606 60.9399 10.3018C60.9399 11.0063 60.7456 11.643 60.3587 12.2134C59.9711 12.7831 59.39 13.2386 58.6162 13.5798C57.8408 13.9202 56.9002 14.0908 55.7943 14.0908C54.853 14.0908 53.9405 13.9735 53.0555 13.739ZM64.7236 4.74039H61.1364V2.14326H71.5272V4.74039H68.0641V13.8936H64.7244V4.74039H64.7236Z" fill="#1C1126"/>
<path d="M11.1709 13.1152L7.44584 9.39088C7.29005 9.23538 7.18863 9.03374 7.15666 8.81596C7.12468 8.59818 7.16387 8.3759 7.26838 8.18218L10.9942 1.27427C11.0817 1.11181 11.2116 0.976064 11.37 0.88145C11.5285 0.786835 11.7096 0.736877 11.8941 0.736877C12.0786 0.736877 12.2597 0.786835 12.4181 0.88145C12.5766 0.976064 12.7064 1.11181 12.7939 1.27427L16.519 8.18218C16.6235 8.37574 16.6627 8.59782 16.6308 8.81543C16.599 9.03304 16.4978 9.23458 16.3423 9.39012L12.6165 13.1152C12.5216 13.2101 12.4089 13.2854 12.2849 13.3368C12.1609 13.3882 12.0279 13.4146 11.8937 13.4146C11.7595 13.4146 11.6266 13.3882 11.5025 13.3368C11.3785 13.2854 11.2658 13.2101 11.1709 13.1152Z" fill="#1C1126"/>
<path d="M22.6485 9.78006L17.4314 4.56294C17.1562 4.28819 16.7981 4.11188 16.4126 4.06135C16.027 4.01081 15.6356 4.08887 15.2989 4.28343L17.3918 8.16465C17.6264 8.6003 17.5479 9.13877 17.1976 9.48912L15.9181 10.7679L18.7894 13.6392C18.9536 13.8034 19.1486 13.9337 19.3632 14.0226C19.5777 14.1115 19.8077 14.1572 20.04 14.1572C20.2722 14.1572 20.5022 14.1115 20.7168 14.0226C20.9314 13.9337 21.1263 13.8034 21.2906 13.6392L22.6485 12.2812C22.8128 12.117 22.9431 11.922 23.0319 11.7075C23.1208 11.4929 23.1666 11.2629 23.1666 11.0306C23.1666 10.7984 23.1208 10.5684 23.0319 10.3538C22.9431 10.1392 22.8128 9.94428 22.6485 9.78006ZM6.68493 9.48912C6.51426 9.31852 6.40324 9.09737 6.36839 8.85859C6.33353 8.61981 6.3767 8.37616 6.49147 8.16389L8.58441 4.28343C8.24765 4.08868 7.85603 4.01052 7.47031 4.06106C7.08459 4.1116 6.72633 4.28801 6.45111 4.56294L1.23399 9.78006C1.06975 9.94428 0.939469 10.1392 0.850581 10.3538C0.761693 10.5684 0.715942 10.7984 0.715942 11.0306C0.715942 11.2629 0.761693 11.4929 0.850581 11.7075C0.939469 11.922 1.06975 12.117 1.23399 12.2812L2.59197 13.6392C2.75619 13.8034 2.95116 13.9337 3.16573 14.0226C3.38031 14.1115 3.61029 14.1572 3.84255 14.1572C4.07481 14.1572 4.30479 14.1115 4.51937 14.0226C4.73395 13.9337 4.92891 13.8034 5.09314 13.6392L7.96445 10.7679L6.68493 9.48835V9.48912Z" fill="#2E0547"/>
<path d="M0.988774 20.8221C0.678032 20.7276 0.431266 20.6012 0.25 20.4451L0.527992 19.8205C0.70545 19.9607 0.923274 20.0749 1.1807 20.1633C1.43043 20.2506 1.69299 20.2957 1.95756 20.2966C2.27896 20.2966 2.51887 20.2448 2.67729 20.1419C2.83647 20.0384 2.91568 19.9028 2.91568 19.7337C2.91568 19.6096 2.8715 19.5083 2.78239 19.4275C2.69328 19.3468 2.58209 19.2844 2.44576 19.2387C2.30943 19.1937 2.12435 19.1419 1.88901 19.0841C1.61718 19.0231 1.34955 18.9448 1.08778 18.8495C0.884946 18.7717 0.704434 18.6451 0.562265 18.4808C0.416034 18.3141 0.342918 18.0886 0.342918 17.8038C0.342918 17.5646 0.407656 17.3476 0.537893 17.1518C0.667369 16.9553 0.863106 16.7999 1.1251 16.6849C1.3871 16.5692 1.70775 16.5113 2.08703 16.5113C2.35055 16.5113 2.61027 16.544 2.86617 16.6103C3.12208 16.6766 3.34219 16.771 3.52802 16.8951L3.2744 17.5197C3.08808 17.41 2.88842 17.3248 2.68034 17.2661C2.48543 17.2099 2.28376 17.1807 2.08094 17.1792C1.76334 17.1792 1.52724 17.2325 1.37263 17.3399C1.30077 17.3853 1.24175 17.4483 1.20121 17.523C1.16068 17.5977 1.13998 17.6815 1.1411 17.7664C1.1411 17.8906 1.18527 17.9919 1.27362 18.0696C1.36273 18.148 1.47469 18.2097 1.61102 18.2554C1.74735 18.3011 1.93242 18.3521 2.167 18.41C2.48917 18.4847 2.75345 18.5616 2.95909 18.6423C3.16473 18.7223 3.34143 18.8449 3.48766 19.0102C3.63389 19.1754 3.707 19.3978 3.707 19.6781C3.707 19.9173 3.64227 20.1336 3.51203 20.327C3.38255 20.5212 3.18605 20.6758 2.92177 20.7916C2.65825 20.9066 2.33608 20.9645 1.9568 20.9645C1.62321 20.9645 1.30028 20.9173 0.989535 20.8221H0.988774ZM9.43136 16.7588C9.70935 16.8822 9.9226 17.0597 10.0711 17.2904C10.2196 17.5212 10.2943 17.7961 10.2943 18.113C10.2943 18.4268 10.2196 18.6994 10.0711 18.9325C9.9226 19.1655 9.70935 19.3438 9.43136 19.4679C9.1526 19.5913 8.82587 19.653 8.45115 19.653H7.47399V20.902H6.66971V16.5737H8.45115C8.82587 16.5737 9.1526 16.6347 9.43136 16.7588ZM9.21125 18.7505C9.39328 18.6019 9.48391 18.3895 9.48391 18.1137C9.48391 17.838 9.39251 17.6248 9.21125 17.4763C9.02998 17.3278 8.76418 17.2539 8.41383 17.2539H7.47399V18.9729H8.41383C8.76418 18.9729 9.02998 18.899 9.21125 18.7505ZM16.5091 20.228V20.9028H13.2631V16.5737H16.4238V17.2478H14.0674V18.3727H16.1572V19.0353H14.0674V20.228H16.5091ZM22.8176 20.228V20.9028H19.5693V16.5737H22.73V17.2478H20.3736V18.3727H22.4642V19.0353H20.3736V20.228H22.8169H22.8176ZM25.8786 16.5737H27.7712C28.2328 16.5737 28.6433 16.6629 29.002 16.8426C29.36 17.0216 29.6387 17.2752 29.8367 17.6035C30.0348 17.931 30.1338 18.3095 30.1338 18.7383C30.1338 19.1671 30.0348 19.5456 29.8367 19.8731C29.6376 20.2018 29.3477 20.466 29.002 20.634C28.6433 20.8129 28.2328 20.9028 27.7712 20.9028H25.8786V16.5737ZM27.7339 20.2219C28.0515 20.2219 28.331 20.161 28.5717 20.0391C28.8131 19.918 28.9982 19.7451 29.1284 19.5205C29.2587 19.2958 29.3234 19.0345 29.3234 18.7375C29.3234 18.4405 29.2587 18.18 29.1284 17.9553C28.9988 17.7308 28.8052 17.55 28.5725 17.4359C28.3115 17.3098 28.0244 17.2472 27.7347 17.2531H26.6829V20.2227H27.7339V20.2219Z" fill="#1C1126"/>
<path d="M44.8994 20.822C44.5886 20.7268 44.3418 20.6012 44.1606 20.4443L44.4386 19.8197C44.616 19.9599 44.8339 20.0741 45.0913 20.1625C45.341 20.2498 45.6036 20.2949 45.8681 20.2958C46.1895 20.2958 46.4295 20.2447 46.5879 20.1411C46.7463 20.0383 46.8263 19.9028 46.8263 19.7329C46.8263 19.6095 46.7813 19.5075 46.693 19.4275C46.6046 19.3475 46.4927 19.2843 46.3563 19.2386C46.22 19.1929 46.0342 19.1419 45.7996 19.084C45.5277 19.0228 45.2601 18.9442 44.9984 18.8487C44.7956 18.7711 44.6151 18.6448 44.4728 18.4808C44.3266 18.3133 44.2535 18.0878 44.2535 17.803C44.2535 17.5646 44.3182 17.3475 44.4477 17.151C44.578 16.9553 44.7737 16.7999 45.0357 16.6841C45.2977 16.5691 45.6183 16.5113 45.9976 16.5113C46.2611 16.5113 46.5209 16.544 46.7768 16.6103C47.0319 16.6758 47.2528 16.7702 47.4386 16.8944L47.185 17.5189C46.9987 17.4092 46.799 17.324 46.5909 17.2653C46.396 17.2094 46.1943 17.1804 45.9915 17.1792C45.6739 17.1792 45.4378 17.2325 45.2832 17.3391C45.2111 17.3845 45.1519 17.4476 45.1112 17.5224C45.0705 17.5972 45.0497 17.6812 45.0509 17.7664C45.0509 17.8906 45.0959 17.9911 45.1842 18.0695C45.2726 18.148 45.3853 18.2097 45.5216 18.2554C45.6579 18.3011 45.8422 18.3521 46.0776 18.41C46.399 18.4839 46.664 18.5608 46.8697 18.6415C47.0753 18.7222 47.252 18.8449 47.3982 19.0094C47.5445 19.1746 47.6176 19.397 47.6176 19.6773C47.6176 19.9165 47.5529 20.1328 47.4226 20.327C47.2931 20.5212 47.0959 20.675 46.8324 20.7916C46.5688 20.9058 46.2467 20.9637 45.8674 20.9637C45.5338 20.9637 45.2101 20.9165 44.8994 20.822ZM53.8271 20.228V20.902H50.5803V16.5729H53.741V17.247H51.3838V18.3727H53.4745V19.0345H51.3838V20.228H53.8271ZM57.6893 20.6766C57.3366 20.4846 57.0602 20.2196 56.8606 19.8814C56.6611 19.5433 56.5606 19.1617 56.5606 18.7375C56.5606 18.3133 56.6619 17.9317 56.8637 17.5935C57.0631 17.2575 57.3508 16.9825 57.6954 16.7984C58.0595 16.6039 58.467 16.5051 58.8797 16.5113C59.2339 16.5113 59.5575 16.5729 59.8508 16.6963C60.1432 16.8205 60.3908 16.9995 60.5933 17.2348L60.0739 17.723C59.9289 17.5602 59.7505 17.4306 59.5508 17.3431C59.3512 17.2556 59.135 17.2121 58.917 17.2158C58.62 17.2158 58.3534 17.2813 58.1196 17.4107C57.889 17.5361 57.698 17.7234 57.5682 17.9515C57.4338 18.1913 57.3655 18.4626 57.3702 18.7375C57.3702 19.0307 57.4364 19.2919 57.5682 19.5227C57.7007 19.7542 57.8843 19.934 58.1196 20.0642C58.3542 20.1937 58.62 20.2584 58.917 20.2584C59.374 20.2584 59.7601 20.0878 60.0739 19.7459L60.5933 20.2409C60.3905 20.4763 60.1351 20.6605 59.8477 20.7786C59.5385 20.9051 59.2069 20.968 58.8728 20.9637C58.4604 20.9698 58.0531 20.871 57.6893 20.6766ZM63.9628 20.4603C63.6292 20.1236 63.4624 19.6423 63.4624 19.0162V16.5729H64.2659V18.985C64.2659 19.8342 64.633 20.2584 65.3672 20.2584C66.0968 20.2584 66.4616 19.8342 66.4616 18.985V16.5729H67.2537V19.0162C67.2537 19.6423 67.0877 20.1236 66.7556 20.4603C66.4236 20.7961 65.959 20.9637 65.3611 20.9637C64.7632 20.9637 64.2971 20.7961 63.9628 20.4603ZM73.3764 20.902L72.4922 19.6347C72.4364 19.6392 72.3805 19.641 72.3246 19.64H71.3475V20.902H70.5447V16.5729H72.3254C72.7009 16.5729 73.0276 16.6346 73.3063 16.7588C73.5843 16.8822 73.7976 17.0596 73.9461 17.2904C74.0946 17.5212 74.1685 17.7954 74.1685 18.1129C74.1685 18.4389 74.0893 18.7192 73.9301 18.9538C73.7625 19.1957 73.5237 19.3793 73.2469 19.4793L74.2431 20.902H73.3772H73.3764ZM73.0855 17.4762C72.9042 17.3277 72.6384 17.2531 72.2881 17.2531H71.3475V18.9789H72.2881C72.6384 18.9789 72.9042 18.9035 73.0855 18.7527C73.2667 18.6019 73.3574 18.3894 73.3574 18.1129C73.3574 17.8365 73.2667 17.624 73.0855 17.4762ZM77.2287 16.5729H78.033V20.902H77.2287V16.5729ZM82.2447 17.2538H80.8099V16.5729H84.4832V17.2531H83.049V20.902H82.2447V17.2538ZM89.0597 19.3742V20.902H88.2562V19.3864L86.5555 16.5729H87.4146L88.6827 18.6826L89.963 16.5729H90.7551L89.0597 19.3742Z" fill="#1C1126"/>
<path d="M101.76 20.9462C101.449 20.851 101.202 20.7253 101.021 20.5685L101.299 19.9439C101.476 20.0841 101.694 20.1983 101.952 20.2874C102.201 20.3745 102.464 20.4193 102.729 20.4199C103.05 20.4199 103.29 20.3689 103.448 20.2653C103.607 20.1625 103.687 20.0269 103.687 19.8579C103.687 19.7337 103.642 19.6317 103.553 19.5517C103.464 19.4717 103.353 19.4085 103.217 19.3628C103.08 19.3171 102.895 19.2661 102.661 19.2082C102.389 19.1471 102.121 19.0684 101.859 18.9729C101.656 18.8953 101.476 18.769 101.333 18.605C101.187 18.4374 101.114 18.212 101.114 17.9271C101.114 17.6888 101.179 17.4717 101.309 17.2752C101.438 17.0795 101.634 16.9241 101.896 16.8083C102.158 16.6933 102.479 16.6354 102.858 16.6354C103.122 16.6354 103.381 16.6682 103.637 16.7344C103.893 16.7999 104.113 16.8944 104.299 17.0185L104.045 17.6431C103.859 17.5334 103.659 17.4482 103.451 17.3894C103.256 17.3336 103.055 17.3046 102.852 17.3034C102.534 17.3034 102.298 17.3567 102.144 17.4641C102.072 17.5094 102.013 17.5725 101.972 17.6471C101.932 17.7218 101.911 17.8056 101.912 17.8906C101.912 18.0147 101.956 18.1153 102.045 18.1937C102.134 18.2722 102.246 18.3339 102.382 18.3796C102.518 18.4253 102.703 18.4763 102.938 18.5342C103.26 18.608 103.524 18.685 103.73 18.7657C103.936 18.8464 104.112 18.969 104.259 19.1336C104.405 19.2988 104.478 19.522 104.478 19.8015C104.478 20.0407 104.413 20.257 104.283 20.4512C104.154 20.6454 103.957 20.7992 103.693 20.9158C103.429 21.03 103.107 21.0879 102.728 21.0879C102.394 21.0879 102.071 21.0407 101.76 20.9462ZM108.257 17.3773H106.822V16.6971H110.496V17.3773H109.061V21.0262H108.257V17.3773ZM115.858 20.0247H113.694L113.267 21.0262H112.438L114.386 16.6971H115.178L117.132 21.0262H116.291L115.858 20.0247ZM115.592 19.394L114.776 17.5014L113.966 19.394H115.592H115.592ZM123.484 19.1678C123.624 19.3514 123.694 19.5791 123.694 19.851C123.694 20.2265 123.549 20.5159 123.26 20.72C122.972 20.9241 122.552 21.0262 121.999 21.0262H119.847V16.6979H121.876C122.386 16.6979 122.781 16.7977 123.056 16.998C123.333 17.1975 123.471 17.4732 123.471 17.8236C123.471 18.0376 123.421 18.2272 123.322 18.3925C123.223 18.5578 123.087 18.6857 122.915 18.7764C123.154 18.854 123.343 18.9843 123.484 19.1678ZM120.65 17.3278V18.522H121.789C122.069 18.522 122.284 18.4709 122.435 18.3697C122.508 18.3222 122.567 18.2565 122.607 18.179C122.646 18.1014 122.665 18.0149 122.661 17.9279C122.661 17.7299 122.586 17.5806 122.435 17.4793C122.285 17.3788 122.069 17.3278 121.789 17.3278H120.651H120.65ZM122.883 19.771C122.883 19.3544 122.572 19.1465 121.95 19.1465H120.651V20.3956H121.95C122.572 20.3956 122.883 20.1876 122.883 19.771ZM126.717 16.6979H127.522V21.0262H126.717V16.6979ZM130.855 16.6979H131.659V20.3461H133.922V21.0262H130.855V16.6979ZM136.724 16.6979H137.528V21.0262H136.724V16.6979ZM141.74 17.3773H140.305V16.6971H143.979V17.3773H142.544V21.0262H141.74V17.3773ZM148.555 19.4984V21.0262H147.751V19.5113L146.05 16.6971H146.91L148.178 18.8068L149.458 16.6971H150.25L148.555 19.4984Z" fill="#1C1126"/>
<path d="M37.0082 19.7954C37.4288 19.7954 37.7698 19.4544 37.7698 19.0338C37.7698 18.6131 37.4288 18.2722 37.0082 18.2722C36.5876 18.2722 36.2466 18.6131 36.2466 19.0338C36.2466 19.4544 36.5876 19.7954 37.0082 19.7954Z" fill="#2E0547"/>
<path d="M95.6531 19.7954C96.0737 19.7954 96.4147 19.4544 96.4147 19.0338C96.4147 18.6131 96.0737 18.2722 95.6531 18.2722C95.2325 18.2722 94.8915 18.6131 94.8915 19.0338C94.8915 19.4544 95.2325 19.7954 95.6531 19.7954Z" fill="#2E0547"/>
</svg>
