<svg width="151" height="31" viewBox="0 0 151 31" fill="none" xmlns="http://www.w3.org/2000/svg">
<g clip-path="url(#clip0_865_4042)">
<path fill-rule="evenodd" clip-rule="evenodd" d="M63.5814 18.1038C63.8972 17.2927 64.0558 16.3514 64.0558 15.2815C64.0558 14.2111 63.8947 13.27 63.5721 12.4587C63.2497 11.6468 62.8076 10.9643 62.2465 10.4111C61.6852 9.85808 61.0283 9.44342 60.2761 9.16675C59.5233 8.88981 58.7233 8.75134 57.8756 8.75134C57.0515 8.75134 56.266 8.88981 55.5199 9.16675C54.7732 9.44342 54.1162 9.85808 53.5493 10.4111C52.982 10.9643 52.5308 11.6468 52.1967 12.4587C51.8622 13.27 51.6949 14.2111 51.6949 15.2815C51.6949 16.3514 51.8565 17.2927 52.1788 18.1038C52.5015 18.9157 52.9429 19.5951 53.5044 20.142C54.0656 20.6895 54.7226 21.1011 55.4751 21.3776C56.2276 21.6545 57.0274 21.7928 57.8756 21.7928C58.7471 21.7928 59.5624 21.6545 60.3207 21.3776C61.0789 21.1011 61.733 20.6895 62.2823 20.142C62.8314 19.5951 63.2644 18.9157 63.5814 18.1038ZM54.803 16.9406C54.6537 16.4475 54.5793 15.8944 54.5793 15.2814C54.5793 14.6802 54.6537 14.1301 54.803 13.6307C54.9523 13.1319 55.1675 12.7051 55.4483 12.3505C55.7284 11.9956 56.0721 11.7189 56.4783 11.5204C56.8841 11.3222 57.3498 11.2231 57.8756 11.2231C58.3888 11.2231 58.8518 11.3192 59.2641 11.5116C59.6757 11.7036 60.0224 11.9775 60.3026 12.3321C60.5832 12.6872 60.7986 13.1137 60.9479 13.6126C61.0972 14.1118 61.1719 14.6679 61.1719 15.2814C61.1719 15.8944 61.0972 16.4475 60.9479 16.9406C60.7986 17.4339 60.5832 17.8577 60.3026 18.2123C60.0224 18.5674 59.6757 18.8405 59.2641 19.0328C58.8518 19.2256 58.3888 19.3221 57.8756 19.3221C57.3498 19.3221 56.8841 19.2256 56.4783 19.0328C56.0721 18.8405 55.7284 18.5674 55.4483 18.2123C55.1675 17.8577 54.9523 17.4339 54.803 16.9406Z" fill="#1D1E20"/>
<path d="M71.0835 19.3939C71.4775 19.3939 71.8029 19.3611 72.0597 19.2945C72.3165 19.2287 72.5226 19.1387 72.6776 19.0237C72.8327 18.9099 72.9405 18.7747 73.0003 18.6183C73.0602 18.4622 73.09 18.2877 73.09 18.0952C73.09 17.6866 72.8986 17.3464 72.5166 17.0762C72.1343 16.8054 71.4775 16.5141 70.5462 16.2008C70.1399 16.0571 69.7338 15.8913 69.3278 15.7052C68.9218 15.5191 68.5575 15.2845 68.2352 15.0018C67.913 14.7193 67.65 14.3765 67.4471 13.9733C67.2439 13.5707 67.1425 13.0809 67.1425 12.5036C67.1425 11.9262 67.25 11.4061 67.4649 10.9434C67.6801 10.4803 67.9844 10.0868 68.3786 9.76173C68.7727 9.43687 69.2502 9.18793 69.8115 9.01315C70.3728 8.83912 71.0056 8.75134 71.7105 8.75134C72.5464 8.75134 73.269 8.84214 73.8783 9.02223C74.487 9.20256 74.9887 9.40131 75.3827 9.61771L74.5769 11.8362C74.2303 11.6558 73.845 11.4964 73.4214 11.358C72.9973 11.22 72.4868 11.1504 71.8899 11.1504C71.2208 11.1504 70.7401 11.2443 70.4475 11.4304C70.155 11.6168 70.0084 11.9026 70.0084 12.287C70.0084 12.5157 70.0625 12.7084 70.17 12.8642C70.2772 13.0206 70.4298 13.1619 70.6266 13.2882C70.8237 13.4143 71.0507 13.5288 71.3077 13.6307C71.5639 13.7332 71.8478 13.8381 72.1586 13.9462C72.8031 14.1872 73.3646 14.4245 73.8424 14.659C74.3199 14.8936 74.7172 15.1673 75.0338 15.4797C75.35 15.7923 75.5859 16.1592 75.7415 16.5801C75.8963 17.0013 75.9741 17.5121 75.9741 18.1129C75.9741 19.2794 75.5678 20.1843 74.7558 20.8275C73.9436 21.4711 72.7195 21.793 71.0835 21.793C70.5341 21.793 70.0384 21.7597 69.5966 21.6936C69.1548 21.6271 68.7637 21.546 68.4232 21.45C68.0831 21.3539 67.7903 21.2518 67.5453 21.1435C67.3006 21.0351 67.0947 20.9332 66.9273 20.8365L67.7159 18.6002C68.0856 18.805 68.5425 18.9881 69.0863 19.15C69.6293 19.3127 70.2955 19.3939 71.0835 19.3939Z" fill="#1D1E20"/>
<path d="M88.2863 9.04034V11.4395H84.5422V21.54H81.7477V11.4395H78.0033V9.04034H88.2863Z" fill="#1D1E20"/>
<path d="M91.3902 21.5402H94.185V9.04034H91.3902V21.5402Z" fill="#1D1E20"/>
<path d="M106.694 21.5397C105.894 20.1089 105.029 18.6962 104.097 17.3009C103.164 15.9059 102.173 14.5893 101.123 13.3507V21.5397H98.3639V9.04004H100.639C101.033 9.43652 101.469 9.92356 101.947 10.5009C102.425 11.0783 102.91 11.6946 103.406 12.3499C103.902 13.0052 104.395 13.6846 104.885 14.3878C105.373 15.0912 105.834 15.7674 106.264 16.4169V9.04004H109.041V21.5397H106.694Z" fill="#1D1E20"/>
<path d="M119.274 11.2051C117.973 11.2051 117.032 11.5689 116.453 12.2962C115.874 13.0239 115.584 14.0187 115.584 15.2818C115.584 15.8944 115.656 16.451 115.799 16.9499C115.942 17.4486 116.158 17.8783 116.443 18.2392C116.731 18.6002 117.088 18.8799 117.519 19.0784C117.949 19.2766 118.45 19.3757 119.023 19.3757C119.333 19.3757 119.6 19.3697 119.821 19.3579C120.041 19.3459 120.235 19.3221 120.403 19.2857V14.939H123.198V21.1256C122.863 21.2581 122.326 21.399 121.585 21.5491C120.844 21.6992 119.931 21.7748 118.844 21.7748C117.913 21.7748 117.068 21.6303 116.31 21.3421C115.551 21.053 114.904 20.6326 114.366 20.0792C113.829 19.5263 113.414 18.8465 113.121 18.041C112.828 17.2359 112.682 16.3158 112.682 15.2818C112.682 14.2353 112.843 13.3094 113.166 12.5036C113.488 11.6983 113.929 11.0152 114.491 10.4563C115.053 9.89717 115.712 9.47344 116.471 9.1849C117.229 8.89612 118.038 8.75134 118.899 8.75134C119.483 8.75134 120.012 8.79094 120.483 8.86887C120.955 8.94732 121.361 9.03736 121.702 9.13976C122.042 9.24166 122.323 9.34683 122.543 9.45528C122.765 9.56349 122.922 9.64797 123.019 9.70801L122.213 11.9624C121.83 11.758 121.391 11.5809 120.896 11.4304C120.4 11.2801 119.86 11.2051 119.274 11.2051Z" fill="#1D1E20"/>
<path d="M127.108 21.54V9.04034H135.492V11.4032H129.903V13.8559H134.866V16.165H129.903V19.1772H135.904V21.54H127.108Z" fill="#1D1E20"/>
<path fill-rule="evenodd" clip-rule="evenodd" d="M147.195 9.89662C146.204 9.229 144.777 8.89557 142.914 8.89557C142.4 8.89557 141.818 8.91953 141.167 8.96796C140.516 9.01562 139.887 9.10037 139.278 9.21992V21.5397H142.071V16.9758H143.451C143.691 17.2649 143.931 17.5864 144.17 17.9415C144.41 18.2962 144.654 18.6715 144.899 19.0685C145.145 19.4655 145.384 19.8746 145.618 20.2953C145.851 20.7162 146.083 21.1308 146.31 21.5397H149.434C149.219 21.083 148.987 20.6172 148.736 20.1416C148.486 19.667 148.225 19.2102 147.957 18.7713C147.688 18.3326 147.416 17.9115 147.142 17.5086C146.867 17.1057 146.604 16.7481 146.353 16.4351C147.106 16.1229 147.683 15.6926 148.082 15.1457C148.483 14.5987 148.683 13.8857 148.683 13.0082C148.683 11.6011 148.186 10.564 147.195 9.89662ZM142.529 11.3126C142.69 11.3007 142.871 11.2947 143.074 11.2947C143.97 11.2947 144.648 11.4241 145.108 11.682C145.568 11.9413 145.798 12.3766 145.798 12.9901C145.798 13.6277 145.571 14.0789 145.117 14.343C144.663 14.6078 143.911 14.7394 142.86 14.7394H142.071V11.3487C142.215 11.337 142.367 11.3249 142.529 11.3126Z" fill="#1D1E20"/>
<path d="M45.1506 9.14197H47.962V21.5976H45.1506V16.3134H40.429V21.5976H37.6175V9.14197H40.429V13.9047H45.1506V9.14197Z" fill="#1D1E20"/>
<path fill-rule="evenodd" clip-rule="evenodd" d="M18.4311 0.423645V9.33121L25.6276 13.54V4.09183L18.4311 0.423645ZM0.25025 0.424083V14.4021H23.6551L16.5341 10.4882L7.25765 10.4836V4.18587L0.25025 0.424083ZM18.4311 26.4158V20.1724L9.08318 20.1658C9.09191 20.2074 1.84392 16.1893 1.84392 16.1893L25.6274 16.3016V30.2794L18.4311 26.4158ZM0.250249 17.2814L0.25 26.4157L7.25765 30.0837V21.3906L0.250249 17.2814Z" fill="#1D1E20"/>
</g>
<defs>
<clipPath id="clip0_865_4042">
<rect width="150" height="30.6122" fill="white" transform="translate(0.25 0.0878296)"/>
</clipPath>
</defs>
</svg>
