<svg width="151" height="40" viewBox="0 0 151 40" fill="none" xmlns="http://www.w3.org/2000/svg">
<g clip-path="url(#clip0_865_4053)">
<path d="M105.494 2.76605L104.547 6.67574H107.723L106.933 9.96856H103.742L103.28 11.7524C103.179 12.2046 103.091 12.5344 103.04 12.7938C102.95 13.3271 102.692 13.9655 103.599 14.4169C104.049 14.6412 105.34 14.6042 106.325 14.484L104.611 17.8443L103.152 17.9024H101.807C100.395 17.9024 99.3971 17.5744 98.8122 17.0049C98.3593 16.5686 98.1336 15.8781 98.1336 14.9344C98.1336 14.4043 98.2309 13.6787 98.4257 12.759L99.1391 9.96856H97.3061L98.0809 6.67574H99.9584L100.549 4.13184L105.494 2.76605Z" fill="black"/>
<path d="M89.8244 6.38684C91.08 6.38684 91.924 6.47619 92.7074 6.65634C93.4919 6.83505 94.1209 7.11997 94.5971 7.50933C95.3773 8.15742 95.9424 9.12308 95.9424 10.4953C95.9424 11.6419 95.669 12.7679 95.1616 13.8531C94.3373 15.6136 93.1 16.5901 91.6255 17.2916C90.4714 17.8378 88.2838 18.2307 86.7828 18.1748C85.2813 18.1199 84.6336 18.0362 83.9844 17.8823C83.3356 17.728 82.6491 17.4165 82.1669 17.0577C81.3167 16.4422 80.7584 15.5681 80.7584 14.2033C80.7584 12.9711 80.9274 12.0144 81.442 10.8054C81.9175 9.69832 82.7898 8.65694 83.6155 8.03289C84.3648 7.46375 85.2261 7.05574 86.2011 6.81029C87.1761 6.56519 88.2957 6.39509 89.8244 6.38684ZM89.0493 9.49557C87.9889 9.49557 87.0462 9.99617 86.4849 10.7914C86.0163 11.4545 85.6804 12.3169 85.6804 13.1749C85.6804 14.4072 86.3428 15.0237 87.6691 15.0237C88.7134 15.0237 89.6529 14.508 90.2224 13.7124C90.6899 13.05 91.0413 12.1468 91.0413 11.2974C91.0416 10.0726 90.3677 9.511 89.0493 9.49557Z" fill="black"/>
<path d="M42.1394 6.68182L39.4247 17.8418H34.7927L37.507 6.68182H42.1394Z" fill="black"/>
<path d="M41.3568 1.43111C41.9877 1.46197 42.4276 1.66185 42.7445 2.03362C43.0603 2.40647 43.0979 2.89702 43.0771 3.35527C42.9645 4.15982 42.6792 4.64032 42.0307 5.1359C41.3026 5.63398 40.7202 5.82274 39.7323 5.73195C39.1036 5.67453 38.5796 5.40037 38.3184 5.08099C38.0568 4.76126 37.933 4.28147 37.9901 3.77369C38.0478 3.26628 38.3119 2.653 38.9532 2.12405C39.5938 1.59511 40.6305 1.39559 41.3568 1.43111Z" fill="black"/>
<path d="M48.569 6.67467L48.3565 7.64537C49.3218 7.03209 49.9882 6.75793 50.6765 6.58137C51.4294 6.38831 52.0201 6.34381 52.9635 6.37395C54.1018 6.41056 54.8823 6.65601 55.6183 7.14297C56.266 7.62635 56.6683 8.21702 56.735 9.13173C56.7558 9.76654 56.5265 10.7225 56.5265 10.7225L54.8137 17.8418H50.2538L51.6128 12.2401C51.7455 11.6006 51.827 11.2741 51.8557 10.9884C51.9468 10.0884 51.2435 9.85051 50.2846 9.85051C49.4657 9.85051 48.475 10.1247 47.9901 10.635C47.585 11.062 47.3575 11.7018 47.0543 12.9101L45.8686 17.8418H41.2954L43.9958 6.67467H48.569Z" fill="black"/>
<path d="M5.19281 7.06724L34.4234 7.05145L33.803 10.069L5.19281 7.06724Z" fill="#C32227"/>
<path d="M0.764221 7.48169L33.4997 11.0716L32.9188 13.7178L0.764221 7.48169Z" fill="#C32227"/>
<path d="M93.1509 20.3591L91.8311 26.5734C92.3808 26.1015 92.871 25.7735 93.3013 25.5887C93.7319 25.4042 94.2146 25.3124 94.7518 25.3124C95.5219 25.3124 96.1294 25.5072 96.5758 25.8991C97.0219 26.2902 97.2458 26.8253 97.2458 27.5042C97.2458 27.8024 97.1869 28.2194 97.0707 28.7563L95.9058 34.2671H94.4417L95.6058 28.7946C95.6769 28.4717 95.7128 28.2004 95.7128 27.9801C95.7128 27.5401 95.5753 27.1952 95.3005 26.9462C95.0256 26.6979 94.6456 26.573 94.16 26.573C93.7847 26.573 93.4064 26.6509 93.025 26.8059C92.6432 26.9613 92.3231 27.1683 92.0647 27.4263C91.7152 27.7759 91.4758 28.2445 91.3466 28.8334L90.1918 34.2668H88.7367L91.6958 20.3588L93.1509 20.3591Z" fill="black"/>
<path d="M103.651 25.3317C104.699 25.3317 105.514 25.6174 106.096 26.1905C106.678 26.7628 106.97 27.5667 106.97 28.6012C106.97 29.2938 106.851 29.9882 106.615 30.6872C106.379 31.3856 106.054 32.0006 105.64 32.531C104.631 33.8179 103.328 34.4616 101.73 34.4616C100.682 34.4616 99.8657 34.1753 99.2805 33.6029C98.6948 33.0305 98.4027 32.2299 98.4027 31.2011C98.4027 30.5035 98.5204 29.8048 98.7565 29.1058C98.9927 28.4074 99.3178 27.7927 99.7315 27.2627C100.721 26.001 102.027 25.3572 103.651 25.3317ZM103.379 26.5927C102.222 26.5927 101.313 27.2132 100.653 28.4548C100.226 29.2507 100.013 30.0783 100.013 30.9391C100.013 31.6762 100.197 32.245 100.566 32.6466C100.909 33.0155 101.381 33.1996 101.982 33.1996C103.133 33.1996 104.042 32.5791 104.709 31.3368C105.135 30.5412 105.349 29.7165 105.349 28.8628C105.349 28.1379 105.179 27.5807 104.84 27.1888C104.5 26.7984 104.013 26.5988 103.379 26.5927Z" fill="black"/>
<path d="M114.724 26.8644L113.279 27.6793C113.259 27.2789 113.143 26.986 112.929 26.8009C112.716 26.6168 112.389 26.5242 111.949 26.5242C111.458 26.5242 111.042 26.6641 110.702 26.9423C110.363 27.2196 110.193 27.5627 110.193 27.9704C110.193 28.2356 110.306 28.444 110.533 28.5958C110.759 28.7484 111.203 28.9109 111.861 29.0857C112.631 29.2866 113.162 29.5306 113.453 29.8188C113.744 30.1066 113.89 30.5311 113.89 31.0945C113.89 31.8897 113.547 32.6211 112.862 33.2871C112.06 34.069 111.034 34.4609 109.786 34.4609C108.964 34.4609 108.339 34.2761 107.908 33.9079C107.479 33.5394 107.189 32.9379 107.041 32.1033L108.554 31.5119C108.618 32.676 109.165 33.2577 110.194 33.2577C110.873 33.2577 111.423 33.0348 111.843 32.5888C112.173 32.2393 112.338 31.8485 112.338 31.415C112.338 31.1494 112.226 30.9424 112.003 30.7934C111.78 30.6452 111.332 30.4705 110.659 30.2695C110.11 30.1141 109.718 29.971 109.485 29.8385C109.252 29.7058 109.061 29.5199 108.912 29.2805C108.731 28.9963 108.641 28.6719 108.641 28.3102C108.641 27.9736 108.73 27.6198 108.907 27.248C109.086 26.8762 109.323 26.5479 109.62 26.2629C110.274 25.6425 111.121 25.3317 112.162 25.3317C112.867 25.3317 113.419 25.4512 113.816 25.6906C114.214 25.9299 114.517 26.3207 114.724 26.8644Z" fill="black"/>
<path d="M119.16 22.6927L118.559 25.5251H121.004L120.741 26.7872H118.287L117.394 30.9883C117.271 31.557 117.21 31.9679 117.21 32.2206C117.21 32.8801 117.636 33.2096 118.49 33.2096C118.768 33.2096 119.121 33.1392 119.547 32.9964L119.16 34.2183C118.591 34.3805 118.122 34.4612 117.753 34.4612C117.087 34.4612 116.58 34.3123 116.235 34.0148C115.889 33.7177 115.716 33.2842 115.716 32.7147C115.716 32.2625 115.793 31.6737 115.948 30.9495L116.831 26.7872H115.415L115.686 25.5251H117.103L117.578 23.2945L119.16 22.6927Z" fill="black"/>
<path d="M123.742 25.5251L121.88 34.2671H120.424L122.287 25.5251H123.742ZM123.878 21.0725C124.111 21.0725 124.302 21.1464 124.45 21.2954C124.599 21.445 124.674 21.6348 124.674 21.8684C124.674 22.1788 124.549 22.4584 124.3 22.7074C124.051 22.9558 123.769 23.0814 123.452 23.0814C123.225 23.0814 123.037 23.0067 122.889 22.8585C122.74 22.7089 122.665 22.5187 122.665 22.2854C122.665 21.9689 122.788 21.6872 123.034 21.4407C123.279 21.1945 123.561 21.0725 123.878 21.0725Z" fill="black"/>
<path d="M127.529 25.5251L127.306 26.5733C127.855 26.1014 128.345 25.7734 128.776 25.5886C129.205 25.4042 129.689 25.3123 130.226 25.3123C130.996 25.3123 131.603 25.5072 132.05 25.899C132.496 26.2902 132.719 26.8252 132.719 27.5042C132.719 27.8024 132.661 28.2194 132.545 28.7562L131.381 34.2671H129.916L131.08 28.7946C131.151 28.4716 131.186 28.2004 131.186 27.98C131.186 27.5401 131.049 27.1952 130.775 26.9462C130.499 26.6978 130.12 26.573 129.634 26.573C129.259 26.573 128.881 26.6508 128.499 26.8059C128.118 26.9609 127.797 27.1683 127.538 27.4263C127.189 27.7758 126.95 28.2445 126.821 28.8334L125.666 34.2667H124.211L126.073 25.5248L127.529 25.5251Z" fill="black"/>
<path d="M143.006 25.5251L141.153 34.2671C140.9 35.4438 140.461 36.3951 139.833 37.1196C139.361 37.6626 138.792 38.0853 138.125 38.3899C137.479 38.6871 136.835 38.8364 136.195 38.8364C135.328 38.8364 134.581 38.5905 133.954 38.0989C133.695 37.8987 133.493 37.6751 133.348 37.4297C133.202 37.1838 133.061 36.8275 132.925 36.3621L134.352 35.4309C134.507 36.867 135.202 37.5847 136.438 37.5847C137.37 37.5847 138.165 37.1577 138.825 36.3039C139.225 35.7933 139.533 35.0264 139.746 34.0048L139.921 33.1995C138.95 34.0464 137.951 34.4706 136.923 34.4706C136.179 34.4706 135.52 34.2348 134.944 33.7618C134.232 33.1676 133.876 32.3071 133.876 31.1813C133.876 30.4895 133.994 29.7958 134.231 29.1C134.466 28.4049 134.791 27.7916 135.205 27.262C135.671 26.6605 136.24 26.1843 136.913 25.8359C137.586 25.4932 138.258 25.3213 138.931 25.3213C139.442 25.3213 139.89 25.4236 140.275 25.6274C140.659 25.8309 141.01 26.1531 141.328 26.5923L141.55 25.5244H143.006V25.5251ZM138.854 26.5827C137.696 26.5827 136.787 27.2038 136.127 28.4455C135.7 29.241 135.487 30.0725 135.487 30.9391C135.487 31.6823 135.668 32.2554 136.031 32.6559C136.373 33.0244 136.848 33.2089 137.457 33.2089C138.608 33.2089 139.517 32.5852 140.183 31.3364C140.609 30.5472 140.823 29.7194 140.823 28.8527C140.823 28.1286 140.655 27.572 140.319 27.1844C139.983 26.7969 139.494 26.5963 138.854 26.5827Z" fill="black"/>
<path d="M59.4261 6.67678H63.9993L63.8242 7.47343C64.7278 6.95453 65.0694 6.77116 65.6432 6.61865C66.5859 6.36781 67.2935 6.33515 67.9854 6.36063C68.8818 6.39257 69.3774 6.53683 69.9817 6.80597C70.427 7.06685 70.7866 7.30262 71.2068 7.90262C72.32 7.17128 73.0768 6.83037 73.8207 6.61685C74.6051 6.40011 75.3462 6.35597 76.1967 6.35597C77.3819 6.35597 78.325 6.62762 78.9372 7.11099C79.5494 7.59472 80.0622 8.28946 80.0622 9.22535C80.088 9.7019 79.8767 10.5707 79.8767 10.5707L78.1262 17.8374H73.553L74.9486 11.9476C74.9486 11.9476 75.1025 11.2636 75.1456 10.9532C75.2482 10.2886 74.7526 9.88743 73.839 9.85692C72.9749 9.84185 72.2256 10.0127 71.7078 10.6399C71.3601 11.0347 71.2434 11.4186 70.9312 12.4791L69.6595 17.8442H65.0949C65.0949 17.8442 66.4183 12.3635 66.5048 11.9293C66.5486 11.7104 66.653 11.2898 66.6968 10.9586C66.8073 10.2603 66.254 9.86769 65.4422 9.83539C64.679 9.82714 64.0305 10.1103 63.5784 10.5082C62.9328 11.0763 62.748 11.991 62.4677 12.9707L61.2939 17.8442H56.7354L59.4261 6.67678Z" fill="black"/>
<path d="M137.557 6.6822L137.344 7.65254C138.309 7.03962 138.976 6.7651 139.664 6.58854C140.417 6.39512 141.007 6.35062 141.951 6.38149C143.089 6.41737 143.87 6.66283 144.606 7.1505C145.253 7.63388 145.656 8.22383 145.722 9.1389C145.743 9.77371 145.514 10.7297 145.514 10.7297L143.801 17.8493H139.241L140.6 12.2476C140.733 11.6078 140.814 11.2816 140.843 10.9952C140.934 10.0952 140.231 9.85804 139.272 9.85804C138.453 9.85804 137.462 10.1315 136.978 10.6421C136.572 11.0692 136.345 11.7094 136.042 12.9176L134.856 17.8497H130.283L132.983 6.68292H137.557V6.6822Z" fill="black"/>
<path d="M114.643 6.67822L111.929 17.8382H107.297L110.011 6.67822H114.643Z" fill="black"/>
<path d="M113.861 1.42752C114.492 1.45838 114.932 1.65826 115.248 2.03003C115.564 2.40252 115.601 2.89378 115.581 3.35132C115.469 4.15587 115.183 4.63601 114.535 5.13194C113.807 5.62967 113.224 5.81914 112.237 5.72835C111.607 5.67022 111.084 5.39642 110.823 5.07704C110.561 4.7573 110.437 4.27752 110.494 3.7701C110.552 3.26268 110.816 2.64941 111.457 2.1201C112.097 1.59115 113.134 1.39199 113.861 1.42752Z" fill="black"/>
<path d="M123.922 6.36206C125.177 6.36206 126.021 6.45177 126.804 6.6312C127.588 6.81063 128.218 7.09519 128.694 7.48527C129.474 8.13264 130.039 9.09866 130.039 10.4706C130.039 11.6174 129.766 12.7439 129.258 13.8283C128.434 15.5892 127.197 16.566 125.722 17.2676C124.568 17.8134 122.381 18.2063 120.88 18.1503C119.379 18.0954 118.731 18.0115 118.082 17.8575C117.433 17.7036 116.747 17.3921 116.263 17.0336C115.413 16.4182 114.856 15.5444 114.856 14.1793C114.856 12.9473 115.024 11.9899 115.539 10.781C116.014 9.6739 116.887 8.63252 117.713 8.00883C118.461 7.43897 119.323 7.03204 120.298 6.78586C121.273 6.54041 122.393 6.37031 123.922 6.36206ZM123.147 9.47115C122.086 9.47115 121.144 9.97103 120.582 10.7662C120.114 11.4294 119.778 12.2917 119.778 13.1497C119.778 14.382 120.441 14.9978 121.766 14.9978C122.811 14.9978 123.75 14.4836 124.32 13.6873C124.788 13.0249 125.138 12.1216 125.138 11.2722C125.138 10.0478 124.465 9.48622 123.147 9.47115Z" fill="black"/>
<path d="M148.286 14.3401C148.645 14.3401 148.982 14.4384 149.3 14.6354C149.619 14.8317 149.863 15.0969 150.034 15.4296C150.177 15.7159 150.25 16.0192 150.25 16.34C150.25 16.7139 150.153 17.0613 149.958 17.3814C149.763 17.7 149.501 17.9448 149.169 18.117C148.883 18.2634 148.58 18.3359 148.262 18.3359C147.89 18.3359 147.544 18.239 147.223 18.0442C146.903 17.8471 146.657 17.5816 146.485 17.2464C146.338 16.9604 146.266 16.6576 146.266 16.34C146.266 15.9617 146.364 15.6111 146.56 15.2893C146.753 14.9735 147.02 14.728 147.36 14.5543C147.641 14.4115 147.951 14.3401 148.286 14.3401ZM148.282 14.6832C147.823 14.6832 147.436 14.8421 147.119 15.1608C146.966 15.3162 146.847 15.4967 146.763 15.7019C146.681 15.9068 146.64 16.1196 146.64 16.3403C146.64 16.7946 146.799 17.1843 147.119 17.5077C147.436 17.8299 147.816 17.9907 148.26 17.9907C148.704 17.9907 149.086 17.8288 149.403 17.5055C149.719 17.1833 149.877 16.7939 149.877 16.3367C149.877 16.0263 149.797 15.7375 149.638 15.4694C149.485 15.2089 149.271 15.0068 148.995 14.8629C148.779 14.7503 148.541 14.6907 148.282 14.6832ZM147.518 17.4574V15.2164H148.212C148.452 15.2164 148.623 15.2397 148.726 15.2867C148.825 15.3337 148.903 15.4048 148.96 15.5006C149.017 15.5961 149.046 15.7041 149.046 15.8265C149.046 15.965 149.012 16.083 148.945 16.1814C148.877 16.279 148.769 16.368 148.619 16.4465L149.209 17.4574H148.69L148.168 16.5244H147.979V17.4574H147.518ZM147.978 16.1709H148.127H148.135C148.269 16.1803 148.372 16.1555 148.448 16.0981C148.523 16.0396 148.559 15.9556 148.559 15.8451C148.559 15.7105 148.503 15.6273 148.389 15.5957C148.355 15.586 148.262 15.581 148.111 15.581H147.979L147.978 16.1709Z" fill="#231F20"/>
</g>
<defs>
<clipPath id="clip0_865_4053">
<rect width="150" height="38.756" fill="white" transform="translate(0.25 0.700134)"/>
</clipPath>
</defs>
</svg>
