<svg width="151" height="28" viewBox="0 0 151 28" fill="none" xmlns="http://www.w3.org/2000/svg">
<g clip-path="url(#clip0_865_4046)">
<path d="M44.5349 0.456116C43.7187 0.456192 42.9175 0.67456 42.2141 1.08858C41.5108 1.50261 40.931 2.09722 40.5349 2.81077L40.4419 3.00263L36.8779 10.0724L32.343 19.0084L35.3139 24.8631L35.4767 25.1829C35.9348 25.9931 36.6254 26.6473 37.4593 27.0608C38.2921 26.6458 38.9824 25.992 39.4419 25.1829L39.6046 24.8631L48.5058 7.29914L48.7209 6.87472C49.0237 6.18002 49.1489 5.42093 49.0853 4.6658C49.0217 3.91068 48.7714 3.18321 48.3568 2.54889C47.9422 1.91457 47.3763 1.39332 46.7102 1.03206C46.044 0.6708 45.2985 0.48087 44.5407 0.479372L44.5349 0.456116Z" fill="#FF5100"/>
<path d="M17.0233 8.96193L14.0582 3.14798L13.8954 2.82821C13.4411 2.01852 12.7518 1.36573 11.9186 0.956116C11.0869 1.36509 10.3979 2.01554 9.94187 2.8224L9.77327 3.14798L0.860475 20.6945L0.645358 21.1131C0.164715 22.1894 0.118595 23.4099 0.516635 24.5195C0.914675 25.629 1.72608 26.5418 2.78132 27.0672C3.83656 27.5926 5.054 27.6898 6.17928 27.3387C7.30455 26.9875 8.25061 26.2151 8.81978 25.1829L8.91861 24.9968L12.5058 17.927L17.0349 8.99681L17.0233 8.96193Z" fill="#FF5100"/>
<path d="M44.5232 0.456116C43.708 0.456618 42.9077 0.675222 42.2053 1.08925C41.503 1.50329 40.9242 2.09767 40.529 2.81077L40.4302 3.00263L36.843 10.0724L32.3023 19.0084L35.2791 24.8631L35.4418 25.1829C35.8982 25.9944 36.5893 26.6491 37.4244 27.0608C38.2595 26.6491 38.9506 25.9944 39.407 25.1829L39.5756 24.8631L48.5058 7.29914L48.7151 6.87472C49.0178 6.18002 49.1431 5.42093 49.0795 4.6658C49.0159 3.91068 48.7656 3.18321 48.3509 2.54889C47.9363 1.91457 47.3705 1.39332 46.7043 1.03206C46.0382 0.6708 45.2927 0.48087 44.5349 0.479372L44.5232 0.456116Z" fill="url(#paint0_linear_865_4046)"/>
<path d="M4.81976 27.5375C5.63215 27.5399 6.43048 27.3257 7.13254 26.9169C7.8346 26.5081 8.415 25.9196 8.81395 25.2119L8.91279 25.0201L12.5058 17.9503L17.0407 9.01426L14.0698 3.13054L13.907 2.81077C13.4474 1.99967 12.7546 1.34541 11.9186 0.932861C11.0847 1.34636 10.3941 2.00053 9.93604 2.81077L9.77325 3.13054L0.831392 20.6945L0.616276 21.1189C0.31354 21.8136 0.188319 22.5727 0.251886 23.3278C0.315452 24.083 0.565811 24.8104 0.980423 25.4447C1.39504 26.0791 1.96089 26.6003 2.62703 26.9616C3.29318 27.3228 4.03871 27.5128 4.79651 27.5143L4.81976 27.5375Z" fill="url(#paint1_linear_865_4046)"/>
<path d="M17.0232 8.96193L14.0581 3.14798L13.8953 2.82821C13.439 2.01663 12.7479 1.36201 11.9128 0.9503C12.1905 0.814304 12.4805 0.705277 12.7791 0.624719C13.1592 0.528402 13.5497 0.47958 13.9419 0.47937H20.1512C20.9618 0.481609 21.7575 0.697833 22.4579 1.10618C23.1582 1.51453 23.7383 2.10053 24.1395 2.80495L24.3023 3.12472L32.3314 19.0317L35.2907 24.8457L35.4535 25.1654C35.9149 25.9856 36.6143 26.6465 37.4593 27.0608C36.8304 27.3665 36.1411 27.5274 35.4419 27.5317H29.1977C28.3879 27.529 27.5931 27.3126 26.8938 26.9042C26.1945 26.4959 25.6154 25.9101 25.2151 25.2061L25.0465 24.8864L17.0232 8.96193Z" fill="#FF8C44"/>
<path d="M56.6453 14.3049C56.6379 14.239 56.6455 14.1722 56.6674 14.1096C56.6893 14.047 56.7251 13.9901 56.772 13.9432C56.8189 13.8963 56.8758 13.8606 56.9384 13.8386C57.001 13.8167 57.0678 13.8092 57.1337 13.8166H57.4825C57.5469 13.8118 57.6115 13.8213 57.6717 13.8445C57.7319 13.8677 57.7862 13.904 57.8307 13.9507C57.8752 13.9974 57.9087 14.0534 57.929 14.1147C57.9492 14.1759 57.9556 14.2409 57.9477 14.3049V15.4328C57.9474 15.6693 57.9221 15.9052 57.8721 16.1363H57.9128C58.2545 15.3742 58.8098 14.7276 59.5115 14.2746C60.2131 13.8216 61.0311 13.5817 61.8663 13.584C64.3023 13.584 65.157 14.9677 65.157 17.3805V23.1305C65.1644 23.1964 65.1568 23.2632 65.1349 23.3258C65.113 23.3884 65.0772 23.4453 65.0303 23.4922C64.9834 23.5391 64.9265 23.5749 64.8639 23.5968C64.8013 23.6187 64.7345 23.6263 64.6686 23.6189H64.3023C64.2373 23.6257 64.1715 23.6176 64.11 23.5952C64.0486 23.5728 63.993 23.5367 63.9476 23.4896C63.9022 23.4426 63.8682 23.3857 63.848 23.3235C63.8279 23.2613 63.8222 23.1953 63.8314 23.1305V17.7352C63.8314 16.1945 63.5814 14.8282 61.6918 14.8282C59.6046 14.8282 57.9709 16.5433 57.9709 18.8282V23.1305C57.9801 23.1953 57.9744 23.2613 57.9543 23.3235C57.9341 23.3857 57.9001 23.4426 57.8547 23.4896C57.8093 23.5367 57.7537 23.5728 57.6923 23.5952C57.6308 23.6176 57.565 23.6257 57.5 23.6189H57.1337C57.0678 23.6263 57.001 23.6187 56.9384 23.5968C56.8758 23.5749 56.8189 23.5391 56.772 23.4922C56.7251 23.4453 56.6893 23.3884 56.6674 23.3258C56.6455 23.2632 56.6379 23.1964 56.6453 23.1305V14.3049Z" fill="#6E6F71"/>
<path d="M72.2791 17.6189H72.8605V17.305C72.8605 15.4154 71.8256 14.7701 70.4419 14.7701C69.6018 14.7798 68.7801 15.0169 68.064 15.4561C68.0113 15.4915 67.9518 15.5156 67.8894 15.5269C67.8269 15.5382 67.7628 15.5364 67.7011 15.5216C67.6393 15.5069 67.5813 15.4795 67.5307 15.4412C67.4801 15.4029 67.438 15.3545 67.407 15.2992L67.2849 15.1015C67.245 15.0507 67.2167 14.9918 67.2021 14.9289C67.1874 14.866 67.1867 14.8007 67.2 14.7375C67.2133 14.6743 67.2403 14.6148 67.2791 14.5632C67.3178 14.5116 67.3674 14.4691 67.4244 14.4387C68.3657 13.8747 69.4434 13.5792 70.5407 13.584C72.8663 13.584 74.186 14.8864 74.186 17.3457V23.1596C74.1952 23.2244 74.1896 23.2904 74.1694 23.3526C74.1493 23.4149 74.1152 23.4717 74.0698 23.5188C74.0244 23.5658 73.9688 23.602 73.9074 23.6244C73.8459 23.6467 73.7802 23.6548 73.7151 23.648H73.407C73.3408 23.6566 73.2736 23.6498 73.2104 23.6283C73.1473 23.6068 73.0899 23.5711 73.0427 23.5239C72.9955 23.4767 72.9598 23.4193 72.9383 23.3562C72.9168 23.293 72.91 23.2258 72.9186 23.1596V22.3515C72.9159 22.1041 72.9354 21.857 72.9767 21.6131H72.9244C72.656 22.2749 72.1985 22.8429 71.6091 23.2462C71.0197 23.6494 70.3245 23.8701 69.6105 23.8806C67.9535 23.8806 66.2965 22.9096 66.2965 21.0201C66.2965 17.7933 70.3895 17.6189 72.2791 17.6189ZM69.843 22.7178C71.7326 22.7178 72.843 20.7701 72.843 19.055V18.5899H72.2965C70.7558 18.5899 67.6453 18.648 67.6453 20.8457C67.657 21.7875 68.3837 22.7178 69.843 22.7178Z" fill="#6E6F71"/>
<path d="M76.0582 14.305C76.0508 14.239 76.0583 14.1723 76.0802 14.1097C76.1022 14.0471 76.1379 13.9902 76.1848 13.9433C76.2317 13.8964 76.2886 13.8606 76.3512 13.8387C76.4138 13.8168 76.4806 13.8092 76.5465 13.8166H76.8954C76.9597 13.8118 77.0243 13.8214 77.0845 13.8446C77.1447 13.8677 77.199 13.904 77.2435 13.9507C77.288 13.9974 77.3216 14.0534 77.3418 14.1147C77.362 14.176 77.3684 14.241 77.3605 14.305V15.4329C77.3603 15.6694 77.3349 15.9052 77.2849 16.1364H77.3256C77.6259 15.4152 78.1234 14.7933 78.7609 14.3419C79.3985 13.8904 80.1503 13.6278 80.9303 13.584C82.7384 13.584 83.6744 14.4213 83.9477 16.0375H83.971C84.2862 15.3353 84.79 14.7342 85.4263 14.3011C86.0627 13.8679 86.8067 13.6197 87.5756 13.584C89.9535 13.584 90.8256 14.9678 90.8256 17.3806V23.1306C90.8328 23.196 90.8254 23.2621 90.8038 23.3243C90.7822 23.3864 90.747 23.443 90.7007 23.4898C90.6545 23.5366 90.5984 23.5725 90.5365 23.5948C90.4746 23.6171 90.4085 23.6254 90.343 23.6189H89.9884C89.9225 23.6263 89.8557 23.6188 89.7931 23.5969C89.7305 23.5749 89.6736 23.5392 89.6267 23.4923C89.5798 23.4454 89.544 23.3885 89.5221 23.3259C89.5002 23.2632 89.4926 23.1965 89.5 23.1306V17.712C89.5 16.1189 89.1744 14.805 87.4012 14.805C85.4303 14.805 84.1047 16.8689 84.1047 18.8747V23.1189C84.1149 23.1834 84.1101 23.2493 84.0907 23.3116C84.0713 23.3739 84.0378 23.4308 83.9928 23.4781C83.9478 23.5253 83.8926 23.5616 83.8313 23.584C83.77 23.6064 83.7044 23.6144 83.6396 23.6073H83.2675C83.2015 23.6147 83.1348 23.6072 83.0722 23.5852C83.0095 23.5633 82.9527 23.5276 82.9058 23.4806C82.8588 23.4337 82.8231 23.3769 82.8012 23.3142C82.7792 23.2516 82.7717 23.1849 82.7791 23.1189V17.712C82.7791 16.2352 82.564 14.805 80.7151 14.805C78.7268 14.805 77.3663 16.9096 77.3663 18.8747V23.1189C77.3755 23.1837 77.3698 23.2497 77.3497 23.3119C77.3295 23.3742 77.2954 23.431 77.25 23.4781C77.2046 23.5252 77.1491 23.5613 77.0876 23.5837C77.0262 23.6061 76.9604 23.6141 76.8954 23.6073H76.5291C76.4632 23.6147 76.3964 23.6072 76.3338 23.5852C76.2712 23.5633 76.2143 23.5276 76.1674 23.4806C76.1205 23.4337 76.0847 23.3769 76.0628 23.3142C76.0409 23.2516 76.0333 23.1849 76.0407 23.1189L76.0582 14.305Z" fill="#6E6F71"/>
<path d="M96.9244 13.584C99.5349 13.584 100.994 15.4736 100.994 18.2352C100.994 18.3013 100.981 18.3668 100.955 18.4276C100.929 18.4885 100.891 18.5434 100.843 18.589C100.795 18.6347 100.739 18.6702 100.677 18.6933C100.615 18.7164 100.549 18.7267 100.483 18.7236H93.4535C93.5117 21.2178 95.2268 22.6422 97.2558 22.6422C98.1892 22.6379 99.0941 22.3206 99.8256 21.741C99.8719 21.6971 99.928 21.6647 99.9891 21.6465C100.05 21.6282 100.115 21.6246 100.178 21.6359C100.241 21.6472 100.3 21.6732 100.351 21.7116C100.402 21.7501 100.443 21.8 100.471 21.8573L100.628 22.0957C100.662 22.1464 100.686 22.2036 100.697 22.2636C100.708 22.3237 100.708 22.3855 100.695 22.4452C100.682 22.5049 100.657 22.5614 100.621 22.6113C100.586 22.6611 100.541 22.7033 100.488 22.7352C99.5484 23.4581 98.4008 23.8597 97.2151 23.8806C96.5348 23.9027 95.8573 23.7843 95.2248 23.5327C94.5924 23.2811 94.0186 22.9016 93.5395 22.4181C93.0604 21.9347 92.6862 21.3575 92.4403 20.7228C92.1944 20.0881 92.0821 19.4095 92.1105 18.7294C92.1105 15.5143 94.2733 13.584 96.9244 13.584ZM99.6686 17.7526C99.5872 15.6887 98.3431 14.6713 96.8779 14.6713C96.0325 14.6708 95.2176 14.9868 94.5935 15.5571C93.9694 16.1274 93.5814 16.9106 93.5058 17.7526H99.6686Z" fill="#6E6F71"/>
<path d="M107.326 13.584C108.506 13.5692 109.656 13.9614 110.581 14.6945C110.636 14.7289 110.681 14.7755 110.715 14.8305C110.748 14.8854 110.769 14.9474 110.774 15.0115C110.78 15.0756 110.771 15.1402 110.747 15.2002C110.724 15.2601 110.687 15.3139 110.64 15.3573L110.506 15.5724C110.331 15.8457 110.116 15.8457 109.843 15.6712C109.14 15.1044 108.269 14.7874 107.366 14.7701C106.851 14.7639 106.34 14.8632 105.865 15.0618C105.389 15.2605 104.959 15.5542 104.602 15.925C104.244 16.2958 103.966 16.7359 103.784 17.2182C103.603 17.7004 103.522 18.2147 103.547 18.7294C103.525 19.2436 103.609 19.7569 103.793 20.2376C103.977 20.7183 104.257 21.1563 104.616 21.5249C104.976 21.8934 105.406 22.1847 105.882 22.3808C106.358 22.5769 106.869 22.6738 107.384 22.6654C108.394 22.6564 109.368 22.2897 110.134 21.6305C110.178 21.5827 110.234 21.5468 110.296 21.5262C110.358 21.5055 110.424 21.5007 110.488 21.5123C110.552 21.5239 110.613 21.5514 110.664 21.5924C110.714 21.6334 110.754 21.6865 110.779 21.7468L110.913 21.9445C110.949 21.995 110.975 22.0522 110.989 22.1129C111.003 22.1735 111.004 22.2363 110.994 22.2976C110.983 22.3588 110.96 22.4173 110.926 22.4695C110.892 22.5217 110.848 22.5666 110.797 22.6015C109.817 23.4151 108.582 23.8577 107.308 23.8515C106.628 23.8766 105.95 23.7614 105.316 23.5131C104.682 23.2648 104.106 22.8887 103.624 22.4083C103.142 21.9278 102.764 21.3532 102.514 20.7203C102.263 20.0874 102.146 19.4097 102.169 18.7294C102.148 18.047 102.267 17.3675 102.519 16.733C102.77 16.0985 103.15 15.5223 103.633 15.0401C104.116 14.5579 104.693 14.1799 105.328 13.9294C105.964 13.679 106.643 13.5615 107.326 13.584Z" fill="#6E6F71"/>
<path d="M112.256 10.4096C112.246 10.3452 112.25 10.2792 112.27 10.2169C112.289 10.1547 112.323 10.0977 112.368 10.0504C112.413 10.0032 112.468 9.96696 112.529 9.94455C112.591 9.92214 112.656 9.91415 112.721 9.92121H113.093C113.159 9.91381 113.226 9.92136 113.288 9.94329C113.351 9.96521 113.408 10.001 113.455 10.0479C113.502 10.0948 113.537 10.1517 113.559 10.2143C113.581 10.2769 113.589 10.3437 113.581 10.4096V15.2991C113.582 15.5664 113.556 15.8332 113.506 16.0956H113.541C113.886 15.3466 114.438 14.712 115.133 14.2669C115.827 13.8218 116.635 13.5849 117.459 13.584C119.895 13.584 120.75 14.9677 120.75 17.3805V23.1305C120.75 23.4445 120.599 23.6189 120.285 23.6189H119.913C119.847 23.6263 119.78 23.6187 119.718 23.5968C119.655 23.5749 119.598 23.5391 119.551 23.4922C119.504 23.4453 119.468 23.3884 119.447 23.3258C119.425 23.2632 119.417 23.1964 119.424 23.1305V17.7352C119.424 16.1945 119.192 14.8282 117.285 14.8282C115.221 14.8282 113.581 16.5259 113.581 18.898V23.1421C113.589 23.2081 113.581 23.2748 113.559 23.3374C113.537 23.4001 113.502 23.4569 113.455 23.5039C113.408 23.5508 113.351 23.5865 113.288 23.6084C113.226 23.6304 113.159 23.6379 113.093 23.6305H112.721C112.656 23.6376 112.591 23.6296 112.529 23.6072C112.468 23.5848 112.413 23.5485 112.368 23.5013C112.323 23.4541 112.289 23.3971 112.27 23.3348C112.25 23.2725 112.246 23.2066 112.256 23.1421V10.4096Z" fill="#6E6F71"/>
<path d="M126.849 13.584C129.459 13.584 130.919 15.4736 130.919 18.2352C130.919 18.3008 130.905 18.3658 130.88 18.4262C130.854 18.4866 130.817 18.5413 130.769 18.5869C130.722 18.6324 130.666 18.668 130.605 18.6915C130.544 18.715 130.478 18.7259 130.413 18.7236H123.384C123.442 21.2178 125.157 22.6422 127.18 22.6422C128.115 22.6379 129.022 22.3206 129.756 21.741C129.802 21.6971 129.857 21.6647 129.918 21.6464C129.979 21.6281 130.043 21.6245 130.105 21.6358C130.168 21.6472 130.227 21.6732 130.277 21.7117C130.327 21.7502 130.368 21.8001 130.395 21.8573L130.552 22.0957C130.587 22.1461 130.611 22.2029 130.622 22.2627C130.634 22.3226 130.634 22.3842 130.621 22.4439C130.609 22.5036 130.585 22.5602 130.55 22.6102C130.515 22.6603 130.47 22.7028 130.419 22.7352C129.477 23.4559 128.331 23.8572 127.145 23.8806C126.466 23.9049 125.789 23.7891 125.156 23.5404C124.523 23.2917 123.948 22.9154 123.467 22.4349C122.986 21.9544 122.609 21.38 122.36 20.7475C122.11 20.115 121.994 19.438 122.017 18.7585C122.017 15.5143 124.198 13.584 126.849 13.584ZM129.599 17.7526C129.523 15.6887 128.273 14.6713 126.808 14.6713C125.963 14.6696 125.148 14.9853 124.525 15.556C123.901 16.1267 123.515 16.9106 123.442 17.7526H129.599Z" fill="#6E6F71"/>
<path d="M137.529 17.6189H138.11V17.305C138.11 15.4154 137.076 14.7701 135.692 14.7701C134.853 14.7765 134.032 15.0138 133.32 15.4561C133.267 15.4916 133.207 15.5158 133.144 15.5271C133.081 15.5385 133.016 15.5367 132.954 15.522C132.892 15.5073 132.833 15.4799 132.782 15.4415C132.731 15.4032 132.689 15.3547 132.657 15.2992L132.541 15.1015C132.501 15.0511 132.472 14.9925 132.457 14.9299C132.442 14.8673 132.441 14.8021 132.453 14.739C132.466 14.6758 132.492 14.6162 132.531 14.5644C132.569 14.5125 132.618 14.4696 132.674 14.4387C133.616 13.8747 134.693 13.5792 135.791 13.584C138.116 13.584 139.436 14.8864 139.436 17.3457V23.1596C139.445 23.2244 139.44 23.2904 139.419 23.3526C139.399 23.4149 139.365 23.4717 139.32 23.5188C139.274 23.5658 139.219 23.602 139.157 23.6244C139.096 23.6467 139.03 23.6548 138.965 23.648H138.622C138.556 23.6566 138.489 23.6498 138.426 23.6283C138.362 23.6068 138.305 23.5711 138.258 23.5239C138.211 23.4767 138.175 23.4193 138.153 23.3562C138.132 23.293 138.125 23.2258 138.134 23.1596V22.3515C138.131 22.1041 138.151 21.857 138.192 21.6131H138.151C137.884 22.2713 137.43 22.8368 136.846 23.2398C136.261 23.6428 135.571 23.8656 134.86 23.8806C133.203 23.8806 131.547 22.9096 131.547 21.0201C131.547 17.7933 135.64 17.6189 137.529 17.6189ZM135.093 22.7178C136.983 22.7178 138.093 20.7701 138.093 19.055V18.5899H137.547C136.006 18.5899 132.895 18.648 132.895 20.8457C132.907 21.7875 133.628 22.7178 135.093 22.7178Z" fill="#6E6F71"/>
<path d="M141.326 14.305C141.316 14.2402 141.322 14.1742 141.342 14.112C141.362 14.0497 141.396 13.9929 141.442 13.9458C141.487 13.8987 141.543 13.8626 141.604 13.8402C141.666 13.8178 141.731 13.8098 141.797 13.8166H142.11C142.172 13.8086 142.235 13.8145 142.294 13.8339C142.353 13.8532 142.407 13.8855 142.452 13.9284C142.498 13.9712 142.533 14.0237 142.555 14.0818C142.577 14.1399 142.586 14.2022 142.581 14.2643V14.9678C142.583 15.19 142.564 15.412 142.523 15.6306H142.558C142.869 14.9931 143.359 14.4601 143.969 14.0966C144.578 13.7332 145.28 13.5551 145.988 13.584C148.622 13.584 150.256 15.6887 150.256 18.7294C150.256 21.7701 148.401 23.8806 145.849 23.8806C145.176 23.8884 144.516 23.7058 143.943 23.354C143.369 23.0021 142.908 22.4954 142.61 21.8922H142.576C142.628 22.176 142.653 22.4641 142.651 22.7526V27.055C142.659 27.1209 142.651 27.1877 142.629 27.2503C142.607 27.3129 142.571 27.3698 142.524 27.4167C142.478 27.4636 142.421 27.4993 142.358 27.5213C142.295 27.5432 142.229 27.5507 142.163 27.5433H141.797C141.731 27.5502 141.666 27.5421 141.604 27.5197C141.543 27.4973 141.487 27.4612 141.442 27.4141C141.396 27.367 141.362 27.3102 141.342 27.248C141.322 27.1857 141.316 27.1197 141.326 27.055V14.305ZM145.709 22.6654C147.453 22.6654 148.89 21.2236 148.89 18.7294C148.89 16.3282 147.599 14.7933 145.791 14.7933C144.151 14.7933 142.61 15.9561 142.61 18.7468C142.61 20.7119 143.703 22.6654 145.709 22.6654Z" fill="#6E6F71"/>
</g>
<defs>
<linearGradient id="paint0_linear_865_4046" x1="34.5465" y1="25.7177" x2="46.186" y2="0.758444" gradientUnits="userSpaceOnUse">
<stop stop-color="#D4202C"/>
<stop offset="0.1" stop-color="#DC3D29" stop-opacity="0.79"/>
<stop offset="0.2" stop-color="#E45926" stop-opacity="0.58"/>
<stop offset="0.32" stop-color="#EA7123" stop-opacity="0.4"/>
<stop offset="0.43" stop-color="#F08521" stop-opacity="0.25"/>
<stop offset="0.55" stop-color="#F4941F" stop-opacity="0.14"/>
<stop offset="0.68" stop-color="#F79F1E" stop-opacity="0.06"/>
<stop offset="0.82" stop-color="#F8A51D" stop-opacity="0.02"/>
<stop offset="1" stop-color="#F9A71D" stop-opacity="0"/>
</linearGradient>
<linearGradient id="paint1_linear_865_4046" x1="14.7965" y1="2.27588" x2="3.15697" y2="27.2352" gradientUnits="userSpaceOnUse">
<stop stop-color="#D4202C"/>
<stop offset="0.1" stop-color="#DC3D29" stop-opacity="0.79"/>
<stop offset="0.2" stop-color="#E45926" stop-opacity="0.58"/>
<stop offset="0.32" stop-color="#EA7123" stop-opacity="0.4"/>
<stop offset="0.43" stop-color="#F08521" stop-opacity="0.25"/>
<stop offset="0.55" stop-color="#F4941F" stop-opacity="0.14"/>
<stop offset="0.68" stop-color="#F79F1E" stop-opacity="0.06"/>
<stop offset="0.82" stop-color="#F8A51D" stop-opacity="0.02"/>
<stop offset="1" stop-color="#F9A71D" stop-opacity="0"/>
</linearGradient>
<clipPath id="clip0_865_4046">
<rect width="150" height="27.0756" fill="white" transform="translate(0.25 0.456116)"/>
</clipPath>
</defs>
</svg>
