<svg width="151" height="49" viewBox="0 0 151 49" fill="none" xmlns="http://www.w3.org/2000/svg">
<g clip-path="url(#clip0_865_4043)">
<path d="M65.3986 23.687V33.9724C65.3986 34.1303 65.5268 34.2585 65.6847 34.2585H68.2133C68.3711 34.2585 68.4994 34.1303 68.4994 33.9724V23.687C68.4994 23.687 68.5585 23.0195 68.4402 20.9545C68.1837 18.2977 65.7866 16.8312 63.3402 16.5024C62.1992 16.3511 60.8609 16.3643 59.7692 16.772C59.2694 16.9594 56.514 18.7186 56.6521 19.1921C56.0372 17.1074 54.5739 16.9068 53.9558 16.92C53.8012 16.92 53.673 17.0482 53.673 17.206V33.9757C53.673 34.1336 53.8012 34.2618 53.959 34.2618H56.4877C56.6455 34.2618 56.7737 34.1336 56.7737 33.9757V23.6903C56.7737 23.6903 57.3196 19.3762 61.0878 19.3762C62.3044 19.3762 65.2178 19.7412 65.4019 23.6903L65.3986 23.687Z" fill="#484C52"/>
<path d="M68.2133 34.4229H65.6847C65.4381 34.4229 65.2342 34.2223 65.2342 33.9724V23.6903C65.0665 20.0766 62.5642 19.5374 61.0846 19.5374C57.5037 19.5374 56.9382 23.664 56.9349 23.7068V33.9724C56.9349 34.2191 56.7343 34.4229 56.4877 34.4229H53.9591C53.7125 34.4229 53.5086 34.2223 53.5086 33.9724V17.2028C53.5086 16.9561 53.7026 16.7589 53.9525 16.7523C54.5542 16.7391 55.9714 16.92 56.6784 18.7581C57.3426 17.9294 59.4898 16.6964 59.7101 16.6142C61.0254 16.1242 62.561 16.2295 63.36 16.338C65.6025 16.6372 68.3218 18.0215 68.6013 20.9348C68.723 22.9965 68.6638 23.6706 68.6638 23.7002V33.9724C68.6638 34.2191 68.4632 34.4229 68.2166 34.4229H68.2133ZM61.0846 19.2085C62.3702 19.2085 65.3756 19.6426 65.5631 23.6805V23.687V33.9724C65.5631 34.0382 65.6157 34.0941 65.6847 34.0941H68.2133C68.2791 34.0941 68.335 34.0415 68.335 33.9724V23.687C68.335 23.6673 68.3942 22.9834 68.2758 20.9611C68.016 18.2451 65.4414 16.9463 63.3172 16.6635C62.5478 16.5616 61.0747 16.4563 59.8252 16.9233C59.2662 17.1304 56.8231 18.7679 56.8099 19.1526L56.4943 19.2381C55.909 17.2587 54.5279 17.0712 53.9591 17.0844C53.89 17.0844 53.8374 17.1403 53.8374 17.206V33.9757C53.8374 34.0415 53.89 34.0974 53.9591 34.0974H56.4877C56.5535 34.0974 56.6094 34.0448 56.6094 33.9757V23.6903C56.6159 23.6246 56.7573 22.546 57.3755 21.4544C58.2008 19.9878 59.4865 19.2151 61.0879 19.2151L61.0846 19.2085Z" fill="#484C52"/>
<path d="M86.6928 19.4518C85.7393 18.1661 84.4042 17.1632 82.895 16.6273C78.7486 15.1542 73.2376 17.4329 71.7053 21.6549C71.3864 22.5328 71.2154 23.4568 71.1463 24.3841C70.9753 26.62 71.4653 29.655 72.9778 31.3583C74.6449 33.2358 77.0946 34.4163 79.6068 34.4952C82.4576 34.584 85.3151 33.2556 87.094 31.0328C87.1893 30.9144 87.1696 30.7401 87.0545 30.6415L85.2756 29.119C85.1605 29.0204 84.983 29.027 84.881 29.1421C84.3253 29.7734 82.0762 31.1511 81.8033 31.2465C80.3105 31.7693 78.6927 31.595 77.3215 30.8092C75.8451 29.9641 74.7502 28.5995 74.6778 26.8798C74.6713 26.7154 74.7962 26.5773 74.9639 26.5773H87.6793C87.8371 26.5773 87.9653 26.449 87.9653 26.2912V24.1868C87.9653 22.5558 87.676 20.7769 86.6928 19.4518ZM84.5818 23.9369H74.3293C74.2438 23.9369 74.7271 22.227 74.7929 22.0791C75.0461 21.5036 75.4012 20.9775 75.855 20.5435C76.6277 19.8036 77.7227 19.3006 78.765 19.0868C80.7873 18.6758 83.1745 19.3071 84.0393 21.3491C84.1017 21.4971 84.7528 23.9336 84.5818 23.9336V23.9369Z" fill="#484C52"/>
<path d="M79.8765 34.6695C79.7844 34.6695 79.6923 34.6695 79.6035 34.6662C77.0815 34.5873 74.5595 33.3937 72.8562 31.4734C71.3206 29.7438 70.811 26.6628 70.9819 24.3775C71.0576 23.368 71.2516 22.4342 71.5508 21.6023C73.0666 17.423 78.6072 14.9306 82.9509 16.4727C84.47 17.012 85.8478 18.0379 86.8244 19.3565C87.6892 20.5238 88.1265 22.1481 88.1265 24.1901V26.2945C88.1265 26.5411 87.9259 26.7417 87.676 26.7417H74.9606C74.9179 26.7417 74.8916 26.7614 74.8751 26.7779C74.8521 26.8042 74.839 26.8371 74.839 26.8732C74.9047 28.3891 75.8353 29.7734 77.4005 30.6678C78.7387 31.4339 80.3236 31.5885 81.7441 31.0919C82.0039 30.9999 84.2168 29.6419 84.7528 29.0336C84.9106 28.8527 85.1902 28.8363 85.3776 28.9941L87.1532 30.5165C87.334 30.6711 87.3636 30.9506 87.2157 31.138C85.4598 33.3312 82.6681 34.6662 79.8699 34.6662L79.8765 34.6695ZM80.1855 16.3379C76.6442 16.3379 73.0206 18.5081 71.8599 21.7141C71.5705 22.5164 71.3831 23.4206 71.3108 24.4005C71.1431 26.6167 71.6297 29.5958 73.1028 31.2531C74.7469 33.1076 77.1801 34.2585 79.6167 34.3374C82.4051 34.4294 85.223 33.1208 86.9691 30.9341C87.0085 30.8848 86.9986 30.8125 86.9493 30.7697L85.1704 29.2473C85.1211 29.2045 85.0488 29.2078 85.006 29.2539C84.4404 29.8951 82.165 31.2958 81.8592 31.4043C80.3467 31.9337 78.6631 31.7693 77.2426 30.9571C75.5788 30.0069 74.5858 28.5239 74.5167 26.8929C74.5102 26.768 74.5562 26.643 74.6417 26.5543C74.7272 26.4655 74.8423 26.4162 74.9639 26.4162H87.6793C87.7451 26.4162 87.801 26.3636 87.801 26.2978V24.1934C87.801 22.2237 87.3834 20.6651 86.5613 19.557C85.6209 18.2911 84.2991 17.3079 82.8391 16.7884C81.9875 16.4859 81.0865 16.3445 80.1823 16.3445L80.1855 16.3379ZM84.5818 24.1046H74.2405L74.1846 24.0257C74.0531 23.8251 74.6351 22.033 74.6417 22.0166C74.9113 21.4017 75.2829 20.8657 75.7399 20.4284C76.4896 19.7116 77.5813 19.1657 78.7289 18.929C80.7051 18.5278 83.2567 19.0934 84.1873 21.2899C84.1971 21.3129 84.9205 23.7396 84.7331 24.0224L84.6838 24.0947L84.5785 24.1046H84.5818ZM74.5036 23.7758H84.4437C84.401 23.3023 83.9669 21.6154 83.888 21.4181C83.0298 19.3926 80.6492 18.8764 78.7979 19.2512C77.7063 19.4748 76.6771 19.9878 75.9701 20.6651C75.5426 21.0729 75.1974 21.5727 74.9475 22.1481C74.8883 22.2829 74.5825 23.3713 74.5069 23.7758H74.5036Z" fill="#484C52"/>
<path d="M100.303 17.5447C100.092 17.3868 99.8686 17.2455 99.6318 17.1139C97.5274 15.9433 94.7949 15.9105 92.6741 17.0712C91.03 17.9721 89.6654 19.6754 89.5898 21.5957C89.5273 23.1379 90.3559 24.6866 91.6317 25.5448C92.4012 26.0643 93.3876 26.334 94.3872 26.5181C95.1994 26.6694 96.0214 26.7614 96.7514 26.893C98.0864 27.1297 99.428 28.7475 98.4481 30.1614C98.162 30.5724 97.7247 30.8486 97.2479 30.9999C95.3342 31.6082 93.1344 30.9867 91.7567 29.5531C91.6482 29.4413 91.4739 29.4281 91.3588 29.5301L89.1195 31.4964C88.9157 31.674 92.0559 33.5351 92.4834 33.6929C96.2319 35.0674 102.269 34.413 102.542 29.4084C102.634 27.7446 101.815 26.0808 100.507 25.0647C99.5135 24.292 98.264 24.075 97.0605 23.8514C96.0017 23.6541 94.5089 23.4996 93.7789 22.6216C92.7004 21.3294 93.6112 20.0568 95.0284 19.6557C95.9359 19.3992 96.9487 19.5242 97.8135 19.8727C97.9549 19.9319 98.8953 20.3857 99.4378 20.7375C99.5398 20.8033 99.6713 20.7967 99.7667 20.7211C100.155 20.4087 101.138 19.6162 101.575 19.2644C101.7 19.1625 101.717 18.9816 101.611 18.8599C101.401 18.6133 101.075 18.2582 101.039 18.2155C100.812 17.9623 100.569 17.742 100.306 17.5447H100.303Z" fill="#484C52"/>
<path d="M96.1529 34.4788C94.8048 34.4788 93.4829 34.2289 92.4274 33.8442C92.2071 33.762 91.3752 33.2951 90.5795 32.8018C89.0011 31.8252 88.9683 31.6411 88.9518 31.5556L88.9354 31.4635L89.0143 31.3715L91.2535 29.4051C91.4344 29.2473 91.7106 29.2605 91.8783 29.438C93.2396 30.8552 95.3769 31.4208 97.1986 30.8421C97.5339 30.7336 98.0009 30.5133 98.3132 30.0661C98.744 29.4446 98.6453 28.856 98.4842 28.4713C98.1916 27.7676 97.4682 27.1856 96.7251 27.0541C96.3897 26.9949 96.0312 26.9423 95.6663 26.8864C95.2388 26.8239 94.7982 26.7582 94.3609 26.6792C93.5026 26.5214 92.4077 26.2649 91.5429 25.6796C90.1947 24.7688 89.3661 23.1642 89.4286 21.5859C89.5042 19.7708 90.7472 17.9426 92.5984 16.9265C94.7522 15.7461 97.5438 15.7625 99.714 16.9693C99.9672 17.1107 100.191 17.2553 100.401 17.4132C100.681 17.6236 100.931 17.8472 101.161 18.1037C101.259 18.2122 101.546 18.5279 101.736 18.7482C101.815 18.8402 101.855 18.9586 101.841 19.0803C101.832 19.2019 101.772 19.3104 101.677 19.3861L99.8685 20.8427C99.7173 20.9644 99.5069 20.9743 99.3457 20.869C98.8065 20.5172 97.8759 20.07 97.751 20.0174C96.8566 19.6557 95.88 19.5768 95.0711 19.807C94.2951 20.0273 93.6999 20.5172 93.5257 21.0861C93.381 21.5464 93.5125 22.0396 93.9038 22.5066C94.5088 23.23 95.7156 23.4404 96.6856 23.6081C96.8237 23.6311 96.9618 23.6541 97.09 23.6804L97.192 23.7002C98.3823 23.9205 99.6088 24.1506 100.608 24.9267C101.996 26.0052 102.798 27.7216 102.706 29.4084C102.614 31.092 101.858 32.4467 100.52 33.3279C99.2734 34.1467 97.6984 34.4755 96.1529 34.4755V34.4788ZM89.3201 31.5359C89.741 31.9535 92.1183 33.3805 92.5392 33.5351C94.7291 34.3374 98.1028 34.5314 100.339 33.0583C101.605 32.2264 102.289 30.9933 102.377 29.3953C102.463 27.8137 101.707 26.2025 100.405 25.1897C99.4707 24.463 98.2804 24.2427 97.1295 24.0257L97.0276 24.006C96.8993 23.9829 96.7645 23.9599 96.6264 23.9336C95.6038 23.7561 94.328 23.5358 93.6473 22.7203C93.0587 22.0133 93.085 21.3919 93.2067 20.9907C93.4204 20.3035 94.0814 19.7445 94.979 19.4913C95.857 19.2447 96.9125 19.3269 97.8693 19.7149C98.0042 19.7708 98.9544 20.2278 99.52 20.5961C99.5627 20.6257 99.6154 20.6224 99.6581 20.5895L101.467 19.1329C101.493 19.1132 101.506 19.0836 101.509 19.0507C101.509 19.0178 101.503 18.9849 101.48 18.9619C101.292 18.7416 101.01 18.4325 100.931 18.3437C100.697 18.084 100.464 17.8702 100.201 17.6729C100.003 17.525 99.7896 17.3869 99.5496 17.252C97.478 16.0979 94.808 16.0815 92.7496 17.2093C90.9971 18.1695 89.8199 19.8925 89.7508 21.5957C89.6916 23.0623 90.4644 24.5551 91.7204 25.4034C92.5359 25.9526 93.5881 26.1992 94.4168 26.3504C94.8475 26.4293 95.2881 26.4951 95.709 26.5576C96.0773 26.6135 96.439 26.6661 96.7777 26.7253C97.626 26.8765 98.4513 27.5407 98.7835 28.3431C99.0531 28.9941 98.9807 29.6715 98.5796 30.2502C98.2902 30.6645 97.8463 30.9769 97.2939 31.1512C95.3539 31.7661 93.0818 31.1676 91.635 29.6583C91.5856 29.609 91.5133 29.6024 91.464 29.6452L89.3168 31.5293L89.3201 31.5359Z" fill="#484C52"/>
<path d="M104.929 12.3724V23.904C104.929 25.3739 104.929 26.847 104.936 28.3168C104.939 29.369 104.827 30.4212 105.189 31.4208C105.764 33.0156 106.994 34.344 108.796 34.344H111.538C111.538 34.344 112.972 34.469 112.972 32.8479V31.1742C112.972 30.9703 112.765 30.8322 112.577 30.9111C111.647 31.3057 110.486 31.5227 109.533 31.0788C108.342 30.5231 108.171 29.2276 108.171 28.0471V20.1029C108.171 19.9451 108.299 19.8168 108.457 19.8168H112.564C112.722 19.8168 112.85 19.6886 112.85 19.5308V17.1074C112.85 16.9496 112.722 16.8213 112.564 16.8213H108.645C108.487 16.8213 108.359 16.6931 108.359 16.5352C108.359 15.9039 108.434 15.2266 108.359 14.6018C108.194 13.2569 106.53 11.3136 105.071 12.1225C104.982 12.1718 104.932 12.2672 104.932 12.3691L104.929 12.3724Z" fill="#484C52"/>
<path d="M111.607 34.5117C111.558 34.5117 111.528 34.5117 111.522 34.5117H108.793C107.122 34.5117 105.715 33.3773 105.031 31.48C104.732 30.6481 104.748 29.78 104.761 28.9383C104.765 28.7344 104.768 28.5272 104.768 28.3234C104.761 26.8535 104.761 25.3804 104.761 23.9106V12.379C104.761 12.2146 104.847 12.0666 104.985 11.9877C105.508 11.6983 106.093 11.7049 106.682 12.0074C107.589 12.4711 108.398 13.6055 108.516 14.5919C108.569 15.0227 108.553 15.4765 108.533 15.9138C108.523 16.1275 108.516 16.338 108.516 16.5451C108.516 16.6109 108.569 16.6668 108.638 16.6668H112.558C112.804 16.6668 113.008 16.8674 113.008 17.1173V19.5406C113.008 19.7873 112.808 19.9911 112.558 19.9911H108.451C108.385 19.9911 108.329 20.0437 108.329 20.1128V28.057C108.329 29.1882 108.48 30.4146 109.595 30.9375C110.634 31.4241 111.864 31.0394 112.505 30.7698C112.646 30.7106 112.804 30.727 112.929 30.8092C113.054 30.8914 113.13 31.0328 113.13 31.1841V32.8578C113.13 33.4167 112.969 33.8475 112.653 34.1401C112.278 34.4854 111.795 34.5216 111.604 34.5216L111.607 34.5117ZM105.794 12.1028C105.57 12.1028 105.353 12.1587 105.146 12.2738C105.113 12.2935 105.09 12.333 105.09 12.3757V23.9073C105.09 25.3772 105.09 26.847 105.097 28.3201C105.097 28.5272 105.097 28.7344 105.09 28.9448C105.074 29.7932 105.061 30.5955 105.34 31.3715C105.975 33.134 107.264 34.1862 108.793 34.1862H111.535C111.551 34.1862 112.074 34.2256 112.436 33.8902C112.679 33.6634 112.804 33.3148 112.804 32.8545V31.1808C112.804 31.1216 112.768 31.092 112.752 31.0821C112.735 31.0723 112.692 31.0493 112.637 31.0723C111.946 31.3649 110.614 31.7759 109.46 31.2367C108.171 30.6349 108.004 29.221 108.004 28.057V20.1128C108.004 19.8662 108.204 19.6623 108.454 19.6623H112.561C112.627 19.6623 112.683 19.6097 112.683 19.5406V17.1173C112.683 17.0515 112.63 16.9956 112.561 16.9956H108.641C108.395 16.9956 108.191 16.795 108.191 16.5451C108.191 16.3347 108.201 16.1177 108.207 15.9006C108.224 15.4765 108.24 15.0358 108.191 14.6314C108.086 13.76 107.339 12.7144 106.53 12.3001C106.274 12.1686 106.027 12.1061 105.791 12.1061L105.794 12.1028Z" fill="#484C52"/>
<path d="M116.773 13.3227C118.184 13.3227 119.328 12.1788 119.328 10.7677C119.328 9.3567 118.184 8.21283 116.773 8.21283C115.362 8.21283 114.218 9.3567 114.218 10.7677C114.218 12.1788 115.362 13.3227 116.773 13.3227Z" fill="#484C52"/>
<path d="M116.773 13.4904C115.274 13.4904 114.054 12.2705 114.054 10.7711C114.054 9.27167 115.274 8.05176 116.773 8.05176C118.272 8.05176 119.492 9.27167 119.492 10.7711C119.492 12.2705 118.272 13.4904 116.773 13.4904ZM116.773 8.37729C115.455 8.37729 114.383 9.44923 114.383 10.7678C114.383 12.0863 115.455 13.1583 116.773 13.1583C118.092 13.1583 119.164 12.0863 119.164 10.7678C119.164 9.44923 118.092 8.37729 116.773 8.37729Z" fill="#484C52"/>
<path d="M118.128 16.4432H115.566C115.385 16.4432 115.237 16.5904 115.237 16.772V34.0579C115.237 34.2395 115.385 34.3867 115.566 34.3867H118.128C118.309 34.3867 118.457 34.2395 118.457 34.0579V16.772C118.457 16.5904 118.309 16.4432 118.128 16.4432Z" fill="#484C52"/>
<path d="M118.131 34.5511H115.57C115.297 34.5511 115.076 34.3308 115.076 34.0579V16.772C115.076 16.4991 115.297 16.2787 115.57 16.2787H118.131C118.404 16.2787 118.624 16.4991 118.624 16.772V34.0579C118.624 34.3308 118.404 34.5511 118.131 34.5511ZM115.57 16.6076C115.478 16.6076 115.405 16.6799 115.405 16.772V34.0579C115.405 34.15 115.478 34.2223 115.57 34.2223H118.131C118.223 34.2223 118.296 34.15 118.296 34.0579V16.772C118.296 16.6799 118.223 16.6076 118.131 16.6076H115.57Z" fill="#484C52"/>
<path d="M131.774 6.20708H128.259C128.219 6.21037 124.329 6.63454 124.122 11.5273V16.0815H120.729C120.456 16.0815 120.236 16.3018 120.236 16.5747V19.077C120.236 19.3499 120.456 19.5702 120.729 19.5702H124.122V33.8935C124.122 34.1401 124.323 34.344 124.573 34.344H127.019C127.266 34.344 127.47 34.1434 127.47 33.8935V19.5702H131.031C131.304 19.5702 131.524 19.3499 131.524 19.077V16.5747C131.524 16.3018 131.304 16.0815 131.031 16.0815H127.47V13.7732C127.47 13.6548 127.47 13.5298 127.47 13.395C127.453 11.7213 127.43 9.19603 129.456 9.14013H131.777C132.024 9.14013 132.228 8.93955 132.228 8.68965V6.65098C132.228 6.40437 132.027 6.2005 131.777 6.2005L131.774 6.20708Z" fill="#484C52"/>
<path d="M146.768 16.5319L141.776 29.9773L136.387 16.7062C136.344 16.5977 136.239 16.5286 136.124 16.5286H133.158C132.954 16.5286 132.816 16.7358 132.895 16.9232L139.777 33.5581V34.4393C139.777 34.4393 138.603 39.1381 136.9 39.1381H133.895C133.737 39.1381 133.609 39.2664 133.609 39.4242V41.9659C133.609 42.1238 133.737 42.252 133.895 42.252H137.133C137.133 42.252 139.892 42.8406 141.477 38.9638C147.761 22.5427 149.566 18.0872 150.056 16.9265C150.135 16.7391 149.997 16.5319 149.793 16.5319C148.813 16.5319 146.531 16.5319 146.761 16.5319H146.768Z" fill="#484C52"/>
<path d="M137.538 42.4461C137.321 42.4461 137.173 42.423 137.124 42.4132H133.901C133.655 42.4132 133.451 42.2126 133.451 41.9627V39.4209C133.451 39.1743 133.651 38.9705 133.901 38.9705H136.903C138.189 38.9705 139.291 35.702 139.616 34.4163V33.5877L132.744 16.9824C132.688 16.8443 132.701 16.6865 132.786 16.5615C132.872 16.4366 133.01 16.361 133.158 16.361H136.124C136.308 16.361 136.469 16.4695 136.538 16.6405L141.77 29.517L146.613 16.4662L146.751 16.5188V16.361H149.8C149.951 16.361 150.089 16.4366 150.174 16.5615C150.257 16.6865 150.273 16.8443 150.214 16.9824C149.73 18.1267 147.932 22.569 141.638 39.0165C140.796 41.0749 139.616 41.8904 138.774 42.2093C138.278 42.4 137.84 42.4428 137.538 42.4428V42.4461ZM133.901 39.3026C133.835 39.3026 133.78 39.3552 133.78 39.4242V41.966C133.78 42.0317 133.832 42.0876 133.901 42.0876H137.173C137.281 42.1139 139.82 42.594 141.332 38.9014C147.626 22.454 149.428 18.0083 149.911 16.8608C149.934 16.8082 149.911 16.7654 149.901 16.749C149.892 16.7325 149.859 16.6964 149.803 16.6964H146.886L141.786 30.4344L136.239 16.772C136.219 16.7259 136.177 16.6964 136.127 16.6964H133.161C133.102 16.6964 133.073 16.7325 133.063 16.749C133.053 16.7654 133.03 16.8082 133.053 16.8608L139.948 33.5252V34.4788C139.892 34.6761 138.715 39.3026 136.907 39.3026H133.904H133.901Z" fill="#484C52"/>
<path d="M33.8222 36.3169L10.0093 22.9143V30.9802L40.9806 48.4174V48.1017L33.8222 36.2972V36.3169Z" fill="#C20093"/>
<path d="M40.9806 0.663208H7.08612L18.6671 7.81828H33.8223V8.23916L40.9806 1.95546V0.663208Z" fill="#FF0067"/>
<path d="M33.8223 8.23915V36.2971L40.9806 48.1017V1.95544L33.8223 8.23915Z" fill="#E00269"/>
<path d="M7.01707 13.5562L0.25 0.699402V48.5851L7.01707 41.3347V13.5562Z" fill="#602CE4"/>
<path d="M7.01707 12.8952L31.2213 26.8174C31.2213 26.8174 31.4153 18.8139 31.2213 19.0112L0.25 0.531677V0.699374L7.01707 13.5561V12.8919V12.8952Z" fill="#3C45E4"/>
<path d="M7.01707 41.6536V41.3347L0.25 48.5851V48.9402H35.1244L22.7608 41.6536H7.01707Z" fill="#9326D6"/>
</g>
<defs>
<clipPath id="clip0_865_4043">
<rect width="150" height="48.4085" fill="white" transform="translate(0.25 0.531677)"/>
</clipPath>
</defs>
</svg>
