<svg width="151" height="46" viewBox="0 0 151 46" fill="none" xmlns="http://www.w3.org/2000/svg">
<g clip-path="url(#clip0_865_4039)">
<path d="M2.78008 0.940247L6.75598 10.4947H1.69574L3.32225 14.7311H13.6235L2.78008 0.940247Z" fill="#FCDC49"/>
<path d="M16.2439 35.7328L14.5271 31.4964H12.1776L7.29815 19.6886H5.21984L10.0993 31.4964H4.1355L15.1596 45.1971L11.1837 35.7328H16.2439Z" fill="#FCDC49"/>
<path d="M17.5993 18.8773C17.6897 18.8773 18.0511 18.697 18.0511 17.2548C18.0511 15.8126 17.7801 15.6324 17.5993 15.6324H10.5511L11.9066 18.8773H17.5993Z" fill="black"/>
<path fill-rule="evenodd" clip-rule="evenodd" d="M24.0151 15.7226H29.8885C33.0512 15.7226 35.2198 17.1648 35.3102 20.5899C35.3102 24.0151 33.4127 25.4573 30.0692 25.4573H27.9909V30.5048H24.0151V15.7226ZM28.0813 22.5729H28.5331C29.8885 22.5729 31.3343 22.5729 31.244 20.7702C31.244 18.9674 29.9789 18.9674 28.5331 18.9674H28.0813V22.5729Z" fill="black"/>
<path fill-rule="evenodd" clip-rule="evenodd" d="M41.003 15.7226H44.9789L50.5813 30.4148H46.5151L45.5211 27.8909H40.2801L39.2862 30.4148H35.2198L41.003 15.7226ZM42.9006 20.4097L41.3644 25.0967H44.4368L42.9006 20.4097Z" fill="black"/>
<path d="M104.528 24.7362H108.503V21.4913H104.528V18.9674H109.949V15.7226H100.551V30.5048H109.949V26.8994H104.528V24.7362Z" fill="black"/>
<path d="M73.5331 19.6886H69.9187V15.7226H81.0332V19.6886H77.4187V30.5048H73.5331V19.6886Z" fill="black"/>
<path d="M93.3225 21.4913H87.9008V15.7226H83.925V30.5048H87.9008V24.7362H93.3225V30.5048H97.2983V15.7226H93.3225V21.4913Z" fill="black"/>
<path fill-rule="evenodd" clip-rule="evenodd" d="M112.027 23.1138C112.027 19.0576 115.371 15.7226 119.437 15.7226C123.503 15.7226 126.847 19.0576 126.847 23.1138C126.847 27.1698 123.503 30.5048 119.437 30.5048C115.371 30.5048 112.027 27.1698 112.027 23.1138ZM122.871 23.1138C122.871 21.2208 121.334 19.6886 119.437 19.6886C117.539 19.6886 116.003 21.2208 116.003 23.1138C116.003 25.0066 117.539 26.5389 119.437 26.5389C121.334 26.5389 122.871 25.0066 122.871 23.1138Z" fill="black"/>
<path d="M139.858 24.0151L133.443 15.7226H129.738V30.5048H133.714V22.2123L139.768 30.5048H143.834V15.7226H139.858V24.0151Z" fill="black"/>
<path d="M56.6355 15.7226L63.0511 24.0151V15.7226H67.0271V30.5048H62.9608L56.9066 22.2123V30.5048H52.9307V15.7226H56.6355Z" fill="black"/>
<path d="M18.1415 22.7532H13.4428L12.0873 19.5082H18.1415C18.3223 19.5082 18.5933 19.6885 18.5933 21.1307C18.5933 22.5729 18.2319 22.7532 18.1415 22.7532Z" fill="black"/>
<path d="M11.1838 27.26L12.5392 30.5048H17.5994C17.6898 30.5048 18.0512 30.3246 18.0512 28.8824C17.9834 27.8008 17.814 27.429 17.6954 27.3107C17.6559 27.2713 17.622 27.26 17.5994 27.26H11.1838Z" fill="black"/>
<path d="M11.003 26.629L9.64758 23.3841H18.2319C18.3223 23.3841 18.5933 23.5644 18.6838 25.0066C18.6838 26.4488 18.3223 26.629 18.2319 26.629H11.003Z" fill="black"/>
<path d="M5.67164 22.8433L4.13549 18.9674H7.65959L9.28605 22.8433H12.6295L9.64755 15.7226H2.32826C1.78609 15.7226 1.42464 15.7226 1.15356 16.5338C0.882475 17.5253 0.792114 19.4182 0.792114 23.1138C0.792114 26.8093 0.792114 28.7022 1.15356 29.6937C1.42464 30.5048 1.69573 30.5048 2.32826 30.5048H8.74389L5.67164 22.8433Z" fill="black"/>
<path d="M146.183 15.993H146.636V17.4352H147.088V15.993H147.539V15.7226H146.183V15.993Z" fill="black"/>
<path d="M148.082 16.0831L148.533 17.4352H148.894L149.347 16.0831V17.4352H149.707V15.7226H149.166L148.714 17.0746L148.262 15.7226H147.72V17.4352H148.082V16.0831Z" fill="black"/>
</g>
<defs>
<clipPath id="clip0_865_4039">
<rect width="150" height="44.1667" fill="white" transform="translate(0.25 0.940247)"/>
</clipPath>
</defs>
</svg>
