<svg width="151" height="25" viewBox="0 0 151 25" fill="none" xmlns="http://www.w3.org/2000/svg">
<g clip-path="url(#clip0_865_4044)">
<path fill-rule="evenodd" clip-rule="evenodd" d="M51.97 7.04982C51.97 7.96791 51.2801 8.5403 50.1477 8.5403H48.6386V5.50995H50.1324C51.2966 5.50995 51.97 6.03421 51.97 7.01689V7.04982ZM50.3772 2.83923H45.4555V14.3072H48.6386V11.0325H50.2136C53.0682 11.0325 55.1531 9.60656 55.1531 6.90292V6.86873C55.1531 4.31325 53.2825 2.83923 50.3772 2.83923Z" fill="#1F0F7D"/>
<path fill-rule="evenodd" clip-rule="evenodd" d="M63.4044 6.98523C63.4044 7.82102 62.797 8.34402 61.6975 8.34402H59.5974V5.59226H61.6823C62.7475 5.59226 63.4044 6.03548 63.4044 6.95231V6.98523ZM66.6027 6.78895V6.75603C66.6027 5.62518 66.259 4.74001 65.5869 4.08405C64.8146 3.29892 63.6175 2.83923 61.8459 2.83923H56.4144V14.3085H59.5974V10.8349H60.9594H60.9924L63.3055 14.3085H66.9806L64.2414 10.3106C65.6846 9.70407 66.6027 8.55803 66.6027 6.78895Z" fill="#1F0F7D"/>
<path fill-rule="evenodd" clip-rule="evenodd" d="M71.2083 9.78638H76.721V7.28029H71.2083V5.54287H77.2954V2.83923H68.0582V14.3085H77.3766V11.6061H71.2083V9.78638Z" fill="#1F0F7D"/>
<path fill-rule="evenodd" clip-rule="evenodd" d="M84.0744 7.36134C82.4981 7.01689 82.0885 6.75476 82.0885 6.24696V6.21403C82.0885 5.805 82.4651 5.47702 83.2374 5.47702C84.2697 5.47702 85.4034 5.87085 86.4535 6.60786L88.045 4.36264C86.7971 3.3635 85.288 2.83923 83.3186 2.83923C80.5616 2.83923 78.8712 4.36264 78.8712 6.50909V6.54201C78.8712 8.91767 80.7747 9.5901 83.2032 10.146C84.763 10.4905 85.1409 10.7855 85.1409 11.2439V11.2769C85.1409 11.7847 84.6818 12.0633 83.8284 12.0633C82.4981 12.0633 81.2515 11.6048 80.1026 10.6867L78.3322 12.8003C79.7589 14.0628 81.6624 14.701 83.713 14.701C86.5016 14.701 88.3557 13.3081 88.3557 10.9653V10.9324C88.3557 8.78597 86.7147 7.93499 84.0744 7.36134Z" fill="#1F0F7D"/>
<path fill-rule="evenodd" clip-rule="evenodd" d="M94.3483 7.36134C92.7733 7.01689 92.3637 6.75476 92.3637 6.24696V6.21403C92.3637 5.805 92.7403 5.47702 93.5114 5.47702C94.5449 5.47702 95.6774 5.87085 96.7274 6.60786L98.3189 4.36264C97.0723 3.3635 95.562 2.83923 93.5938 2.83923C90.8368 2.83923 89.1464 4.36264 89.1464 6.50909V6.54201C89.1464 8.91767 91.0499 9.5901 93.4784 10.146C95.0369 10.4905 95.4148 10.7855 95.4148 11.2439V11.2769C95.4148 11.7847 94.9558 12.0633 94.1023 12.0633C92.7733 12.0633 91.5254 11.6048 90.3777 10.6867L88.6061 12.8003C90.0341 14.0628 91.9376 14.701 93.9882 14.701C96.7768 14.701 98.6309 13.3081 98.6309 10.9653V10.9324C98.6309 8.78597 96.9899 7.93499 94.3483 7.36134Z" fill="#1F0F7D"/>
<path fill-rule="evenodd" clip-rule="evenodd" d="M100.935 14.3085H102.231V2.83923H100.935V14.3085Z" fill="#1F0F7D"/>
<path fill-rule="evenodd" clip-rule="evenodd" d="M114.475 8.60742C114.475 11.1629 112.621 13.1131 109.718 13.1131H107.027V4.03593H109.718C112.621 4.03593 114.475 6.03548 114.475 8.57449V8.60742ZM109.718 2.83923H105.729V14.3085H109.718C113.327 14.3085 115.821 11.8011 115.821 8.57449V8.54157C115.821 5.31366 113.327 2.83923 109.718 2.83923Z" fill="#1F0F7D"/>
<path fill-rule="evenodd" clip-rule="evenodd" d="M118.743 14.3085H120.038V2.83923H118.743V14.3085Z" fill="#1F0F7D"/>
<path fill-rule="evenodd" clip-rule="evenodd" d="M131.807 9.50778C131.807 12.0151 130.462 13.2929 128.346 13.2929C126.131 13.2929 124.835 11.9164 124.835 9.42674V2.83923H123.538V9.50778C123.538 12.7521 125.475 14.4896 128.314 14.4896C131.185 14.4896 133.103 12.7357 133.103 9.41028V2.83923H131.807V9.50778Z" fill="#1F0F7D"/>
<path fill-rule="evenodd" clip-rule="evenodd" d="M145.548 2.83923L141.363 9.09749L137.179 2.83923H135.866V14.3085H137.13V5.03507L141.314 11.1629H141.38L145.564 5.01861V14.3085H146.86V2.83923H145.548Z" fill="#1F0F7D"/>
<path fill-rule="evenodd" clip-rule="evenodd" d="M29.0573 16.9024C28.8544 16.5364 28.4626 16.287 28.0149 16.287C27.3567 16.287 26.8228 16.8201 26.8228 17.4761C26.8228 18.0484 27.2312 18.5271 27.7714 18.6398L27.7917 20.1316C27.2375 20.2329 26.8152 20.7179 26.8152 21.3004C26.8152 21.3257 26.8178 21.3511 26.819 21.3764L21.7972 22.6668C21.6399 22.2945 21.2988 22.0197 20.8879 21.9526L20.8169 14.5445C21.404 14.471 21.8593 13.9708 21.8593 13.3655C21.8593 13.3516 21.8568 13.3377 21.8568 13.3225L26.7949 12.0549C26.975 12.4816 27.3986 12.783 27.8919 12.783C28.5488 12.783 29.084 12.2486 29.084 11.5926C29.084 10.9379 28.5488 10.4035 27.8919 10.4035C27.5051 10.4035 27.1627 10.5897 26.9446 10.8759L23.6322 9.37528C23.6575 9.27904 23.6715 9.17773 23.6715 9.07389V9.0511C24.7291 8.81556 25.8033 8.55216 26.8317 8.26217C27.0296 8.64714 27.4303 8.9118 27.8919 8.9118C28.5488 8.9118 29.084 8.37867 29.084 7.72271C29.084 7.66572 29.0789 7.61 29.07 7.55428C30.4409 7.06168 31.5987 6.51335 32.338 5.91057C32.4788 5.99035 32.6373 6.0448 32.806 6.06127L32.8428 12.8425C32.2252 12.8868 31.7369 13.401 31.7369 14.0278C31.7369 14.4964 32.0096 14.9003 32.4052 15.0941C31.9234 15.6057 30.938 16.2186 29.0573 16.9024ZM16.8159 4.18582C16.9642 4.15036 17.1113 4.11743 17.2584 4.08451C17.4233 4.54419 17.8634 4.87344 18.3782 4.87344C19.0123 4.87344 19.5297 4.37703 19.5665 3.75273C20.1612 3.71221 20.7268 3.716 21.2557 3.76033C21.9367 3.84897 22.8066 4.06678 23.428 4.31625C23.272 4.51633 23.1769 4.76833 23.1769 5.04186C23.1769 5.24574 23.2289 5.43696 23.3202 5.60412C22.9436 5.76114 22.4503 5.91944 21.839 6.07773C21.4154 6.18917 20.3502 6.44624 19.4967 6.65138C19.3293 6.1955 18.8918 5.86878 18.3782 5.86878C17.9356 5.86878 17.5501 6.11192 17.3447 6.46903L14.3988 5.15583C14.4508 5.0292 14.4812 4.89117 14.4863 4.74554L16.8159 4.18582ZM14.4888 20.0771C14.5408 19.9429 14.57 19.7998 14.57 19.6491C14.57 19.0565 14.1337 18.5664 13.5669 18.4752L13.5618 15.5803C13.8535 15.5132 14.1033 15.3385 14.2694 15.1017L17.247 16.5377C17.209 16.6555 17.1874 16.7796 17.1874 16.91C17.1874 17.5647 17.7226 18.0978 18.3782 18.0978C19.0351 18.0978 19.5703 17.5647 19.5703 16.91C19.5703 16.3212 19.1391 15.8324 18.5761 15.7374L18.5735 13.4225C19.1391 13.3301 19.5703 12.84 19.5703 12.2511C19.5703 11.5964 19.0351 11.062 18.3782 11.062C17.9775 11.062 17.6224 11.2621 17.4056 11.5661L14.4495 10.225C14.4698 10.1364 14.4825 10.0452 14.4825 9.95147C14.4825 9.37148 14.064 8.88647 13.5136 8.78263L13.5111 5.87638C13.7786 5.82826 14.0132 5.69023 14.1857 5.49648L17.2077 6.84387C17.195 6.91351 17.1874 6.98443 17.1874 7.05788C17.1874 7.71384 17.7226 8.24697 18.3782 8.24697C19.0351 8.24697 19.5703 7.71384 19.5703 7.05788C19.5703 7.05281 19.569 7.04775 19.569 7.04268C20.4276 6.83753 21.5093 6.5754 21.9405 6.4627C22.5187 6.312 23.1034 6.13978 23.5764 5.9283C23.7869 6.11572 24.0633 6.23222 24.369 6.23222C25.0246 6.23222 25.5598 5.69783 25.5598 5.04186C25.5598 4.3859 25.0246 3.85277 24.369 3.85277C24.1585 3.85277 23.9581 3.90849 23.7869 4.00473C23.7527 3.98827 23.7235 3.97181 23.688 3.95534L23.6322 3.93002C22.941 3.61596 22.1104 3.42601 21.1783 3.35763C20.9805 3.33357 20.8118 3.31964 20.6939 3.31964V3.3323C20.3185 3.32217 19.9266 3.33104 19.5221 3.3589C19.3801 2.86122 18.9223 2.49525 18.3782 2.49525C17.7226 2.49525 17.1874 3.02965 17.1874 3.68435C17.1874 3.68814 17.1887 3.69068 17.1887 3.69321C17.034 3.7274 16.878 3.76159 16.7208 3.79958L14.433 4.34917C14.2808 3.86923 13.8281 3.51846 13.2967 3.51846C12.6411 3.51846 12.1059 4.05285 12.1059 4.70882C12.1059 5.3002 12.5447 5.7928 13.1129 5.88145L13.1154 8.7763C12.5422 8.86115 12.1009 9.35502 12.1009 9.95147C12.1009 10.6062 12.6348 11.1406 13.2904 11.1406C13.7114 11.1406 14.0805 10.9202 14.2935 10.591L17.2344 11.9244C17.2039 12.0283 17.1874 12.1384 17.1874 12.2511C17.1874 12.8387 17.6161 13.3263 18.1766 13.4212L18.1779 15.7386C17.8773 15.7893 17.6148 15.9539 17.4347 16.1857L14.4381 14.7408C14.466 14.6395 14.4825 14.5344 14.4825 14.4229C14.4825 13.7682 13.9486 13.2351 13.2904 13.2351C12.8973 13.2351 12.5473 13.4276 12.3304 13.7239L10.4561 12.821C10.4878 12.7134 10.5068 12.5994 10.5068 12.4803C10.5068 11.9054 10.0947 11.423 9.55062 11.314L9.51638 9.36642C10.0985 9.28664 10.5474 8.79023 10.5474 8.18999C10.5474 7.53402 10.0122 6.99963 9.35533 6.99963C8.95079 6.99963 8.5919 7.20351 8.37631 7.51376L2.59228 4.8899C2.61764 4.79239 2.63286 4.69109 2.63286 4.58598C2.63286 4.55939 2.63032 4.53406 2.62905 4.50873L8.24316 3.17528C8.41309 3.62483 8.8468 3.94648 9.35533 3.94648C10.0122 3.94648 10.5474 3.41335 10.5474 2.75738C10.5474 2.71053 10.5436 2.66494 10.5385 2.62062L12.7743 2.08749C16.0981 1.2669 18.9603 0.866738 21.5245 0.866738C23.2796 0.866738 25.0741 1.0187 26.7011 1.29476V1.29729C26.7011 1.95199 27.235 2.48639 27.8919 2.48639C28.37 2.48639 28.7821 2.20273 28.9724 1.79497C30.7224 2.28631 32.054 2.94987 32.5726 3.7426C32.0895 3.89456 31.7369 4.34538 31.7369 4.8785C31.7369 5.1723 31.846 5.44203 32.0248 5.65097C31.373 6.15371 30.3331 6.66531 28.9432 7.16678C28.7428 6.79068 28.3472 6.53361 27.8919 6.53361C27.235 6.53361 26.7011 7.06674 26.7011 7.72271C26.7011 7.77463 26.7062 7.82655 26.7125 7.8772C25.769 8.1444 24.7279 8.4078 23.5954 8.6598C23.428 8.20771 22.9918 7.88353 22.4807 7.88353C21.8238 7.88353 21.2899 8.41793 21.2899 9.07389C21.2899 9.72986 21.8238 10.2617 22.4807 10.2617C22.8916 10.2617 23.253 10.0553 23.4686 9.73872L26.7594 11.2279C26.7214 11.3432 26.7011 11.466 26.7011 11.5926C26.7011 11.618 26.7036 11.642 26.7049 11.6661L21.7769 12.9337C21.6019 12.4905 21.172 12.1764 20.6685 12.1764C20.0116 12.1764 19.4764 12.7096 19.4764 13.3655C19.4764 13.9354 19.881 14.4128 20.4187 14.528L20.4897 21.9564C20.1625 22.0146 19.8835 22.2046 19.706 22.4692L14.4888 20.0771ZM2.50477 13.9024C2.34879 13.5973 2.06599 13.3668 1.72486 13.2845L1.65258 5.75481C1.97469 5.69783 2.25241 5.51168 2.42868 5.25208L8.20892 7.87467C8.18102 7.97471 8.16453 8.07981 8.16453 8.18999C8.16453 8.76364 8.57541 9.24358 9.11691 9.35502L9.15242 11.3039C8.57288 11.3837 8.12395 11.8801 8.12395 12.4803C8.12395 12.5069 8.12649 12.5335 8.12776 12.5601L2.50477 13.9024ZM33.241 12.8818L33.2055 6.03341C33.7292 5.90931 34.1198 5.43949 34.1198 4.8785C34.1198 4.2466 33.6239 3.72993 33 3.69321C32.4801 2.72699 31.0204 1.94946 29.0789 1.40113C29.0814 1.36694 29.084 1.33275 29.084 1.29729C29.084 0.641329 28.5488 0.106934 27.8919 0.106934C27.3783 0.106934 26.9395 0.436182 26.7721 0.892065C25.1286 0.616003 23.3177 0.469107 21.5245 0.469107C18.9273 0.469107 16.0334 0.871803 12.6804 1.70126L10.4269 2.23818C10.2329 1.84182 9.82708 1.56829 9.35533 1.56829C8.69843 1.56829 8.16453 2.10142 8.16453 2.75738C8.16453 2.76625 8.1658 2.77511 8.1658 2.78524L2.53775 4.12123C2.3564 3.69574 1.93411 3.39689 1.44333 3.39689C0.78516 3.39689 0.25 3.93002 0.25 4.58598C0.25 5.17736 0.686244 5.6687 1.25438 5.75861L1.32666 13.2541C0.723021 13.3123 0.25 13.8201 0.25 14.4368C0.25 15.0928 0.78516 15.6272 1.44333 15.6272C2.09896 15.6272 2.63286 15.0928 2.63286 14.4368C2.63286 14.3849 2.62905 14.3343 2.62271 14.2836L8.22033 12.9476C8.40295 13.3719 8.82524 13.6694 9.31601 13.6694C9.71168 13.6694 10.0617 13.4744 10.2785 13.1768L12.1516 14.0797C12.1199 14.1886 12.1009 14.3039 12.1009 14.4229C12.1009 15.0358 12.5663 15.5424 13.1636 15.6069L13.1687 18.479C12.6107 18.579 12.1871 19.0653 12.1871 19.6491C12.1871 20.3051 12.721 20.8369 13.3792 20.8369C13.7419 20.8369 14.0652 20.6748 14.2846 20.419L19.5462 22.8352C19.5208 22.9289 19.5081 23.0252 19.5081 23.1265C19.5081 23.7824 20.042 24.3156 20.6989 24.3156C21.3558 24.3156 21.8897 23.7824 21.8897 23.1265C21.8897 23.1024 21.8885 23.0784 21.8859 23.0543L26.9103 21.7639C27.0904 22.1906 27.514 22.4895 28.006 22.4895C28.6629 22.4895 29.1968 21.9564 29.1968 21.3004C29.1968 20.7078 28.7606 20.2152 28.1886 20.1265L28.1709 18.6538C28.7542 18.5765 29.2057 18.0788 29.2057 17.4761C29.2057 17.4077 29.1981 17.3431 29.1879 17.2772C31.0534 16.5998 32.2581 15.9159 32.8263 15.2118C32.8592 15.2144 32.8935 15.2169 32.9277 15.2169C33.5846 15.2169 34.1198 14.6838 34.1198 14.0278C34.1198 13.4808 33.7457 13.0198 33.241 12.8818Z" fill="#1F0F7D"/>
<path fill-rule="evenodd" clip-rule="evenodd" d="M148.535 4.88841C147.958 4.88841 147.51 4.42704 147.51 3.86937V3.86371C147.51 3.30911 147.962 2.83923 148.54 2.83923C149.117 2.83923 149.565 3.30038 149.565 3.85804V3.86371C149.565 4.41854 149.114 4.88841 148.535 4.88841ZM149.471 3.85811C149.471 3.34576 149.071 2.92686 148.54 2.92686C148.007 2.92686 147.604 3.35425 147.604 3.86378V3.86944C147.604 4.38179 148.004 4.80069 148.535 4.80069C149.068 4.80069 149.471 4.3733 149.471 3.86378V3.85811ZM148.864 4.35914L148.56 3.9629H148.554H148.291V4.35914H148.135V3.30894H148.606C148.739 3.30894 148.85 3.35142 148.918 3.41939C148.972 3.46753 149.003 3.5355 149.003 3.62306V3.62872C149.003 3.79864 148.89 3.90059 148.731 3.93741L149.057 4.35914H148.864ZM148.841 3.63167C148.841 3.52122 148.75 3.45042 148.6 3.45042H148.291V3.82401H148.591C148.739 3.82401 148.841 3.75911 148.841 3.63734V3.63167Z" fill="#1F0F7D"/>
</g>
<defs>
<clipPath id="clip0_865_4044">
<rect width="150" height="24.5902" fill="white" transform="translate(0.25 0.106934)"/>
</clipPath>
</defs>
</svg>
