<svg width="151" height="33" viewBox="0 0 151 33" fill="none" xmlns="http://www.w3.org/2000/svg">
<path fill-rule="evenodd" clip-rule="evenodd" d="M15.8534 0.697021L15.9234 0.737241L16.1784 0.888464C16.6668 1.17707 17.1256 1.51305 17.5482 1.89153C18.0775 2.36611 18.5601 2.88896 18.9889 3.45685C19.3098 3.88156 19.6066 4.3288 19.8753 4.79775C20.9073 6.59152 21.5323 8.67085 21.5323 10.6351V15.8025L21.9884 16.1033C22.8196 16.6618 23.5047 17.4116 23.9859 18.2898C24.4671 19.168 24.7305 20.1489 24.7539 21.15V27.5392L23.4636 26.5957L21.5331 25.18L21.5291 25.1791V31.0093C22.7373 30.4774 23.8657 29.78 24.8818 28.9372C26.5407 27.5627 27.8753 25.8384 28.79 23.8878C29.7048 21.9372 30.177 19.8086 30.173 17.6542C30.173 11.3028 26.1487 5.88689 20.5542 3.9073C20.1834 3.30241 19.7659 2.72728 19.305 2.18754C26.2556 3.78826 31.46 10.1163 31.46 17.6534C31.46 24.3635 27.3367 30.1132 21.5291 32.4258C21.107 32.5942 20.6772 32.7429 20.2413 32.8714V16.5369L16.4977 13.8229V30.0875H15.2115V13.8229L11.4647 16.5361V32.8706C11.0608 32.7512 10.662 32.6152 10.2694 32.4628L10.1761 32.425C8.62699 31.8066 7.18751 30.9429 5.91287 29.8671C4.13467 28.368 2.70626 26.4978 1.72796 24.3878C0.749664 22.2778 0.24521 19.9791 0.250034 17.6534C0.250034 10.1163 5.45437 3.78826 12.4066 2.18915C11.9459 2.72884 11.5282 3.30386 11.1574 3.90891C5.56296 5.88769 1.53865 11.3044 1.53865 17.6558C1.53448 19.8371 2.01858 21.9917 2.95545 23.9617C3.89231 25.9316 5.25819 27.6668 6.95293 29.0402C7.93541 29.8359 9.01962 30.497 10.1769 31.0061V25.1808L8.24557 26.5965L6.95776 27.536L6.95535 27.5408V21.1508C6.97607 20.278 7.17897 19.4191 7.55103 18.6292C7.9231 17.8394 8.45612 17.136 9.11591 16.5642C9.30655 16.3993 9.51006 16.2489 9.72161 16.1041L10.1729 15.8033L10.1769 15.7993V10.6359C10.1769 8.67165 10.8027 6.59233 11.8339 4.79856C12.1042 4.3296 12.4002 3.88156 12.7219 3.45766C13.1503 2.89064 13.6325 2.36642 14.1618 1.89233C14.5849 1.51427 15.0434 1.17804 15.5316 0.888464L15.7834 0.739654L15.8534 0.697826V0.697021ZM10.1761 17.3799C9.99312 17.5206 9.82103 17.675 9.66128 17.8416C8.74774 18.7688 8.23796 20.0197 8.24316 21.3213V24.9169H8.24477V24.9813L10.1761 23.5664V17.3799ZM21.5323 17.3799V23.5664L23.4636 24.9813V24.9764H23.466V21.3221C23.4717 20.0203 22.9622 18.7691 22.0487 17.8416C21.8884 17.6752 21.7158 17.5203 21.5323 17.3799ZM16.4977 2.70797V12.1611L20.2413 14.8686V10.6351C20.2413 8.49951 19.3645 6.15072 18.0236 4.34569C17.7099 3.91937 17.3624 3.51959 16.9844 3.14958C16.8282 2.99616 16.6661 2.84885 16.4985 2.70797H16.4977ZM15.2123 2.70636C15.045 2.84552 14.8825 2.99192 14.7232 3.14958C14.3452 3.51959 13.9969 3.92017 13.6824 4.34569C12.3415 6.15072 11.4655 8.49951 11.4655 10.6359V14.8686L15.2123 12.1611V2.70636Z" fill="#24A7CA"/>
<path d="M45.6428 24.1849V19.9434H48.8965C49.1298 19.9434 49.3011 19.9354 49.4113 19.9217L51.9025 24.1849H55.0541L51.8824 19.4069C52.8155 19.0095 53.5265 18.4119 54.014 17.6163C54.5006 16.82 54.7444 15.8588 54.7444 14.7334C54.7444 13.1544 54.236 11.9326 53.2209 11.0671C52.2049 10.2032 50.7635 9.77122 48.8965 9.77122H42.8838V24.1849H45.6428ZM48.8957 17.5142H45.642V12.1803H48.8957C49.939 12.1803 50.7353 12.3999 51.2847 12.8399C51.8333 13.2783 52.1076 13.9379 52.1076 14.8163C52.1076 15.7084 51.8333 16.3816 51.2839 16.8337C50.7353 17.2874 49.939 17.5142 48.8957 17.5142ZM62.4865 24.2887C63.6263 24.2887 64.6318 24.0554 65.503 23.5889C66.3583 23.1385 67.0663 22.452 67.5429 21.6109C68.0303 20.7599 68.2732 19.7785 68.2732 18.6661C68.2732 17.5681 68.0303 16.5964 67.5429 15.7518C67.0641 14.9161 66.357 14.2341 65.5046 13.7859C64.6326 13.3193 63.6271 13.0861 62.4873 13.0861C61.3347 13.0861 60.3179 13.3193 59.4395 13.7859C58.5828 14.2319 57.8718 14.9141 57.3908 15.7518C56.9033 16.5964 56.6596 17.5681 56.6596 18.6661C56.6596 19.7785 56.9033 20.7599 57.3908 21.6101C57.8691 22.4527 58.5805 23.1392 59.4395 23.5873C60.3179 24.0538 61.3339 24.2879 62.4873 24.2879L62.4865 24.2887ZM62.4865 22.0445C61.5535 22.0445 60.7973 21.7356 60.2214 21.1178C59.6447 20.5001 59.3567 19.6965 59.3567 18.7079C59.3567 17.7201 59.6447 16.9165 60.2214 16.2988C60.7981 15.681 61.5526 15.3721 62.4865 15.3721C63.3931 15.3721 64.1339 15.681 64.7114 16.2988C65.2866 16.9165 65.5753 17.7201 65.5753 18.7071C65.5753 19.6965 65.2866 20.5001 64.7106 21.1178C64.1339 21.7356 63.3931 22.0445 62.4865 22.0445ZM75.1507 24.2887C76.2213 24.2887 77.1616 24.0964 77.9717 23.7119C78.7587 23.3466 79.4339 22.7779 79.9279 22.0646L78.2596 20.6851C77.6016 21.5498 76.6122 21.9817 75.2947 21.9817C74.4026 21.9817 73.6779 21.6801 73.1229 21.076C72.5662 20.4727 72.2879 19.6764 72.2879 18.687C72.2879 17.7265 72.5662 16.9439 73.1229 16.3398C73.6779 15.7365 74.4026 15.4341 75.2947 15.4341C76.4755 15.4341 77.4367 15.8387 78.1776 16.6487L79.8048 15.1043C79.3101 14.4592 78.6682 13.962 77.8792 13.6105C77.0901 13.2614 76.194 13.0869 75.1925 13.0869C74.0937 13.0869 73.1228 13.3202 72.2782 13.7867C71.444 14.2432 70.7579 14.929 70.3011 15.7631C69.8281 16.6149 69.5908 17.5962 69.5908 18.7079C69.5908 19.8067 69.8241 20.7776 70.2906 21.6214C70.7437 22.4524 71.4265 23.1355 72.2573 23.5889C73.1019 24.0554 74.0672 24.2887 75.1507 24.2887ZM84.9939 24.1857V21.1371L86.6823 19.3675L89.6681 24.1857H92.8599L88.5356 17.4313L92.613 13.1898H89.5242L84.9939 17.7603V8.90491H82.3169V24.1849L84.9939 24.1857ZM98.7906 24.2887C99.751 24.2887 100.627 24.1238 101.416 23.7948C102.181 23.4825 102.867 23.0039 103.424 22.3936L101.982 20.891C101.601 21.2867 101.142 21.5987 100.633 21.8072C100.121 22.0195 99.5719 22.128 99.0175 22.1265C98.2066 22.1265 97.5237 21.9037 96.9679 21.4573C96.4121 21.0108 96.0445 20.3971 95.8659 19.6136H104C104.014 19.4359 104.021 19.168 104.021 18.8109C104.021 16.9994 103.578 15.5917 102.693 14.5895C101.807 13.5872 100.486 13.0869 98.7287 13.0869C97.6444 13.0869 96.6759 13.3234 95.8257 13.7963C94.9877 14.2565 94.2982 14.946 93.838 15.784C93.3643 16.6358 93.1278 17.6099 93.1278 18.7071C93.1278 19.8067 93.3611 20.7776 93.8276 21.6214C94.2846 22.4564 94.975 23.1401 95.8144 23.5889C96.6727 24.0554 97.6645 24.2887 98.7906 24.2887ZM101.571 17.8231H95.8048C95.9286 16.9994 96.2544 16.3503 96.7829 15.8765C97.3106 15.4035 97.9669 15.1662 98.7488 15.1662C99.587 15.1662 100.259 15.4067 100.768 15.8869C101.275 16.3671 101.543 17.0131 101.571 17.8231ZM110.013 24.3096C110.974 24.3096 111.894 24.0409 112.772 23.5052L112.155 21.4878C111.523 21.7903 111.001 21.9415 110.589 21.9415C110.206 21.9415 109.917 21.8345 109.725 21.6214C109.532 21.409 109.437 21.0486 109.437 20.5411V15.578H112.587V13.6218H109.437V10.5949H106.78V13.6218H105.215L105.235 15.578H106.78V21.0149C106.78 22.0992 107.082 22.9196 107.686 23.4747C108.29 24.0313 109.066 24.3096 110.013 24.3096ZM115.202 24.3498C115.463 24.3498 115.683 24.2581 115.861 24.0723C116.04 23.8873 116.129 23.6637 116.129 23.4031C116.129 23.1424 116.04 22.9228 115.861 22.7435C115.776 22.6561 115.673 22.5872 115.56 22.5413C115.446 22.4953 115.325 22.4733 115.202 22.4764C114.942 22.4764 114.725 22.5649 114.554 22.7443C114.47 22.8315 114.403 22.9347 114.359 23.0478C114.315 23.1609 114.293 23.2816 114.296 23.4031C114.296 23.6774 114.382 23.9042 114.553 24.0828C114.725 24.2613 114.942 24.3498 115.202 24.3498ZM120.597 24.1857V18.3781C120.693 17.2391 121.074 16.3334 121.74 15.6609C122.406 14.9876 123.295 14.6442 124.407 14.6313C125.409 14.6313 126.192 14.9193 126.754 15.4952C127.317 16.0727 127.599 16.8683 127.599 17.8842V24.1857H128.999V17.5536C128.999 16.2505 128.632 15.2241 127.898 14.476C127.163 13.728 126.151 13.3539 124.86 13.3539C123.83 13.3668 122.956 13.5872 122.235 14.0127C121.514 14.439 120.968 15.0697 120.597 15.9062V13.3958H119.218V24.1849L120.597 24.1857ZM136.927 24.2259C137.805 24.2259 138.612 24.0723 139.347 23.7634C140.062 23.4684 140.704 23.0225 141.231 22.4563L140.448 21.6728C140.02 22.1274 139.501 22.4855 138.924 22.7234C138.317 22.9738 137.666 23.0999 137.01 23.0942C135.897 23.0942 134.964 22.7403 134.209 22.0332C133.454 21.327 133.028 20.3971 132.932 19.2436H141.931C141.999 17.445 141.595 16.014 140.717 14.9498C139.837 13.8864 138.561 13.3539 136.886 13.3539C135.87 13.3539 134.957 13.584 134.147 14.0441C133.343 14.4979 132.683 15.1685 132.242 15.9794C131.782 16.8104 131.553 17.7467 131.553 18.7899C131.553 19.8477 131.782 20.788 132.242 21.6117C132.685 22.4186 133.345 23.0855 134.147 23.5374C134.957 23.9959 135.884 24.2267 136.927 24.2267V24.2259ZM140.696 18.1722H132.932C133.042 17.0597 133.461 16.1685 134.188 15.4952C134.916 14.8227 135.822 14.4865 136.907 14.4865C138.005 14.4865 138.894 14.8195 139.573 15.4855C140.253 16.1516 140.627 17.046 140.696 18.1722ZM147.861 24.2469C148.713 24.2195 149.508 23.9525 150.25 23.4441L149.838 22.3936C149.193 22.7781 148.596 22.9711 148.046 22.9711C147.058 22.9711 146.564 22.3051 146.564 20.973V14.7745H150.065V13.6837L146.564 13.7046V10.9231H145.185V13.703H143.62L143.64 14.7729H145.184V21.1991C145.184 22.2142 145.425 22.9759 145.905 23.4843C146.386 23.9919 147.037 24.2461 147.861 24.2461V24.2469Z" fill="#040F16"/>
</svg>
