<svg width="151" height="32" viewBox="0 0 151 32" fill="none" xmlns="http://www.w3.org/2000/svg">
<g clip-path="url(#clip0_865_4040)">
<path fill-rule="evenodd" clip-rule="evenodd" d="M33.2489 6.57795C30.9753 2.79488 25.8798 4.95948 26.9689 9.32642C28.4297 15.1855 35.5645 16.5891 38.1934 21.813C39.6368 24.6815 38.7327 27.5494 36.5236 28.8084C34.2578 30.0993 30.4286 30.6103 28.0764 28.8849C26.8971 28.0201 26.9952 27.3676 26.373 28.9944C26.1728 29.5185 25.84 30.0951 25.1917 29.5416C24.1707 28.6742 24.1917 25.9215 25.9118 24.7501C27.0083 24.1652 27.752 24.4739 28.7672 25.4781C31.2305 27.5028 34.3668 26.9011 35.1787 25.225C35.7028 24.1469 35.1745 22.4608 34.1273 21.2841C32.6121 19.5818 30.2237 18.1148 28.2572 15.8181C25.6639 12.7893 23.6864 9.39927 24.9794 6.0596C26.1042 3.15338 29.3359 0.477238 33.1504 2.40756C35.4041 3.54804 37.6054 6.1529 36.3428 8.73784C35.4733 10.5198 32.7819 11.0932 31.5382 9.24833C30.7882 8.13563 33.8799 7.60679 33.2505 6.57795H33.2489Z" fill="#333230"/>
<path fill-rule="evenodd" clip-rule="evenodd" d="M43.2071 12.6776C43.3119 15.9009 39.6499 15.6509 39.5514 12.557C39.5323 12.3155 39.5679 12.0728 39.6553 11.8469C39.7428 11.6209 39.88 11.4176 40.0567 11.2518C40.2334 11.0861 40.4451 10.9622 40.6762 10.8894C40.9073 10.8166 41.1518 10.7967 41.3916 10.8311C41.8264 10.8893 42.2329 11.0792 42.5567 11.3752C42.7493 11.5354 42.9066 11.7339 43.0186 11.9581C43.1305 12.1823 43.1947 12.4273 43.2071 12.6776Z" fill="#333230"/>
<path fill-rule="evenodd" clip-rule="evenodd" d="M39.8318 19.8753C39.7794 19.9078 39.727 19.9388 39.6745 19.9671C38.12 20.8345 38.5881 19.0635 39.4251 18.0205C40.2694 16.9675 40.9785 16.5755 41.6347 16.6667C41.8984 16.6829 42.1502 16.7817 42.3545 16.9491C42.5588 17.1164 42.7053 17.3438 42.7731 17.5991C43.1961 19.6432 40.8942 25.3749 43.3287 26.8859C43.5485 27.0309 43.8148 27.0878 44.0747 27.0454C44.3346 27.0029 44.5689 26.8642 44.7312 26.6569C45.1888 26.1244 45.2511 25.2533 45.8235 25.0798C46.0808 25.0022 46.2952 25.1118 46.3885 25.7952C46.5588 27.8519 45.6416 30.7927 42.8392 29.7848C40.3449 28.6501 40.4534 23.8822 40.4628 21.2674C40.4628 21.0897 40.3968 19.5257 39.8297 19.8753H39.8318Z" fill="#333230"/>
<path d="M57.8855 16.3344C57.8096 16.08 57.652 15.8576 57.4372 15.7016C57.2224 15.5456 56.9622 15.4646 56.6968 15.4711C55.3226 15.5796 55.0548 15.5236 53.7696 15.6022C52.4845 15.6808 51.3854 15.7337 50.4703 15.7673C50.6492 14.1949 50.8283 12.6226 51.0075 11.0502C51.5044 6.47992 51.5266 3.66717 51.0741 2.61194C50.7324 1.81214 50.185 1.49959 49.432 1.6743C48.2596 1.89128 47.9808 3.91437 47.8518 7.71736C47.8436 10.5402 47.9809 13.3616 48.2633 16.1703C47.9829 16.239 47.1286 16.4848 46.5667 16.6536C46.1016 16.7807 45.6516 16.9577 45.2244 17.1813C45.1228 17.2415 45.0413 17.3304 44.9903 17.4368C44.9393 17.5433 44.921 17.6625 44.9377 17.7794C44.9531 18.145 45.0407 18.5039 45.1956 18.8354C45.6477 19.8921 46.3483 21.4971 47.2973 23.6505C48.2463 25.8039 48.8852 27.2664 49.214 28.0379C49.7884 29.3789 50.5332 30.0327 51.4483 29.9991C52.1852 29.9719 52.625 29.8688 52.7675 29.6899C52.9101 29.511 52.8351 29.0788 52.5427 28.3932C51.7639 26.6051 51.2192 24.7238 50.9221 22.7962C50.7573 21.3372 50.6789 19.8697 50.6873 18.4015C53.5526 17.7427 55.5186 17.9188 57.1649 17.4817L57.2503 17.4513C57.8855 17.0519 57.5344 17.2584 57.7545 17.0189C57.8547 16.9394 57.923 16.8265 57.947 16.7009C57.9711 16.5753 57.9493 16.4452 57.8855 16.3344ZM49.2449 25.2627L49.1621 25.3675L49.0306 25.3733C49.0306 25.3733 48.9698 25.2533 48.7973 24.8969C48.6249 24.5405 47.9834 22.2495 47.9483 22.2102C47.9132 22.1709 47.3466 20.0535 47.2811 19.8307C47.2395 19.7116 47.233 19.583 47.2622 19.4602C47.3132 19.3466 47.3871 19.2447 47.4792 19.1609C47.6994 19.0308 47.9352 18.929 48.181 18.858L48.2916 18.8522L48.3885 19.033L48.4551 19.4843L48.6212 20.6096L49.1296 23.8444L49.301 25.0735L49.2449 25.2627Z" fill="#333230"/>
<path fill-rule="evenodd" clip-rule="evenodd" d="M67.8982 26.3733C66.1236 28.5914 63.623 30.6066 60.7991 29.8094C59.1916 29.2376 58.1476 27.6605 57.6271 25.736C57.1437 23.8466 57.1067 21.8706 57.5192 19.9644C58.157 17.043 59.9222 14.642 61.9852 14.6184C65.8636 15.0057 67.8437 19.293 65.8678 22.3172C64.7672 23.9996 62.4873 24.8565 61.3814 25.3864C60.9621 25.5871 60.6319 25.6799 60.6885 26.498C60.8216 28.4619 64.1477 28.4305 66.241 24.1012C66.4339 23.7029 67.7426 21.9843 68.5958 22.5001C70.3846 23.5818 68.1173 26.1013 67.8982 26.3743V26.3733ZM59.764 23.6772C62.0926 22.9325 63.9999 20.9183 64.1739 19.8166C64.502 17.7348 61.3148 15.946 60.1382 19.359C59.8384 20.2291 59.7561 22.1494 59.764 23.6772Z" fill="#333230"/>
<path fill-rule="evenodd" clip-rule="evenodd" d="M83.5284 18.718C83.3586 20.4675 86.0043 29.5148 84.1012 29.672C82.9796 29.7638 82.2904 29.8817 81.9959 29.2774C81.7165 28.7009 82.8198 24.0456 81.9141 25.4581C81.7045 25.782 81.7459 25.8083 81.4115 26.4084C78.293 31.985 74.0639 30.5022 71.6047 25.9665C69.9478 22.696 69.2891 19.0104 69.7106 15.3684C70.382 8.89816 73.1587 0.415856 79.6887 1.80896C84.8193 2.90384 81.2862 9.76295 79.4932 8.00978C75.2552 -1.27547 66.8038 21.1504 76.1546 26.5698C78.8554 28.1348 81.1636 23.0336 80.6096 20.7883C80.2217 19.2112 80.1305 19.1562 79.3465 19.3915C78.7374 19.5749 76.6488 21.3648 76.0655 20.8239C75.3349 20.1462 74.9402 17.48 76.4046 17.4025C78.0985 17.3144 79.0587 17.8642 81.0603 15.4465C82.879 13.2488 84.3623 13.905 84.0478 16.2851C83.9105 17.3265 83.6044 17.9203 83.5268 18.7201L83.5284 18.718Z" fill="#333230"/>
<path fill-rule="evenodd" clip-rule="evenodd" d="M95.5459 15.3941C94.0037 14.278 92.1249 13.7255 90.224 13.8291C87.377 14.1242 84.7443 16.0393 85.0148 19.0315C85.1301 20.3087 85.259 25.7622 85.7454 28.0038C85.7957 28.3828 85.9494 28.7406 86.1899 29.0379C86.4303 29.3352 86.748 29.5604 87.1081 29.6889C87.4777 29.8138 87.8801 29.8003 88.2405 29.6508C88.6009 29.5012 88.8947 29.2259 89.0673 28.876C89.5353 27.7805 89.019 26.7648 88.7528 25.8361C88.2714 23.8185 87.9581 21.7644 87.8162 19.695C87.5017 16.3543 92.5652 15.8967 93.7607 17.8407C92.9012 19.1698 94.1465 20.0053 95.7047 18.7982C97.1114 17.7081 96.5474 16.1687 95.5474 15.3957L95.5459 15.3941Z" fill="#333230"/>
<path fill-rule="evenodd" clip-rule="evenodd" d="M102.463 29.9823C109.471 28.8004 112.166 17.9035 103.474 14.186C94.4311 11.2567 93.9646 31.7638 102.463 29.9823ZM99.2828 21.1945C100.104 12.6341 105.736 16.6163 106.463 22.1939C107.184 27.7213 98.0774 31.0326 99.2828 21.1945Z" fill="#333230"/>
<path fill-rule="evenodd" clip-rule="evenodd" d="M112.573 18.7909C111.491 21.2222 111.917 30.975 116.946 26.3544C118.043 25.3465 118.182 22.109 117.772 19.3396C117.676 18.7007 117.137 16.7562 116.956 16.1703C116.725 15.4234 117.346 14.3799 118.291 14.0612C118.676 13.9528 119.088 13.9901 119.447 14.1659C119.806 14.3417 120.087 14.6437 120.238 15.0141C120.762 16.2631 120.417 18.3103 120.36 19.1483C120.194 21.6478 119.784 24.7239 120.675 26.3408C121.054 27.0316 121.579 27.1013 121.598 27.6159C121.664 29.4561 119.475 30.6349 118.643 29.4928C118.42 29.1883 118.604 28.6851 118.266 28.4592C114.131 32.1716 109.577 29.2606 109.647 23.9435C109.662 22.781 109.5 20.8842 109.921 19.239C110.248 17.9586 110.456 16.739 111.126 16.0461C112.003 15.4129 112.455 15.7934 112.734 16.002C113.349 16.4633 112.887 17.9172 112.573 18.7909Z" fill="#333230"/>
<path fill-rule="evenodd" clip-rule="evenodd" d="M131.062 27.0829C131.799 24.5755 132.662 20.4827 132.11 18.968C131.284 16.6986 128.137 15.8663 126.584 18.1886C125.631 19.6132 125.606 24.7123 126.818 27.6961C127.108 28.4094 126.57 29.4042 125.651 29.7077C122.191 30.8528 124.88 21.2647 122.86 18.2012C122.425 17.5424 121.895 17.4769 121.836 16.9847C121.622 15.2289 123.718 14.1021 124.64 15.1938C124.886 15.4852 124.741 15.9643 125.097 16.1807C128.934 12.6382 134.646 15.3007 134.997 20.3737C135.028 23.0186 134.57 25.6466 133.647 28.1253C133.431 28.6993 133.119 29.2324 132.724 29.7019C132.511 29.9095 132.228 30.0291 131.93 30.0366C131.633 30.0442 131.344 29.9393 131.121 29.7428C130.471 29.303 130.816 27.9167 131.061 27.0824L131.062 27.0829Z" fill="#333230"/>
<path fill-rule="evenodd" clip-rule="evenodd" d="M146.305 15.9235C146.631 13.1755 145.48 5.18956 143.37 4.9883C142.802 4.93588 142.668 3.54907 143.055 2.72726C143.443 1.90544 144.355 1.64496 145.876 2.27285C148.311 3.27915 148.496 12.4281 148.546 15.1845C148.592 17.8333 148.463 21.118 148.869 23.6275C148.997 24.4309 149.229 25.2142 149.56 25.9577C150.003 26.9629 150.445 27.6595 150.16 28.2287C149.541 29.4603 147.656 29.9425 147.015 29.3346C146.571 28.9116 146.374 28.148 146.261 27.2517C142.624 33.0427 136.85 28.4865 136.034 22.9173C135.248 17.544 140.14 11.307 146.307 15.9235H146.305ZM140.62 26.5913C145.186 29.899 146.627 21.3282 144.352 18.1531C141.562 14.261 134.499 21.8166 140.62 26.5913Z" fill="#333230"/>
<path fill-rule="evenodd" clip-rule="evenodd" d="M7.1767 24.6359C3.6059 23.4681 1.05817 19.999 0.433421 16.3637C-1.2904 6.32952 9.38847 -2.72407 20.0537 2.30326C20.18 4.55696 19.1334 7.76402 16.2612 8.72787C30.5172 17.728 18.3288 36.1648 3.38891 30.1024C0.663508 28.7124 2.11846 26.1715 5.03254 27.6432C8.28678 28.7654 12.5154 28.7654 15.18 27.2942C16.919 26.3789 18.4079 25.0522 19.517 23.4299C19.9142 22.8265 20.2584 22.19 20.5459 21.5273C20.7718 20.9953 21.4998 18.8019 20.9348 18.5624C20.7932 18.5032 20.7188 18.6709 20.68 18.8281C20.3139 20.2571 19.6133 21.5786 18.636 22.6835C17.4582 24.0567 15.9398 25.0958 14.2334 25.6967C12.1029 26.4729 9.63376 26.5709 6.23853 25.8282C6.46285 25.5856 6.91255 24.9105 7.17356 24.6359H7.1767ZM17.0186 3.20473C17.0744 3.53307 17.1066 3.86499 17.115 4.19793C17.174 4.92786 17.0624 5.66151 16.789 6.34084C16.5155 7.02018 16.0878 7.62657 15.5395 8.11204C15.3 8.35208 15.0274 8.60156 14.7245 8.86048C18.7508 11.3637 20.8535 16.8381 18.5165 20.6641C15.3624 25.8193 9.11174 24.6474 5.69765 21.1175C2.12265 17.4224 2.59645 12.6415 5.16409 9.0979C6.55186 7.26806 8.34402 5.78398 10.4005 4.76165C12.457 3.73933 14.722 3.20647 17.0186 3.20473Z" fill="#96CB4C"/>
<path fill-rule="evenodd" clip-rule="evenodd" d="M4.88426 14.522C5.65051 6.86988 14.4536 5.35518 17.7251 15.5529C20.3651 26.0352 3.66883 23.7538 4.88426 14.522ZM12.0646 19.5535C19.0165 19.8072 15.6852 12.6975 11.1212 11.1262C6.59759 9.56908 4.08236 19.553 12.0646 19.5535Z" fill="#333230"/>
</g>
<defs>
<clipPath id="clip0_865_4040">
<rect width="150" height="30.4307" fill="white" transform="translate(0.25 0.871338)"/>
</clipPath>
</defs>
</svg>
