<svg width="151" height="44" viewBox="0 0 151 44" fill="none" xmlns="http://www.w3.org/2000/svg">
<g clip-path="url(#clip0_865_4051)">
<mask id="mask0_865_4051" style="mask-type:luminance" maskUnits="userSpaceOnUse" x="0" y="0" width="151" height="44">
<path d="M150.25 0.302002H0.25V43.1591H150.25V0.302002Z" fill="white"/>
</mask>
<g mask="url(#mask0_865_4051)">
<path d="M0.875482 0.843192C2.40215 3.01914 5.68501 7.88938 7.21191 10.0653C10.2997 14.4634 13.3838 18.8615 16.4643 23.2596C18.8749 26.6906 21.2817 30.1215 23.6845 33.5525C23.96 33.9439 24.2355 34.3353 24.4995 34.7153C24.5311 34.7598 24.5656 34.8021 24.6029 34.842C24.7735 35.0941 24.9967 35.3062 25.2571 35.4637C25.7133 35.7378 26.2582 35.8239 26.7766 35.7035C27.295 35.5832 27.7463 35.266 28.035 34.8189C28.0695 34.7844 28.0924 34.7384 28.1269 34.7037C30.239 31.7332 32.3549 28.7589 34.4748 25.7808C34.6834 25.4761 34.7916 25.1138 34.7843 24.7446C34.8141 24.3548 34.7044 23.9671 34.4748 23.6508C32.5233 20.9567 30.5719 18.2587 28.6205 15.557C25.9571 11.8845 23.2978 8.20795 20.6424 4.52748H28.1381C30.5716 7.6016 33.009 10.6718 35.4502 13.7382C36.1964 14.6822 36.9426 15.6149 37.6883 16.5589C37.724 16.6139 37.7664 16.6642 37.8145 16.7087C37.8383 16.7432 37.8605 16.7663 37.8833 16.8008C38.0576 17.0059 38.2765 17.1685 38.5231 17.2763C38.7698 17.384 39.0378 17.434 39.3067 17.4225C39.4812 17.4222 39.6549 17.399 39.8233 17.3534C40.2113 17.266 40.5684 17.0751 40.8564 16.8008C40.9795 16.6758 41.0874 16.5366 41.1779 16.3863L41.1893 16.3749L48.5019 6.11629C49.121 5.25272 49.7302 4.38938 50.35 3.52581C50.5096 3.28614 50.6114 3.01266 50.6473 2.72694C50.6831 2.44122 50.6521 2.15107 50.5567 1.87938C50.4364 1.43083 50.1727 1.03392 49.8059 0.749142C49.439 0.464363 48.9891 0.307339 48.5248 0.302002L36.8162 0.302002L39.3417 4.51629H44.4845C42.7857 6.89962 41.0981 9.27129 39.3993 11.6546C39.3533 11.7122 39.3191 11.7699 39.2731 11.8272C37.2069 9.22518 35.1445 6.627 33.086 4.03272C32.3971 3.16914 31.7086 2.29462 31.0198 1.43057C30.8771 1.16712 30.6817 0.935879 30.4457 0.751288C30.3258 0.649096 30.19 0.567293 30.0436 0.509145C29.7711 0.379526 29.473 0.312648 29.1712 0.313431H16.5671C16.0625 0.31869 15.5763 0.503505 15.1956 0.834749C14.8148 1.16599 14.5645 1.62201 14.4895 2.12105C14.432 2.36058 14.4258 2.60957 14.4713 2.85167C14.5168 3.09377 14.613 3.32351 14.7536 3.52581C16.705 6.21994 18.6562 8.91787 20.6071 11.6196C23.5457 15.6831 26.4844 19.7435 29.4231 23.8008C29.6412 24.1118 29.8707 24.411 30.0898 24.722C28.8385 26.4839 27.5873 28.2416 26.3362 29.9951C25.4064 28.6825 24.4881 27.3584 23.5583 26.046C20.4702 21.6478 17.3861 17.2496 14.306 12.8515C12.0679 9.65081 8.06143 3.76748 5.81143 0.565811H0.726196C0.763969 0.66424 0.814135 0.757452 0.875482 0.843192Z" fill="#1D4682"/>
<path fill-rule="evenodd" clip-rule="evenodd" d="M65.0014 26.5518H48.2033C48.356 28.6388 49.1576 30.325 50.6081 31.6104C52.0586 32.8958 53.8911 33.5386 56.1057 33.539C57.2847 33.5524 58.4541 33.3251 59.5421 32.8709C60.5823 32.428 61.5089 31.7558 62.2529 30.9047L63.78 32.6609C62.882 33.7351 61.7353 34.5738 60.4395 35.1042C59.0407 35.6763 57.5412 35.9619 56.03 35.9442C54.1212 35.9815 52.2347 35.5279 50.5514 34.627C48.9948 33.7824 47.7053 32.5193 46.8288 30.9804C45.924 29.3738 45.4628 27.5554 45.4926 25.7118C45.4622 23.8749 45.9025 22.0608 46.7717 20.4423C47.5842 18.9318 48.8001 17.6766 50.2841 16.8166C51.8107 15.9412 53.5449 15.4928 55.3045 15.5185C57.0585 15.4911 58.7871 15.9397 60.3064 16.8166C61.7759 17.6748 62.9785 18.9237 63.7807 20.4244C64.6419 22.0517 65.0754 23.8712 65.0405 25.712L65.0014 26.5518ZM55.3043 17.847C53.37 17.847 51.7475 18.4643 50.4367 19.6987C49.1259 20.9332 48.3814 22.543 48.2033 24.5282H62.4436C62.2655 22.543 61.521 20.9332 60.2102 19.6987C58.8994 18.4643 57.2641 17.847 55.3043 17.847ZM73.1714 19.6032C73.7623 18.303 74.7608 17.2308 76.0157 16.549C77.2756 15.8618 78.8345 15.5182 80.6924 15.5182V18.1528L80.0433 18.1147C77.9308 18.1147 76.2764 18.7637 75.0802 20.0618C73.8841 21.3599 73.286 23.1797 73.286 25.5213V35.7518H70.5755V15.6711H73.1707L73.1714 19.6032ZM95.9255 15.5185C97.7127 15.4943 99.4756 15.9351 101.041 16.7975C102.555 17.6364 103.799 18.8875 104.63 20.4054C105.514 22.0324 105.961 23.8607 105.928 25.712C105.964 27.5758 105.517 29.4172 104.63 31.0568C103.803 32.5709 102.566 33.8213 101.06 34.6647C99.4897 35.5317 97.7194 35.9726 95.9255 35.9437C94.3956 35.9667 92.8828 35.6196 91.516 34.932C90.1967 34.2499 89.0831 33.2285 88.2898 31.973V43.159H85.5793V15.6711H88.1745V19.6416C88.9547 18.3508 90.0699 17.2954 91.4017 16.5875C92.7972 15.8605 94.3521 15.4931 95.9255 15.5185ZM95.735 33.5375C97.071 33.5539 98.3878 33.2181 99.5529 32.564C100.696 31.9171 101.629 30.9567 102.243 29.7961C102.907 28.5384 103.242 27.1331 103.217 25.7111C103.244 24.295 102.909 22.8955 102.243 21.6451C101.622 20.4899 100.69 19.5312 99.5529 18.8773C98.3823 18.2263 97.065 17.8847 95.7256 17.8847C94.3862 17.8847 93.0689 18.2263 91.8983 18.8773C90.7691 19.5355 89.8442 20.4935 89.226 21.6451C88.5605 22.8955 88.2254 24.295 88.2524 25.7111C88.2271 27.1331 88.562 28.5384 89.226 29.7961C89.8369 30.953 90.7636 31.9128 91.8983 32.564C93.0684 33.2227 94.3924 33.5587 95.735 33.5375ZM128.949 26.5518H112.151C112.304 28.6388 113.105 30.325 114.556 31.6104C116.006 32.8958 117.839 33.5386 120.053 33.539C121.232 33.5524 122.402 33.3251 123.49 32.8709C124.53 32.428 125.456 31.7558 126.2 30.9047L127.727 32.6609C126.829 33.7351 125.683 34.5738 124.387 35.1042C122.988 35.6763 121.489 35.9619 119.977 35.9442C118.069 35.9815 116.182 35.5279 114.499 34.627C112.942 33.7824 111.653 32.5193 110.776 30.9804C109.872 29.3738 109.41 27.5554 109.44 25.7118C109.41 23.8749 109.85 22.0608 110.719 20.4423C111.532 18.9314 112.748 17.6757 114.232 16.8154C115.758 15.9401 117.492 15.4917 119.252 15.5173C121.006 15.49 122.734 15.9386 124.253 16.8154C125.722 17.6736 126.925 18.9225 127.727 20.4232C128.588 22.0505 129.022 23.87 128.987 25.7109L128.949 26.5518ZM119.252 17.847C117.318 17.847 115.695 18.4643 114.384 19.6987C113.073 20.9332 112.329 22.543 112.151 24.5282H126.391C126.213 22.543 125.469 20.9332 124.158 19.6987C122.847 18.4643 121.212 17.847 119.252 17.847ZM146.74 35.7518L140.364 27.3535L133.949 35.7518H130.896L138.837 25.4447L131.278 15.6711H134.332L140.364 23.5356L146.396 15.6711H149.374L141.815 25.4447L149.832 35.7518H146.74Z" fill="#1D4682"/>
</g>
</g>
<defs>
<clipPath id="clip0_865_4051">
<rect width="150" height="42.8571" fill="white" transform="translate(0.25 0.302002)"/>
</clipPath>
</defs>
</svg>
