<svg width="151" height="29" viewBox="0 0 151 29" fill="none" xmlns="http://www.w3.org/2000/svg">
<g clip-path="url(#clip0_865_4045)">
<mask id="mask0_865_4045" style="mask-type:luminance" maskUnits="userSpaceOnUse" x="0" y="0" width="151" height="29">
<path d="M150.25 0.15918H0.25V28.5056H150.25V0.15918Z" fill="white"/>
</mask>
<g mask="url(#mask0_865_4045)">
<path d="M146.369 9.10838C146.368 8.86108 146.423 8.61675 146.528 8.39313C146.634 8.16952 146.788 7.97222 146.979 7.81558C147.171 7.65894 147.395 7.54688 147.635 7.48755C147.875 7.42821 148.125 7.42309 148.367 7.47255C148.691 7.53699 148.989 7.69588 149.223 7.92919C149.456 8.1625 149.616 8.45979 149.681 8.78358C149.746 9.1072 149.713 9.44286 149.586 9.74769C149.459 10.0525 149.245 10.3127 148.97 10.495C148.695 10.6784 148.372 10.7762 148.041 10.7761C147.709 10.782 147.383 10.6872 147.106 10.5042C146.829 10.3212 146.613 10.0586 146.488 9.7509C146.406 9.54688 146.365 9.32838 146.369 9.10838ZM149.434 9.10838C149.434 8.83315 149.353 8.56396 149.201 8.33487C149.048 8.10578 148.831 7.92708 148.577 7.82138C148.323 7.71568 148.043 7.68772 147.773 7.74104C147.503 7.79436 147.255 7.92657 147.06 8.12094C146.865 8.31531 146.732 8.56311 146.678 8.83299C146.624 9.10287 146.651 9.3827 146.756 9.63709C146.862 9.89148 147.04 10.109 147.268 10.2621C147.497 10.4153 147.766 10.4971 148.041 10.4974C148.226 10.5036 148.41 10.472 148.581 10.4046C148.753 10.3371 148.91 10.2353 149.041 10.1052C149.172 9.97535 149.274 9.81969 149.342 9.64809C149.41 9.4765 149.441 9.29271 149.434 9.10838ZM147.484 10.0533C147.427 10.0533 147.427 10.0533 147.427 9.99775V8.27334C147.427 8.21783 147.427 8.21783 147.484 8.21783H148.152C148.23 8.20789 148.31 8.21499 148.385 8.23863C148.46 8.26227 148.529 8.30188 148.587 8.35475C148.645 8.40762 148.691 8.47249 148.722 8.54489C148.753 8.61728 148.768 8.69549 148.765 8.77413C148.774 8.89109 148.739 9.00714 148.667 9.0997C148.595 9.19226 148.491 9.25472 148.376 9.27491L148.765 9.99775C148.821 10.0533 148.765 10.1088 148.709 10.1088H148.542C148.487 10.1088 148.487 10.0533 148.43 10.0533L148.04 9.33043H147.654V9.99775C147.654 10.0051 147.652 10.0124 147.649 10.019C147.647 10.0263 147.643 10.0328 147.637 10.0379C147.632 10.0432 147.626 10.0472 147.62 10.0497C147.612 10.0524 147.605 10.0536 147.597 10.0533H147.484ZM148.484 8.72216C148.484 8.55562 148.373 8.44342 148.15 8.44342H147.705V8.99972H148.15C148.376 8.99617 148.484 8.88633 148.484 8.72216ZM48.2323 21.6139C48.0645 21.6139 48.0055 21.5584 47.9535 21.3871L45.6693 13.3249H45.6126L43.3283 21.3871C43.2716 21.5537 43.2161 21.6139 43.0496 21.6139H40.3744C40.2067 21.6139 40.1476 21.5584 40.0956 21.3871L36.1945 7.38279C36.1945 7.27176 36.1945 7.1572 36.361 7.1572H39.8724C39.9392 7.15057 40.0059 7.17053 40.0581 7.21276C40.1103 7.25499 40.1437 7.31608 40.1512 7.38279L41.9901 15.7769H42.0456L44.2779 7.38279C44.3346 7.21743 44.3901 7.1572 44.5567 7.1572H46.7299C46.8976 7.1572 46.9578 7.21271 47.0098 7.38279L49.3519 15.7757H49.4074L51.185 7.38279C51.1922 7.31595 51.2255 7.25467 51.2778 7.21238C51.33 7.1701 51.3969 7.15025 51.4637 7.1572H54.9752C55.0874 7.1572 55.1417 7.26822 55.1417 7.38279L51.2417 21.3907C51.185 21.5584 51.1295 21.6174 50.963 21.6174H48.2323V21.6139ZM57.9291 21.6139C57.8701 21.6105 57.8143 21.5855 57.7725 21.5437C57.7307 21.5019 57.7057 21.4462 57.7023 21.3871V7.38279C57.7055 7.32378 57.7304 7.26804 57.7723 7.22636C57.8142 7.18468 57.8701 7.16004 57.9291 7.1572H63.7248C67.2362 7.1572 69.0752 9.15798 69.0752 11.9371C69.0752 14.7174 67.2362 16.7726 63.7248 16.7726H61.6094C61.4972 16.7726 61.4972 16.8281 61.4972 16.8848V21.3304C61.4941 21.3894 61.4691 21.4452 61.4272 21.4869C61.3853 21.5285 61.3295 21.5532 61.2704 21.556H57.9279L57.9291 21.6139ZM65.3405 11.9974C65.3405 10.997 64.672 10.3863 63.5015 10.3863H61.6059C61.4949 10.3863 61.4949 10.4418 61.4949 10.4974V13.4985C61.4949 13.6107 61.5504 13.6107 61.6059 13.6107H63.5015C63.848 13.6578 64.2003 13.5916 64.5061 13.4222C64.812 13.2528 65.0549 12.9892 65.1988 12.6706C65.2933 12.4592 65.3417 12.23 65.3405 11.9985V11.9974ZM74.0334 18.0564C73.6971 16.883 73.5653 15.6604 73.6437 14.4422C73.6 13.2257 73.7311 12.0092 74.0334 10.8292C74.3695 9.82508 75.0134 8.95228 75.8736 8.33476C76.5165 7.87322 77.2587 7.56893 78.0406 7.44634C78.8224 7.32374 79.6221 7.38626 80.3754 7.62886C81.1287 7.87146 81.8146 8.28739 82.378 8.84322C82.9414 9.39904 83.3665 10.0793 83.6193 10.8292C83.9476 11.9277 84.0799 13.0757 84.009 14.2202C84.009 14.3867 83.898 14.4989 83.6748 14.4989H74.5921C74.4799 14.4989 74.4244 14.61 74.4244 14.7245C74.3777 15.7549 74.4904 16.7864 74.7586 17.7824C75.0037 18.6823 75.555 19.4684 76.3177 20.0052C77.0795 20.5426 78.0067 20.7977 78.9386 20.7269C79.7307 20.7519 80.5175 20.5886 81.2343 20.2504C81.951 19.9122 82.5773 19.4089 83.0618 18.7816C83.0792 18.7471 83.1047 18.7172 83.1361 18.6947C83.1675 18.6721 83.2039 18.6575 83.2422 18.652C83.2804 18.6465 83.3195 18.6504 83.3559 18.6633C83.3924 18.6762 83.4252 18.6978 83.4515 18.7261L83.6193 18.8926C83.654 18.9098 83.6841 18.9352 83.7068 18.9666C83.7296 18.998 83.7443 19.0345 83.7498 19.0729C83.7552 19.1113 83.7513 19.1504 83.7382 19.1869C83.7251 19.2234 83.7034 19.2562 83.6748 19.2824C83.1387 20.0149 82.4316 20.6053 81.6152 21.0022C80.7988 21.3991 79.8978 21.5904 78.9905 21.5596C77.8854 21.6408 76.7862 21.336 75.8807 20.6974C74.9765 20.0593 74.3225 19.1264 74.0311 18.0588L74.0334 18.0564ZM83.0618 13.7218C83.0844 13.7244 83.1073 13.7218 83.1288 13.7142C83.1503 13.7067 83.1698 13.6943 83.1858 13.6781C83.2021 13.6621 83.2145 13.6426 83.2221 13.6211C83.2297 13.5996 83.2322 13.5767 83.2295 13.554C83.2475 12.7447 83.1342 11.9378 82.8941 11.1647C82.6671 10.2876 82.1444 9.51581 81.4141 8.97964C80.6825 8.44278 79.7883 8.17419 78.8819 8.21901C77.9734 8.16314 77.0741 8.42725 76.3401 8.96546C75.6072 9.50342 75.0868 10.2819 74.8697 11.1647C74.6253 11.9368 74.5119 12.7445 74.5342 13.554C74.5315 13.5767 74.5341 13.5996 74.5416 13.6211C74.5492 13.6426 74.5616 13.6621 74.5779 13.6781C74.5945 13.6934 74.6134 13.7064 74.6346 13.7135C74.6559 13.7206 74.6795 13.7241 74.7019 13.7206L83.0618 13.7218ZM96.9374 21.2808C96.9002 21.2831 96.8629 21.2774 96.8281 21.2642C96.7933 21.2509 96.7616 21.2305 96.7353 21.2042C96.709 21.1778 96.6885 21.1462 96.6753 21.1113C96.6621 21.0765 96.6564 21.0393 96.6586 21.0021V12.8844C96.6586 9.65995 95.3216 8.27098 92.7019 8.27098C92.1426 8.24826 91.5847 8.34228 91.0637 8.54705C90.5427 8.75183 90.0701 9.06286 89.676 9.46035C89.2828 9.85796 88.9771 10.3334 88.7786 10.8562C88.5801 11.3789 88.4931 11.9374 88.5232 12.4958V21.0588C88.5255 21.0959 88.5198 21.1331 88.5066 21.1679C88.4933 21.2027 88.4729 21.2342 88.4465 21.2605C88.4201 21.2867 88.3885 21.3071 88.3536 21.3202C88.3188 21.3332 88.2816 21.3387 88.2445 21.3363H87.9657C87.9098 21.3394 87.8543 21.3247 87.8072 21.2944C87.7601 21.2641 87.7238 21.2196 87.7035 21.1674C87.6904 21.1328 87.6848 21.0958 87.687 21.0588V8.05247C87.6845 8.01524 87.6901 7.97791 87.7032 7.94299C87.7164 7.90807 87.7368 7.87636 87.7632 7.84997C87.7896 7.82359 87.8213 7.80314 87.8562 7.78999C87.8912 7.77684 87.9285 7.7713 87.9657 7.77373H88.2445C88.2816 7.77149 88.3189 7.77717 88.3537 7.79039C88.3886 7.8036 88.4202 7.82406 88.4465 7.8504C88.4729 7.87674 88.4933 7.90838 88.5065 7.94321C88.5198 7.97804 88.5254 8.01528 88.5232 8.05247V9.9446H88.5787C88.9437 9.15624 89.5377 8.49608 90.2833 8.05009C91.0288 7.60411 91.8914 7.39298 92.7586 7.44421C95.8236 7.44421 97.5516 9.16743 97.5516 12.6694V21.0021C97.5555 21.0583 97.541 21.1143 97.5103 21.1616C97.4797 21.2089 97.4344 21.2449 97.3815 21.2643C97.3468 21.2774 97.3098 21.283 97.2728 21.2808H96.9374ZM101.623 24.7828C101.511 24.6151 101.511 24.4485 101.678 24.393L101.905 24.2277C102.072 24.1155 102.184 24.171 102.295 24.3387C102.726 24.8772 103.28 25.3045 103.91 25.5848C104.54 25.8651 105.229 25.9902 105.917 25.9497C108.48 25.9497 110.153 24.6694 110.153 21.3375V19.0568H110.097C109.429 20.5568 108.258 21.6127 105.862 21.6127C104.856 21.6608 103.862 21.3687 103.042 20.7836C102.224 20.1989 101.627 19.3549 101.348 18.3883C100.99 17.143 100.839 15.8474 100.901 14.5533C100.867 13.2602 101.018 11.9689 101.348 10.7182C101.626 9.75345 102.222 8.91082 103.039 8.32649C103.857 7.74141 104.849 7.44855 105.854 7.49499C108.25 7.49499 109.42 8.54972 110.089 10.0521H110.144V8.1068C110.142 8.06966 110.148 8.03247 110.161 7.99769C110.174 7.96291 110.195 7.93135 110.221 7.9051C110.248 7.87884 110.279 7.8585 110.314 7.84542C110.349 7.83234 110.386 7.82683 110.423 7.82924H110.702C110.739 7.82702 110.776 7.83267 110.811 7.84581C110.846 7.85896 110.877 7.87931 110.904 7.90552C110.93 7.93173 110.95 7.96322 110.964 7.99791C110.977 8.0326 110.983 8.06971 110.981 8.1068V21.3918C110.981 25.1147 108.975 26.7824 105.855 26.7824C105.042 26.7989 104.237 26.6268 103.503 26.2796C102.768 25.9325 102.124 25.4197 101.622 24.7816L101.623 24.7828ZM109.758 18.0564C110.08 16.8989 110.211 15.6989 110.148 14.5001C110.207 13.3011 110.075 12.1004 109.758 10.9426C109.538 10.1217 109.041 9.40229 108.35 8.90641C107.659 8.40996 106.818 8.16717 105.968 8.21901C105.133 8.16322 104.304 8.39862 103.622 8.88515C102.941 9.37115 102.451 10.0789 102.235 10.8871C101.901 12.0425 101.751 13.2428 101.789 14.4446C101.751 15.6464 101.902 16.8467 102.235 18.0021C102.458 18.8052 102.95 19.508 103.628 19.9934C104.308 20.4794 105.134 20.7182 105.968 20.6702C106.811 20.7763 107.664 20.5682 108.363 20.0855C109.061 19.6038 109.557 18.8812 109.755 18.0564H109.758ZM115.667 3.55011C115.63 3.55235 115.593 3.54667 115.558 3.53346C115.523 3.52024 115.492 3.49979 115.465 3.47344C115.439 3.4471 115.418 3.41547 115.405 3.38063C115.392 3.3458 115.386 3.30856 115.389 3.27137V2.16113C115.386 2.1239 115.392 2.08657 115.405 2.05165C115.418 2.01673 115.438 1.98502 115.465 1.95863C115.491 1.93225 115.523 1.9118 115.558 1.89865C115.593 1.8855 115.63 1.87996 115.667 1.88239H116.336C116.373 1.88017 116.41 1.88582 116.445 1.89896C116.48 1.91211 116.511 1.93246 116.537 1.95867C116.564 1.98488 116.584 2.01637 116.598 2.05106C116.611 2.08575 116.617 2.12286 116.615 2.15995V3.32806C116.617 3.3652 116.611 3.4024 116.598 3.43717C116.585 3.47195 116.564 3.50352 116.538 3.52977C116.511 3.55602 116.48 3.57637 116.445 3.58944C116.41 3.60252 116.373 3.60804 116.336 3.60562H115.667V3.55011ZM115.894 21.2808C115.857 21.2831 115.82 21.2774 115.785 21.2642C115.75 21.2509 115.718 21.2305 115.692 21.2042C115.666 21.1778 115.645 21.1462 115.632 21.1113C115.619 21.0765 115.613 21.0393 115.615 21.0021V8.05247C115.611 7.99638 115.626 7.94049 115.656 7.89321C115.687 7.84593 115.731 7.80981 115.784 7.79027C115.819 7.77701 115.857 7.77137 115.894 7.77373H116.173C116.21 7.77149 116.247 7.77717 116.282 7.79039C116.317 7.8036 116.349 7.82406 116.375 7.8504C116.401 7.87674 116.422 7.90838 116.435 7.94321C116.448 7.97804 116.454 8.01528 116.452 8.05247V21.0021C116.454 21.0393 116.448 21.0766 116.435 21.1116C116.422 21.1465 116.402 21.1782 116.375 21.2046C116.349 21.231 116.317 21.2514 116.282 21.2646C116.247 21.2777 116.21 21.2833 116.173 21.2808H115.894ZM130.324 21.2808C130.286 21.2833 130.249 21.2777 130.214 21.2644C130.179 21.2512 130.148 21.2306 130.122 21.204C130.096 21.1778 130.075 21.1463 130.062 21.1118C130.049 21.0772 130.043 21.0402 130.045 21.0033V12.8844C130.045 9.65995 128.708 8.27098 126.088 8.27098C125.529 8.24833 124.971 8.34239 124.45 8.54715C123.929 8.75192 123.456 9.06292 123.062 9.46035C122.669 9.85796 122.363 10.3334 122.165 10.8562C121.966 11.3789 121.879 11.9374 121.909 12.4958V21.0588C121.911 21.0959 121.906 21.133 121.892 21.1677C121.879 21.2024 121.859 21.2338 121.832 21.2601C121.806 21.2863 121.774 21.3066 121.74 21.3198C121.705 21.3329 121.668 21.3386 121.631 21.3363H121.352C121.315 21.3384 121.277 21.3327 121.242 21.3194C121.207 21.3062 121.175 21.2858 121.149 21.2596C121.123 21.2331 121.102 21.2018 121.089 21.1674C121.076 21.1327 121.071 21.0957 121.073 21.0588V8.05247C121.07 8.01518 121.076 7.97774 121.089 7.94263C121.109 7.89034 121.146 7.84587 121.193 7.81554C121.24 7.78522 121.296 7.77059 121.352 7.77373H121.631C121.668 7.77129 121.705 7.77688 121.74 7.79013C121.775 7.80338 121.806 7.82397 121.833 7.8505C121.859 7.87678 121.879 7.90821 121.892 7.94279C121.905 7.97737 121.911 8.01432 121.909 8.05129V9.9446H121.965C122.33 9.15624 122.924 8.49608 123.669 8.05009C124.415 7.60411 125.278 7.39298 126.145 7.44421C129.21 7.44421 130.938 9.16743 130.938 12.6694V21.0021C130.941 21.0582 130.926 21.1138 130.896 21.161C130.865 21.2081 130.82 21.2443 130.768 21.2643C130.733 21.2775 130.696 21.2831 130.659 21.2808H130.324ZM134.727 18.0564C134.39 16.8835 134.258 15.6612 134.337 14.4434C134.291 13.2269 134.423 12.0103 134.727 10.8304C135.062 9.82643 135.705 8.95359 136.565 8.33594C137.426 7.71733 138.459 7.38456 139.519 7.38456C140.579 7.38456 141.613 7.71733 142.474 8.33594C143.333 8.95394 143.976 9.82665 144.311 10.8304C144.64 11.9289 144.772 13.0769 144.701 14.2214C144.701 14.3879 144.59 14.5001 144.367 14.5001H135.281C135.168 14.5001 135.113 14.6111 135.113 14.7245C135.066 15.7554 135.179 16.7873 135.448 17.7836C135.693 18.6831 136.244 19.4689 137.006 20.0052C137.77 20.543 138.696 20.7986 139.627 20.7281C140.42 20.7534 141.207 20.5903 141.924 20.2521C142.641 19.9139 143.267 19.4103 143.752 18.7828C143.769 18.748 143.794 18.718 143.826 18.6952C143.857 18.6725 143.893 18.6578 143.932 18.6523C143.97 18.6468 144.009 18.6508 144.046 18.6639C144.082 18.6769 144.115 18.6987 144.141 18.7273L144.308 18.8926C144.36 18.9187 144.402 18.9632 144.424 19.0176C144.446 19.072 144.447 19.1326 144.427 19.1879C144.414 19.224 144.392 19.2564 144.363 19.2824C143.827 20.0145 143.12 20.6046 142.303 21.0019C141.487 21.3991 140.586 21.5913 139.679 21.5619C137.172 21.5619 135.444 20.3926 134.72 18.0588L134.727 18.0564ZM143.698 13.7218C143.721 13.724 143.744 13.7213 143.765 13.7137C143.787 13.7062 143.806 13.694 143.822 13.6781C143.839 13.6623 143.851 13.6428 143.858 13.6214C143.866 13.6001 143.868 13.5777 143.866 13.5552C143.884 12.7455 143.771 11.9381 143.531 11.1647C143.304 10.2875 142.781 9.51567 142.051 8.97964C141.319 8.44287 140.425 8.17429 139.518 8.21901C138.61 8.16358 137.711 8.42811 136.977 8.96665C136.244 9.50395 135.723 10.2821 135.506 11.1647C135.262 11.9372 135.148 12.7452 135.171 13.5552C135.169 13.5777 135.171 13.6003 135.179 13.6215C135.187 13.6427 135.199 13.662 135.215 13.6781C135.231 13.694 135.25 13.7062 135.272 13.7137C135.293 13.7213 135.316 13.724 135.339 13.7218H143.698Z" fill="black"/>
<path d="M9.89134 28.5056H19.0331V21.6139L16.8043 19.3911H12.0681L9.8937 21.6139L9.89134 28.5056ZM21.7071 9.77453L19.5339 11.943V16.723L21.7071 18.8903H28.672V9.77335L21.7071 9.77572V9.77453ZM19.0295 0.15918H9.8878V7.10642L12.0622 9.27729H16.7996L19.0295 7.10879V0.15918ZM28.6697 28.5056V21.6139L26.4965 19.3911H19.5303V28.5092L28.6697 28.5056ZM2.42323 0.15918L0.25 2.3265V9.27729H9.39173V0.15918H2.42323ZM19.5327 0.15918V7.10642L21.7059 9.27729H28.672V0.15918H19.5327ZM14.461 15.6671C14.2072 15.6669 13.9591 15.5916 13.7479 15.4508C13.5367 15.31 13.3718 15.1099 13.274 14.8757C13.2014 14.7007 13.1685 14.5117 13.1778 14.3224C13.1871 14.1331 13.2384 13.9482 13.3279 13.7811C13.4175 13.6141 13.543 13.469 13.6954 13.3564C13.8479 13.2438 14.0235 13.1665 14.2094 13.13C14.3953 13.0935 14.587 13.0985 14.7707 13.1446C14.9545 13.1907 15.1258 13.2768 15.2724 13.3967C15.4191 13.5166 15.5375 13.6674 15.6191 13.8383C15.7008 14.0093 15.7437 14.1961 15.7449 14.3856C15.7421 14.725 15.6059 15.0497 15.3656 15.2895C15.1254 15.5293 14.8004 15.6649 14.461 15.6671ZM9.39173 9.77335H0.25V18.8915H7.15945L9.38819 16.7241L9.39173 9.77335ZM9.39173 21.6127L7.16299 19.3899H0.25V28.508H7.15945L9.38819 26.3395L9.39173 21.6127Z" fill="#0ECAD4"/>
</g>
</g>
<defs>
<clipPath id="clip0_865_4045">
<rect width="150" height="28.3465" fill="white" transform="translate(0.25 0.15918)"/>
</clipPath>
</defs>
</svg>
