<svg width="151" height="42" viewBox="0 0 151 42" fill="none" xmlns="http://www.w3.org/2000/svg">
<g clip-path="url(#clip0_865_4049)">
<path d="M133.414 1.73559C131.364 -0.0478546 128.248 0.177638 126.465 2.22757L116.686 13.8917L106.867 2.20708C105.104 0.13664 101.988 -0.0888535 99.9384 1.67409C97.868 3.43704 97.6425 6.55294 99.4054 8.60288C99.4259 8.62338 99.4464 8.64388 99.4464 8.66437L110.557 21.005L99.4259 33.3661C97.6425 35.416 97.868 38.532 99.9179 40.3154C101.968 42.0988 105.084 41.8733 106.867 39.8234L116.666 28.1388L126.465 39.8029C128.248 41.8528 131.364 42.0578 133.414 40.2744C135.464 38.491 135.669 35.3751 133.885 33.3251L122.816 21.005L133.906 8.66437C135.689 6.61444 135.464 3.51903 133.414 1.73559Z" fill="#96014E"/>
<path d="M79.5416 0.505615H67.1189C64.3925 0.505615 62.1991 2.69905 62.1991 5.42546V36.5845C62.1991 39.3109 64.3925 41.5043 67.1189 41.5043C69.8454 41.5043 72.0388 39.3109 72.0388 36.5845V30.0657H79.5416C87.7003 30.0657 94.3216 23.4444 94.3216 15.2652C94.3216 7.12691 87.7003 0.505615 79.5416 0.505615ZM84.0719 15.2857C84.0719 17.9506 81.9195 20.2465 79.0701 20.636H72.0388V9.93532H79.0701C81.9195 10.3248 84.0719 12.6207 84.0719 15.2857Z" fill="#96014E"/>
<path d="M55.2293 6.69638C55.8238 4.05196 54.1838 1.42804 51.5394 0.813061C49.2845 0.300576 46.9886 1.42804 46.0046 3.49848C45.9841 3.51898 45.9841 3.55998 45.9636 3.60097C45.8611 3.82647 45.7791 4.05196 45.7176 4.27745L39.1578 23.6699L32.557 4.35945C31.8805 1.73553 29.1951 0.157081 26.5712 0.83356C25.1362 1.20255 23.9473 2.18652 23.3323 3.53948L23.3118 3.58047C23.1888 3.84697 23.0863 4.13396 23.0248 4.44145L16.465 23.6699L9.86421 4.17496C9.86421 4.13396 9.84371 4.11346 9.82321 4.07246L9.72071 3.74447C8.57275 1.26405 5.64134 0.19808 3.18142 1.32554C0.926487 2.37101 -0.200979 4.93343 0.557498 7.29086H0.536999C1.25448 9.2793 8.98274 30.5371 11.8526 38.3884C12.8776 40.9098 15.7475 42.1193 18.269 41.0943C19.6424 40.5408 20.7084 39.3724 21.1184 37.9579C22.1843 35.17 27.5552 20.431 27.8012 19.7955C28.7646 21.5789 34.6479 38.2244 34.6479 38.2244C35.5499 40.7868 38.3583 42.1193 40.9207 41.1968C42.2942 40.7048 43.3807 39.6389 43.8727 38.2859C43.8727 38.2859 47.46 28.3437 51.4574 17.2126L54.8398 7.76235C55.0038 7.43436 55.1268 7.08587 55.2088 6.71688L55.2293 6.69638Z" fill="#96014E"/>
<path d="M145.099 31.3162C142.167 31.3162 139.953 33.4891 139.953 36.359V36.4615C139.953 39.3314 142.167 41.5043 145.099 41.5043C148.03 41.5043 150.244 39.3314 150.244 36.4615V36.359C150.244 33.4891 148.03 31.3162 145.099 31.3162Z" fill="#FB5718"/>
</g>
<defs>
<clipPath id="clip0_865_4049">
<rect width="150" height="40.9987" fill="white" transform="translate(0.25 0.505615)"/>
</clipPath>
</defs>
</svg>
