<svg width="151" height="17" viewBox="0 0 151 17" fill="none" xmlns="http://www.w3.org/2000/svg">
<g clip-path="url(#clip0_865_4047)">
<path d="M98.2957 6.81809C98.0959 6.82188 97.8975 6.78535 97.7126 6.71075C97.5277 6.6361 97.3598 6.52492 97.2198 6.38394C96.9352 6.10003 96.7758 5.71601 96.7758 5.31573C96.7758 4.91547 96.9352 4.53146 97.2198 4.24754C97.5083 3.96919 97.895 3.81348 98.2977 3.81348C98.7003 3.81348 99.0866 3.96919 99.3756 4.24754C99.5894 4.458 99.7354 4.72707 99.7947 5.02031C99.854 5.31356 99.8236 5.61764 99.7075 5.89367C99.5914 6.1697 99.395 6.40512 99.1439 6.56977C98.8922 6.73447 98.5967 6.82093 98.2957 6.81809ZM97.6553 5.95811C97.8263 6.12281 98.0555 6.2149 98.2937 6.2149C98.5324 6.2149 98.7616 6.12281 98.9326 5.95811C99.099 5.78369 99.1917 5.55271 99.1917 5.3126C99.1917 5.0725 99.099 4.84152 98.9326 4.6671C98.7616 4.50241 98.5324 4.41031 98.2937 4.41031C98.0555 4.41031 97.8263 4.50241 97.6553 4.6671C97.4889 4.84152 97.3962 5.0725 97.3962 5.3126C97.3962 5.55271 97.4889 5.78369 97.6553 5.95811Z" fill="#938585"/>
<path d="M102.036 3.81337C102.184 3.80741 102.332 3.83218 102.47 3.88609C102.607 3.94001 102.732 4.02188 102.837 4.12647C103.039 4.3352 103.142 4.62325 103.142 4.98958V6.74294H102.52V5.0522C102.526 4.96299 102.514 4.87351 102.484 4.78908C102.454 4.70466 102.408 4.62698 102.348 4.56063C102.284 4.50207 102.21 4.45673 102.129 4.42733C102.048 4.39792 101.961 4.38504 101.875 4.38947C101.779 4.38602 101.682 4.40219 101.591 4.437C101.501 4.47181 101.419 4.52453 101.35 4.59194C101.215 4.72762 101.149 4.93427 101.149 5.21188V6.74294H100.526V3.88747H101.149V4.25379C101.333 3.96088 101.629 3.81406 102.036 3.81337Z" fill="#938585"/>
<path d="M105.582 3.8134C105.772 3.81127 105.961 3.84882 106.135 3.92362C106.309 3.99841 106.466 4.10878 106.594 4.24756C106.865 4.53796 107.015 4.91881 107.015 5.31419C107.015 5.70957 106.865 6.0904 106.594 6.38083C106.466 6.52056 106.31 6.63179 106.136 6.70719C105.961 6.78254 105.772 6.82037 105.582 6.81812C105.387 6.82779 105.192 6.78842 105.016 6.70355C104.839 6.61874 104.688 6.49121 104.575 6.33279V6.74402H103.953V2.74573H104.575V4.29348C104.689 4.13623 104.841 4.00988 105.017 3.92601C105.193 3.84214 105.387 3.80342 105.582 3.8134ZM104.833 5.9696C105.008 6.13625 105.241 6.22934 105.484 6.22934C105.726 6.22934 105.959 6.13625 106.134 5.9696C106.3 5.79184 106.393 5.55827 106.393 5.31575C106.393 5.07322 106.3 4.83966 106.134 4.6619C105.959 4.49523 105.726 4.40216 105.484 4.40216C105.241 4.40216 105.008 4.49523 104.833 4.6619C104.667 4.83966 104.575 5.07322 104.575 5.31575C104.575 5.55827 104.667 5.79184 104.833 5.9696Z" fill="#938585"/>
<path d="M108.212 5.57824C108.247 5.77927 108.361 5.95862 108.528 6.07812C108.705 6.19857 108.917 6.25967 109.132 6.25244C109.276 6.26156 109.42 6.2338 109.55 6.17186C109.68 6.10992 109.792 6.01583 109.875 5.89862L110.387 6.19608C110.106 6.61354 109.686 6.82229 109.125 6.82229C108.917 6.83116 108.709 6.79802 108.514 6.72482C108.319 6.65161 108.141 6.53993 107.991 6.39646C107.848 6.25623 107.737 6.08829 107.662 5.90315C107.588 5.71802 107.553 5.51963 107.559 5.32043C107.554 5.12243 107.589 4.9254 107.662 4.7412C107.736 4.557 107.846 4.38944 107.986 4.24858C108.128 4.10564 108.299 3.99352 108.487 3.91932C108.675 3.84513 108.876 3.81048 109.079 3.81755C109.274 3.81179 109.467 3.8482 109.647 3.92425C109.826 4.0003 109.987 4.11418 110.118 4.25798C110.387 4.54808 110.533 4.93096 110.523 5.32565C110.522 5.41166 110.514 5.49746 110.5 5.58237L108.212 5.57824ZM108.206 5.07621H109.899C109.876 4.87784 109.778 4.69541 109.625 4.56524C109.473 4.43507 109.277 4.36673 109.075 4.37383C108.867 4.3665 108.663 4.43311 108.5 4.56169C108.344 4.69311 108.24 4.87548 108.206 5.07621Z" fill="#938585"/>
<path d="M111.816 6.16661H113.218V6.74897H110.973V6.33774L112.32 4.47586H111.03V3.89246H113.159V4.30366L111.816 6.16661Z" fill="#938585"/>
<path d="M115.125 6.81809C114.925 6.82203 114.726 6.7856 114.542 6.71095C114.356 6.6363 114.189 6.52502 114.048 6.38394C113.765 6.09964 113.606 5.71577 113.606 5.31574C113.606 4.91572 113.765 4.53186 114.048 4.24754C114.337 3.96919 114.723 3.81348 115.126 3.81348C115.528 3.81348 115.915 3.96919 116.204 4.24754C116.418 4.45794 116.564 4.72691 116.623 5.02005C116.682 5.3132 116.652 5.61719 116.536 5.89317C116.42 6.16915 116.224 6.40457 115.973 6.56932C115.721 6.73412 115.426 6.82073 115.125 6.81809ZM114.486 5.96125C114.657 6.12595 114.886 6.21804 115.125 6.21804C115.363 6.21804 115.592 6.12595 115.763 5.96125C115.929 5.78683 116.022 5.55585 116.022 5.31574C116.022 5.07563 115.929 4.84465 115.763 4.67023C115.592 4.50553 115.363 4.41344 115.125 4.41344C114.886 4.41344 114.657 4.50553 114.486 4.67023C114.319 4.84465 114.227 5.07563 114.227 5.31574C114.227 5.55585 114.319 5.78683 114.486 5.96125Z" fill="#938585"/>
<path d="M117.974 4.36753C118.132 4.01372 118.427 3.8363 118.861 3.8363V4.50425C118.64 4.48498 118.42 4.54497 118.239 4.67332C118.063 4.80064 117.974 5.01112 117.974 5.30473V6.74394H117.353V3.88744H117.974V4.36753Z" fill="#938585"/>
<path d="M121.623 3.88742H122.233V6.61245C122.233 7.0466 122.09 7.37984 121.802 7.61227C121.504 7.84868 121.132 7.97222 120.751 7.96086C120.086 7.96086 119.631 7.73052 119.383 7.26991L119.919 6.95685C120.07 7.24978 120.35 7.39654 120.76 7.39724C120.99 7.41084 121.216 7.33604 121.391 7.18853C121.468 7.11343 121.529 7.02283 121.568 6.92277C121.607 6.8227 121.624 6.71546 121.618 6.60827V6.25968C121.508 6.42044 121.358 6.55046 121.183 6.63742C121.007 6.72443 120.813 6.76539 120.617 6.75647C120.424 6.76026 120.233 6.72383 120.056 6.64958C119.878 6.57533 119.718 6.46489 119.587 6.32541C119.316 6.0443 119.165 5.67049 119.165 5.28175C119.165 4.89302 119.316 4.51923 119.587 4.23809C119.718 4.09878 119.878 3.98844 120.056 3.9142C120.234 3.83996 120.424 3.80346 120.617 3.80706C120.813 3.79833 121.007 3.83939 121.183 3.92634C121.358 4.01328 121.508 4.14323 121.618 4.30384L121.623 3.88742ZM120.054 5.92674C120.23 6.09328 120.463 6.18617 120.706 6.18617C120.95 6.18617 121.183 6.09328 121.359 5.92674C121.527 5.75546 121.621 5.52592 121.621 5.28697C121.621 5.04801 121.527 4.81847 121.359 4.64721C121.183 4.48232 120.949 4.39053 120.706 4.39053C120.464 4.39053 120.231 4.48232 120.054 4.64721C119.886 4.81847 119.792 5.04801 119.792 5.28697C119.792 5.52592 119.886 5.75546 120.054 5.92674Z" fill="#938585"/>
<path d="M125.382 2.74573H126.004V6.74402H125.382V6.33279C125.269 6.49121 125.117 6.61874 124.941 6.70355C124.765 6.78842 124.57 6.82779 124.375 6.81812C124.184 6.82037 123.996 6.78254 123.821 6.70719C123.647 6.63179 123.49 6.52056 123.362 6.38083C123.092 6.0904 122.942 5.70957 122.942 5.31419C122.942 4.91881 123.092 4.53796 123.362 4.24756C123.491 4.10878 123.648 3.99841 123.822 3.92362C123.997 3.84882 124.185 3.81127 124.375 3.8134C124.57 3.80342 124.764 3.84214 124.94 3.92601C125.116 4.00988 125.268 4.13623 125.382 4.29348V2.74573ZM123.823 5.9696C123.998 6.13625 124.231 6.22934 124.473 6.22934C124.716 6.22934 124.949 6.13625 125.123 5.9696C125.29 5.79184 125.382 5.55827 125.382 5.31575C125.382 5.07322 125.29 4.83966 125.123 4.6619C124.949 4.49523 124.716 4.40216 124.473 4.40216C124.231 4.40216 123.998 4.49523 123.823 4.6619C123.657 4.83966 123.564 5.07322 123.564 5.31575C123.564 5.55827 123.657 5.79184 123.823 5.9696Z" fill="#938585"/>
<path d="M98.2957 12.5334C98.0959 12.5372 97.8975 12.5007 97.7126 12.4261C97.5277 12.3514 97.3598 12.2402 97.2198 12.0992C96.9352 11.8153 96.7758 11.4313 96.7758 11.0311C96.7758 10.6308 96.9352 10.2468 97.2198 9.96286C97.5083 9.68454 97.895 9.52881 98.2977 9.52881C98.7003 9.52881 99.0866 9.68454 99.3756 9.96286C99.6571 10.2481 99.8151 10.6316 99.8151 11.0311C99.8151 11.4305 99.6571 11.814 99.3756 12.0992C99.2346 12.2408 99.0661 12.3522 98.8807 12.4269C98.6949 12.5015 98.496 12.5378 98.2957 12.5334ZM97.6573 11.6765C97.8282 11.8412 98.0575 11.9333 98.2962 11.9333C98.5344 11.9333 98.7636 11.8412 98.9351 11.6765C99.101 11.5021 99.1937 11.2712 99.1937 11.0311C99.1937 10.791 99.101 10.56 98.9351 10.3856C98.8085 10.259 98.6465 10.1729 98.4706 10.1384C98.2942 10.1039 98.1118 10.1225 97.9464 10.1919C97.7809 10.2613 97.6404 10.3783 97.5422 10.5278C97.4445 10.6772 97.3942 10.8523 97.3977 11.0306C97.3942 11.1496 97.4151 11.2682 97.4595 11.3789C97.5038 11.4896 97.5701 11.5902 97.6553 11.6745L97.6573 11.6765Z" fill="#938585"/>
<path d="M102.036 9.52632C102.184 9.52014 102.332 9.54476 102.47 9.59868C102.608 9.65265 102.732 9.73463 102.837 9.83943C103.039 10.0482 103.142 10.3362 103.142 10.7015V12.4559H102.52V10.7652C102.526 10.6761 102.514 10.5868 102.484 10.5025C102.454 10.4182 102.408 10.3407 102.348 10.2746C102.284 10.2157 102.21 10.17 102.129 10.1404C102.048 10.1108 101.961 10.0979 101.875 10.1025C101.778 10.099 101.681 10.1152 101.591 10.1502C101.501 10.1852 101.418 10.2382 101.35 10.306C101.215 10.4406 101.149 10.6472 101.149 10.9259V12.457H100.526V9.60042H101.149V9.96571C101.333 9.67278 101.629 9.52632 102.036 9.52632Z" fill="#938585"/>
<path d="M103.953 12.4572V8.28247H104.575V12.4572H103.953Z" fill="#938585"/>
<path d="M106.028 9.05458C105.973 9.10885 105.902 9.14563 105.826 9.16048C105.749 9.17533 105.67 9.1675 105.598 9.13805C105.526 9.1086 105.464 9.05877 105.42 8.99473C105.377 8.93074 105.353 8.85534 105.352 8.77805C105.351 8.72652 105.361 8.67539 105.381 8.6277C105.4 8.58001 105.429 8.53671 105.466 8.50043C105.503 8.46345 105.547 8.4341 105.595 8.41402C105.644 8.39398 105.696 8.38367 105.748 8.38367C105.801 8.38367 105.852 8.39398 105.901 8.41402C105.949 8.4341 105.993 8.46345 106.03 8.50043C106.067 8.53666 106.096 8.57991 106.116 8.6276C106.136 8.6753 106.146 8.72642 106.146 8.77805C106.146 8.82968 106.136 8.88086 106.116 8.92845C106.096 8.97599 106.066 9.01895 106.028 9.05458ZM105.438 12.4569V9.60046H106.06V12.4569H105.438Z" fill="#938585"/>
<path d="M108.436 9.52635C108.584 9.52007 108.731 9.54469 108.869 9.59861C109.007 9.65253 109.132 9.73461 109.236 9.83946C109.44 10.0482 109.541 10.3362 109.541 10.7015V12.4559H108.919V10.7652C108.925 10.6761 108.913 10.5868 108.883 10.5025C108.854 10.4182 108.807 10.3407 108.747 10.2747C108.684 10.2157 108.61 10.17 108.529 10.1404C108.447 10.1108 108.361 10.0978 108.275 10.1024C108.178 10.0989 108.081 10.1152 107.991 10.1502C107.9 10.1852 107.818 10.2382 107.749 10.306C107.616 10.441 107.549 10.6476 107.548 10.9259V12.4569H106.926V9.60045H107.548V9.96574C107.733 9.67281 108.029 9.52635 108.436 9.52635Z" fill="#938585"/>
<path d="M110.842 11.2913C110.878 11.4924 110.991 11.6718 111.158 11.7913C111.336 11.9111 111.548 11.9721 111.762 11.9655C111.906 11.9747 112.05 11.9469 112.18 11.885C112.31 11.823 112.422 11.7289 112.505 11.6118L113.017 11.9081C112.737 12.3256 112.316 12.5343 111.755 12.5343C111.547 12.5434 111.339 12.5102 111.144 12.437C110.948 12.3638 110.771 12.2521 110.621 12.1085C110.403 11.8981 110.254 11.6275 110.194 11.332C110.133 11.0365 110.163 10.7297 110.281 10.4516C110.398 10.1734 110.597 9.93674 110.852 9.77234C111.106 9.60789 111.405 9.52332 111.709 9.52965C111.904 9.52387 112.098 9.5602 112.277 9.63604C112.456 9.71189 112.617 9.82551 112.747 9.96903C113.017 10.2597 113.163 10.6428 113.154 11.0377C113.152 11.1237 113.144 11.2094 113.131 11.2945L110.842 11.2913ZM110.837 10.7883H112.529C112.501 10.5844 112.398 10.3983 112.239 10.2664C112.087 10.1484 111.898 10.0857 111.705 10.089C111.497 10.0816 111.293 10.1486 111.13 10.278C110.974 10.4078 110.87 10.5889 110.837 10.7883Z" fill="#938585"/>
<path d="M116.793 12.5334C116.594 12.5372 116.395 12.5007 116.21 12.4261C116.026 12.3514 115.858 12.2402 115.718 12.0992C115.434 11.8153 115.274 11.4313 115.274 11.0311C115.274 10.6308 115.434 10.2468 115.718 9.96286C116.006 9.68454 116.393 9.52881 116.795 9.52881C117.198 9.52881 117.585 9.68454 117.873 9.96286C118.155 10.2481 118.313 10.6316 118.313 11.0311C118.313 11.4305 118.155 11.814 117.873 12.0992C117.732 12.2408 117.564 12.3522 117.379 12.4269C117.193 12.5015 116.994 12.5378 116.793 12.5334ZM116.155 11.6765C116.327 11.8412 116.555 11.9333 116.794 11.9333C117.032 11.9333 117.261 11.8412 117.433 11.6765C117.599 11.5021 117.692 11.2712 117.692 11.0311C117.692 10.791 117.599 10.56 117.433 10.3856C117.262 10.2204 117.033 10.128 116.794 10.128C116.555 10.128 116.326 10.2204 116.155 10.3856C115.989 10.56 115.896 10.791 115.896 11.0311C115.896 11.2712 115.989 11.5021 116.155 11.6765Z" fill="#938585"/>
<path d="M120.53 9.52632C120.678 9.52014 120.826 9.54476 120.964 9.59868C121.102 9.65265 121.226 9.73463 121.33 9.83943C121.533 10.0482 121.635 10.3362 121.635 10.7015V12.4559H121.014V10.7652C121.02 10.6761 121.007 10.5868 120.978 10.5025C120.948 10.4182 120.902 10.3407 120.842 10.2746C120.779 10.2156 120.705 10.17 120.623 10.1404C120.542 10.1108 120.456 10.0979 120.369 10.1025C120.272 10.099 120.176 10.1152 120.085 10.1502C119.995 10.1852 119.913 10.2382 119.843 10.306C119.709 10.4406 119.643 10.6472 119.643 10.9259V12.457H119.021V9.60042H119.643V9.96571C119.827 9.67278 120.123 9.52632 120.53 9.52632Z" fill="#938585"/>
<path d="M124.725 8.46301H125.347V12.4623H124.725V12.0512C124.612 12.2096 124.46 12.3371 124.284 12.4219C124.108 12.5067 123.913 12.5462 123.718 12.5364C123.528 12.5385 123.339 12.5006 123.164 12.4253C122.99 12.3499 122.833 12.2388 122.705 12.0991C122.435 11.8088 122.285 11.4279 122.285 11.0325C122.285 10.6372 122.435 10.2563 122.705 9.9659C122.833 9.82692 122.99 9.71638 123.165 9.64158C123.339 9.56678 123.528 9.52936 123.718 9.53175C123.913 9.52183 124.107 9.56045 124.283 9.64413C124.459 9.7278 124.611 9.85388 124.725 10.0108V8.46301ZM123.166 11.688C123.341 11.8546 123.573 11.9477 123.816 11.9477C124.059 11.9477 124.292 11.8546 124.466 11.688C124.633 11.51 124.725 11.2763 124.725 11.0335C124.725 10.7909 124.633 10.5571 124.466 10.3792C124.292 10.2125 124.059 10.1194 123.816 10.1194C123.573 10.1194 123.341 10.2125 123.166 10.3792C122.999 10.5571 122.907 10.7909 122.907 11.0335C122.907 11.2763 122.999 11.51 123.166 11.688Z" fill="#938585"/>
<path d="M126.705 11.2914C126.74 11.4925 126.853 11.6718 127.02 11.7913C127.198 11.9112 127.41 11.9722 127.625 11.9656C127.769 11.9748 127.913 11.947 128.043 11.8851C128.173 11.8231 128.285 11.729 128.367 11.6118L128.886 11.9072C128.606 12.3246 128.185 12.5334 127.624 12.5334C127.416 12.5423 127.208 12.5091 127.013 12.4359C126.818 12.3627 126.64 12.251 126.49 12.1076C126.273 11.8971 126.124 11.6265 126.063 11.331C126.003 11.0355 126.033 10.7288 126.15 10.4506C126.268 10.1725 126.467 9.93576 126.721 9.77135C126.976 9.60695 127.275 9.52238 127.579 9.52866C127.773 9.52293 127.967 9.55921 128.147 9.63506C128.326 9.71096 128.487 9.82453 128.618 9.96805C128.887 10.2589 129.032 10.642 129.023 11.0367C129.021 11.1227 129.013 11.2086 128.999 11.2935L126.705 11.2914ZM126.705 10.7884H128.397C128.373 10.5902 128.276 10.408 128.123 10.278C127.971 10.1479 127.774 10.0794 127.574 10.086C127.365 10.0786 127.161 10.1456 126.998 10.2749C126.84 10.4047 126.733 10.5871 126.699 10.7884H126.705Z" fill="#938585"/>
<path d="M130.33 10.0804C130.488 9.72556 130.784 9.5485 131.217 9.5492V10.2172C130.996 10.197 130.775 10.2567 130.596 10.3852C130.419 10.5135 130.33 10.7233 130.33 11.0166V12.4569H129.709V9.60033H130.33V10.0804Z" fill="#938585"/>
<path d="M133.335 9.52635C133.483 9.52007 133.631 9.54469 133.769 9.59861C133.907 9.65253 134.032 9.73461 134.135 9.83946C134.34 10.0482 134.44 10.3362 134.44 10.7015V12.4559H133.819V10.7652C133.825 10.6761 133.813 10.5867 133.783 10.5024C133.754 10.4181 133.707 10.3406 133.646 10.2747C133.584 10.2154 133.51 10.1695 133.429 10.1398C133.347 10.1102 133.261 10.0975 133.174 10.1024C133.077 10.0987 132.981 10.1148 132.89 10.1498C132.8 10.1849 132.717 10.238 132.649 10.306C132.514 10.441 132.446 10.6476 132.446 10.9259V12.4569H131.825V9.60045H132.446V9.96574C132.633 9.67281 132.929 9.52635 133.335 9.52635Z" fill="#938585"/>
<path d="M135.742 11.2914C135.777 11.4924 135.89 11.6718 136.057 11.7913C136.235 11.9112 136.447 11.9722 136.662 11.9656C136.806 11.9747 136.95 11.947 137.079 11.885C137.209 11.8231 137.322 11.729 137.404 11.6118L137.917 11.9082C137.633 12.3256 137.212 12.5344 136.654 12.5344C136.446 12.5434 136.238 12.5103 136.043 12.4371C135.848 12.3639 135.67 12.2521 135.52 12.1086C135.302 11.8981 135.153 11.6275 135.093 11.3321C135.032 11.0365 135.063 10.7298 135.18 10.4516C135.297 10.1735 135.496 9.93681 135.751 9.77236C136.006 9.60796 136.304 9.52339 136.608 9.52967C136.803 9.52379 136.997 9.56002 137.177 9.63592C137.356 9.71176 137.516 9.82543 137.647 9.96906C137.917 10.2598 138.062 10.6429 138.053 11.0378C138.051 11.1238 138.043 11.2095 138.03 11.2945L135.742 11.2914ZM135.742 10.7883H137.434C137.406 10.5845 137.303 10.3983 137.144 10.2665C136.992 10.1484 136.803 10.0858 136.61 10.0891C136.402 10.0817 136.198 10.1487 136.035 10.278C135.877 10.407 135.771 10.5882 135.736 10.7883H135.742Z" fill="#938585"/>
<path d="M141.889 9.52625C142.036 9.52007 142.182 9.54479 142.318 9.59876C142.453 9.65273 142.577 9.73476 142.678 9.83936C142.887 10.0709 142.994 10.3747 142.978 10.6847V12.4589H142.355V10.7254C142.366 10.5591 142.313 10.3948 142.206 10.2662C142.154 10.2111 142.09 10.1679 142.019 10.1397C141.949 10.1114 141.873 10.0986 141.797 10.1023C141.711 10.0987 141.626 10.1138 141.547 10.1464C141.468 10.1791 141.398 10.2285 141.34 10.2913C141.216 10.4531 141.155 10.6542 141.17 10.8569V12.4569H140.549V10.7254C140.559 10.5605 140.509 10.3973 140.408 10.2662C140.357 10.2109 140.296 10.1675 140.226 10.1391C140.157 10.1108 140.082 10.0982 140.007 10.1023C139.921 10.0997 139.835 10.1154 139.756 10.1486C139.676 10.1817 139.605 10.2315 139.547 10.2944C139.418 10.4526 139.354 10.6538 139.369 10.8569V12.4569H138.746V9.60036H139.369V9.94266C139.456 9.80732 139.579 9.69743 139.724 9.62413C139.868 9.55082 140.029 9.51668 140.191 9.52521C140.356 9.51663 140.521 9.55441 140.665 9.63414C140.81 9.71383 140.929 9.83233 141.009 9.97605C141.2 9.6762 141.493 9.52625 141.889 9.52625Z" fill="#938585"/>
<path d="M144.278 11.2914C144.314 11.4927 144.427 11.6722 144.594 11.7914C144.771 11.9114 144.983 11.9724 145.197 11.9656C145.341 11.9748 145.485 11.947 145.615 11.8851C145.746 11.8231 145.857 11.729 145.94 11.6119L146.452 11.9083C146.172 12.3257 145.751 12.5344 145.19 12.5344C144.982 12.5435 144.774 12.5104 144.579 12.4372C144.385 12.3639 144.207 12.2522 144.057 12.1087C143.914 11.9681 143.802 11.8 143.728 11.6147C143.653 11.4294 143.618 11.2309 143.625 11.0316C143.619 10.8342 143.653 10.6377 143.725 10.4537C143.797 10.2698 143.906 10.1021 144.045 9.96076C144.187 9.81769 144.358 9.70551 144.546 9.63131C144.734 9.55711 144.936 9.52252 145.139 9.52975C145.333 9.52382 145.527 9.5601 145.707 9.63594C145.886 9.71184 146.047 9.82551 146.178 9.96913C146.447 10.2598 146.593 10.6429 146.584 11.0378C146.581 11.1238 146.574 11.2095 146.56 11.2946L144.278 11.2914ZM144.272 10.7884H145.964C145.936 10.5845 145.833 10.3984 145.674 10.2665C145.522 10.1487 145.334 10.0861 145.142 10.0891C144.933 10.0817 144.728 10.1487 144.565 10.2781C144.409 10.4079 144.305 10.589 144.272 10.7884Z" fill="#938585"/>
<path d="M148.796 9.52632C148.944 9.52014 149.092 9.54476 149.23 9.59868C149.367 9.65265 149.493 9.73463 149.597 9.83943C149.799 10.0482 149.902 10.3362 149.902 10.7015V12.4559H149.28V10.7652C149.286 10.6761 149.274 10.5868 149.244 10.5025C149.214 10.4182 149.168 10.3407 149.107 10.2746C149.045 10.2156 148.97 10.17 148.889 10.1404C148.808 10.1108 148.722 10.0979 148.635 10.1025C148.538 10.099 148.442 10.1152 148.351 10.1502C148.261 10.1852 148.178 10.2382 148.11 10.306C147.977 10.4409 147.909 10.6476 147.909 10.9259V12.457H147.287V9.60042H147.909V9.96571C148.093 9.67278 148.389 9.52632 148.796 9.52632Z" fill="#938585"/>
<path d="M13.0307 3.82692C11.7772 3.82692 10.7182 4.25551 9.85388 5.11271C8.98946 5.96989 8.55725 7.02123 8.55725 8.26668C8.55725 9.51074 8.98946 10.5617 9.85388 11.4196C10.7182 12.2775 11.7772 12.7064 13.0307 12.7064C13.6221 12.7182 14.2096 12.6102 14.7575 12.3889C15.3053 12.1677 15.802 11.8378 16.217 11.4196C17.0528 10.5796 17.5215 9.44665 17.5215 8.26613C17.5215 7.08562 17.0528 5.95265 16.217 5.11271C15.8018 4.6948 15.3051 4.36525 14.7572 4.14418C14.2094 3.92312 13.622 3.81516 13.0307 3.82692ZM14.6743 9.93133C14.46 10.1462 14.2036 10.3152 13.9209 10.4279C13.6382 10.5406 13.3352 10.5947 13.0307 10.5867C12.7274 10.5948 12.4257 10.5408 12.1443 10.428C11.863 10.3153 11.608 10.1462 11.3955 9.93133C10.9608 9.49369 10.7435 8.93705 10.7435 8.26145C10.7435 7.58585 10.9608 7.02921 11.3955 6.59157C11.608 6.37668 11.863 6.2076 12.1443 6.09482C12.4257 5.9821 12.7274 5.92808 13.0307 5.93615C13.3352 5.92823 13.6382 5.98225 13.9209 6.09497C14.2036 6.20775 14.46 6.37673 14.6743 6.59157C15.0994 7.04346 15.3358 7.63858 15.3358 8.25677C15.3358 8.8749 15.0994 9.47007 14.6743 9.92191V9.93133Z" fill="#BC509B"/>
<path d="M47.5134 3.82678C46.2586 3.82678 45.1996 4.25538 44.3366 5.11258C43.4736 5.96979 43.0414 7.02109 43.04 8.26654C43.04 9.51059 43.4722 10.5615 44.3366 11.4194C45.201 12.2773 46.2599 12.7063 47.5134 12.7063C48.6999 12.7063 49.8377 12.2385 50.6764 11.4059C51.5156 10.5733 51.9871 9.44401 51.9871 8.26654C51.9871 7.08906 51.5156 5.95978 50.6764 5.12716C49.8377 4.29454 48.6999 3.82678 47.5134 3.82678ZM49.157 9.93119C48.9427 10.146 48.6863 10.3151 48.4036 10.4278C48.1209 10.5405 47.818 10.5945 47.5134 10.5866C47.2101 10.5951 46.9082 10.5413 46.6268 10.4284C46.3454 10.3157 46.0906 10.1464 45.8782 9.93119C45.4429 9.49355 45.2252 8.9369 45.2252 8.26131C45.2252 7.58571 45.4429 7.02911 45.8782 6.59147C46.0906 6.37629 46.3454 6.20695 46.6268 6.09418C46.9082 5.98141 47.2101 5.92753 47.5134 5.93601C47.818 5.92808 48.1209 5.98215 48.4036 6.09488C48.6863 6.2076 48.9427 6.37659 49.157 6.59147C49.5973 7.02911 49.8174 7.58571 49.8174 8.26131C49.8283 8.56968 49.7753 8.877 49.6617 9.1642C49.5481 9.45144 49.3764 9.71247 49.157 9.93119Z" fill="#FF665E"/>
<path d="M87.8216 8.26659C87.8266 7.68089 87.713 7.10017 87.4887 6.55838C87.2645 6.01664 86.9336 5.52467 86.5155 5.11129C86.0979 4.69791 85.6005 4.37139 85.0538 4.15085C84.5072 3.9303 83.9216 3.82015 83.3316 3.82682C82.0768 3.82682 81.0173 4.25542 80.1537 5.11262C79.29 5.96984 78.858 7.02114 78.857 8.26659C78.857 9.51064 79.2895 10.5616 80.1537 11.4195C81.0183 12.2774 82.0773 12.7063 83.3316 12.7063C84.1812 12.7068 85.008 12.432 85.6862 11.9236V12.7095C85.6862 13.3711 85.4884 13.8815 85.0932 14.2405C84.6975 14.5995 84.1553 14.7787 83.4661 14.778C82.4146 14.778 81.6751 14.3856 81.2475 13.6008L79.3827 14.6601C79.7445 15.3224 80.3042 15.8572 80.9844 16.1911C81.6791 16.539 82.4854 16.7129 83.4033 16.7129C84.6228 16.7129 85.6653 16.371 86.5294 15.6871C87.394 15.0031 87.8261 14.0109 87.8261 12.7105V8.34796C87.8196 8.31981 87.8216 8.29474 87.8216 8.26659ZM84.9741 9.93642C84.7603 10.1513 84.5037 10.3203 84.2211 10.4331C83.9386 10.5458 83.6361 10.5999 83.3316 10.5919C83.0281 10.6005 82.7266 10.5467 82.445 10.4339C82.1635 10.3211 81.9088 10.1517 81.6965 9.93642C81.261 9.49878 81.0432 8.94218 81.0432 8.26659C81.0432 7.59099 81.261 7.03434 81.6965 6.5967C81.9088 6.38142 82.1635 6.21208 82.445 6.09926C82.7266 5.98649 83.0281 5.93267 83.3316 5.94129C83.6361 5.93331 83.9386 5.98733 84.2211 6.10006C84.5037 6.21278 84.7603 6.38182 84.9741 6.5967C85.4156 7.03434 85.6364 7.59099 85.6354 8.26659C85.6459 8.57416 85.5925 8.88059 85.4784 9.16688C85.3648 9.45318 85.1934 9.71331 84.9741 9.93124V9.93642Z" fill="#FFB357"/>
<path d="M57.9925 7.76989C57.5714 7.61072 57.1414 7.47617 56.7043 7.36703C56.3291 7.28042 55.9633 7.15813 55.6115 7.00175C55.3115 6.86261 55.162 6.68032 55.1625 6.45487C55.1605 6.35386 55.1854 6.25414 55.2347 6.16569C55.2836 6.07718 55.3553 6.00308 55.4425 5.95075C55.6528 5.82089 55.898 5.7565 56.1457 5.76607C56.7766 5.76607 57.2286 6.05202 57.5012 6.62396L59.365 5.61472C59.0535 5.05598 58.5896 4.59607 58.0259 4.28822C57.4499 3.9767 56.802 3.81749 56.1457 3.82588C55.2303 3.82588 54.4648 4.06383 53.8494 4.53974C53.2339 5.01565 52.9259 5.66899 52.9259 6.49972C52.9075 6.99482 53.067 7.48035 53.3749 7.87006C53.6625 8.22731 54.0392 8.50369 54.4678 8.67163C54.8884 8.83619 55.3185 8.97562 55.7555 9.08909C56.1322 9.18298 56.499 9.31011 56.8523 9.46898C57.1523 9.60881 57.3013 9.79145 57.3013 10.0148C57.3013 10.4984 56.9116 10.7394 56.1322 10.738C55.2741 10.738 54.7205 10.3738 54.4718 9.64534L52.5736 10.7047C53.2045 12.0392 54.3906 12.7064 56.1322 12.7064C57.104 12.7064 57.9148 12.4737 58.5646 12.0082C59.2145 11.5427 59.5389 10.8783 59.5384 10.0148C59.5384 9.44356 59.3884 8.9673 59.0894 8.58602C58.8073 8.21814 58.4276 7.93554 57.9925 7.76989Z" fill="#FF8657"/>
<path d="M62.9794 1.70837H60.7932V12.431H62.9794V6.14812H64.6778V4.06288H62.9794V1.70837Z" fill="#FF8657"/>
<path d="M67.9767 4.06287H65.7905V12.4717H67.9767V4.06287Z" fill="#FFB357"/>
<path d="M24.5225 8.59857C24.5225 10.5252 23.288 10.5252 22.8221 10.5252H22.717C22.2522 10.5252 21.0166 10.5252 21.0166 8.59857V4.05969H18.8082V8.59857C18.8082 11.1034 20.3436 12.7211 22.7212 12.7211H22.8263C25.204 12.7211 26.7393 11.1023 26.7393 8.59857V4.05969H24.531L24.5225 8.59857Z" fill="#E84985"/>
<path d="M37.9364 3.80904H37.8313C37.2448 3.80288 36.6634 3.91693 36.1235 4.14406V0.635254H33.9341V7.46918C33.9225 7.62052 33.9152 7.776 33.9152 7.93567V12.4704H36.1235V7.93149C36.1235 6.00491 37.3591 6.00491 37.8239 6.00491H37.929C38.3938 6.00491 39.6295 6.00491 39.6295 7.93149V12.4704H41.8378V7.93149C41.8494 5.42671 40.313 3.80904 37.9364 3.80904Z" fill="#FF665E"/>
<path d="M73.7535 3.8186H73.6483C71.2717 3.8186 69.7354 5.43629 69.7354 7.94107V12.48H71.9435V7.94107C71.9435 6.01449 73.1789 6.01449 73.6438 6.01449H73.749C74.2139 6.01449 75.4493 6.01449 75.4493 7.94107V12.48H77.6579V7.94107C77.6664 5.43629 76.13 3.8186 73.7535 3.8186Z" fill="#FFB357"/>
<path d="M28.301 7.94121V12.4801H30.5093V7.94121C30.5093 6.01458 31.7449 6.01458 32.2097 6.01458H32.642V3.82288H32.2139C29.8374 3.81871 28.301 5.43639 28.301 7.94121Z" fill="#E84985"/>
<path d="M4.50342 5.54065V12.4601H6.67809V5.54065" fill="#BC509B"/>
<path d="M8.51705 0.635254C8.51705 0.635254 8.51705 0.641517 8.51705 0.645691C8.51705 1.50776 8.23455 2.21954 7.66948 2.78103C7.39445 3.05652 7.06549 3.27325 6.7029 3.41792C6.34031 3.56258 5.95176 3.6321 5.56106 3.62222C5.17189 3.63278 4.7847 3.56353 4.42372 3.41878C4.06274 3.27404 3.73574 3.05693 3.46317 2.78103C2.90582 2.21954 2.62715 1.50776 2.62715 0.645691V0.635254H0.399902V0.645691C0.399902 2.08177 0.898704 3.29486 1.8963 4.28495C2.89391 5.27504 4.1162 5.77009 5.56315 5.77009C7.01018 5.77009 8.23699 5.27504 9.24373 4.28495C10.2504 3.29486 10.7524 2.08177 10.7496 0.645691C10.7496 0.645691 10.7496 0.638385 10.7496 0.635254H8.51705Z" fill="#BC509B"/>
</g>
<defs>
<clipPath id="clip0_865_4047">
<rect width="150" height="16.4452" fill="white" transform="translate(0.25 0.504395)"/>
</clipPath>
</defs>
</svg>
